<?xml version="1.0" encoding="utf-8"?>
<!-- Generator: Adobe Illustrator 20.0.0, SVG Export Plug-In . SVG Version: 6.00 Build 0)  -->
<svg version="1.1" id="Layer_1" xmlns="http://www.w3.org/2000/svg" xmlns:xlink="http://www.w3.org/1999/xlink" x="0px" y="0px"
	 viewBox="0 0 173.3 197.1" style="enable-background:new 0 0 173.3 197.1;" xml:space="preserve">
<style type="text/css">
	.st0{fill:#C7D92C;}
	.st1{fill:#BDD131;}
	.st2{fill:#231A12;}
</style>
<g>
	<path class="st0" d="M29.7,130.6c-1.5,0-2.9-0.7-3.9-1.9c-0.9-1.2-1.3-2.7-0.9-4.2l27-111.7c0.5-2.2,2.5-3.8,4.8-3.8h48.1
		c2.4,0,4.4,1.7,4.8,4.1l19.2,111.7c0.2,1.4-0.2,2.9-1.1,4c-0.9,1.1-2.3,1.8-3.8,1.8H29.7z"/>
	<path class="st1" d="M104.8,14l19.3,111.7H29.7L56.7,14H104.8 M104.8,4.2H56.7c-4.5,0-8.5,3.1-9.6,7.5L20.2,123.4
		c-0.7,2.9,0,6,1.8,8.4c1.9,2.4,4.7,3.8,7.7,3.8h94.3c2.9,0,5.7-1.3,7.5-3.5c1.9-2.2,2.7-5.2,2.2-8L114.5,12.4
		C113.7,7.6,109.6,4.2,104.8,4.2"/>
	<path class="st0" d="M38.1,192.2c-2.7,0-4.9-2.2-4.9-4.9v-52c0-2.7,2.2-4.9,4.9-4.9h77c2.7,0,4.9,2.2,4.9,4.9v52
		c0,2.7-2.2,4.9-4.9,4.9H38.1z"/>
	<path class="st1" d="M115.1,187.3h-77v-52h77V187.3z M115.1,125.5h-77c-5.4,0-9.8,4.4-9.8,9.8v52c0,5.4,4.4,9.8,9.8,9.8h77
		c5.4,0,9.8-4.4,9.8-9.8v-52C124.9,129.9,120.5,125.5,115.1,125.5"/>
	<path class="st2" d="M107.8,105.8c21.2-0.5,34-19.9,52.3-27.6c2.9-1.2,1.6-6.1-1.3-4.8c-17.5,7.3-30.9,26.9-50.9,27.4
		C104.6,100.9,104.6,105.9,107.8,105.8"/>
	<path class="st2" d="M101.4,120.7c22.9,5.7,45.9,11.5,68.8,17.2c3.1,0.8,4.5-4,1.3-4.8c-22.9-5.7-45.9-11.5-68.8-17.2
		C99.6,115.1,98.3,119.9,101.4,120.7"/>
	<path class="st2" d="M97.4,136.5c15.7,11.3,30.2,24.2,45.9,35.5c2.6,1.9,5.1-2.5,2.5-4.3c-15.7-11.3-30.2-24.2-45.9-35.5
		C97.3,130.3,94.8,134.6,97.4,136.5"/>
	<path class="st2" d="M63.8,112.4c-19.4-5.9-36.2-18-55-25.2c-3-1.2-4.3,3.7-1.3,4.8c18.9,7.3,35.6,19.3,55,25.2
		C65.5,118.2,66.8,113.3,63.8,112.4"/>
	<path class="st2" d="M42.9,122.7c-14.1,3.6-27.8,8.2-41.3,13.8c-2.9,1.2-1.7,6.1,1.3,4.8c13.4-5.5,27.2-10.2,41.3-13.8
		C47.4,126.8,46.1,121.9,42.9,122.7"/>
	<path class="st2" d="M57.9,131.4c-15.6,13.2-32.1,25.2-48.2,37.8c-2.5,2,1,5.5,3.5,3.5c16.1-12.6,32.5-24.7,48.2-37.8
		C63.9,132.8,60.3,129.3,57.9,131.4"/>
	<path class="st2" d="M54,62.7c1.2-2.9,3.8-6.9,7.3-7.3c4.2-0.5,4,6.4,3.8,8.9c-0.2,3.2,4.8,3.2,5,0c0.3-5.9-1-13.1-7.9-13.9
		c-6.2-0.8-11,6.1-13,11C48,64.4,52.8,65.7,54,62.7"/>
	<path class="st2" d="M90.7,65c1-3.5,3.2-7.2,7-8c4-0.9,4.3,4.9,4.1,7.4c-0.2,3.2,4.8,3.2,5,0c0.4-5.8-1.8-11.9-8.3-12.4
		c-6.5-0.5-11,6.4-12.6,11.7C85,66.8,89.8,68.1,90.7,65"/>
	<path class="st2" d="M83.8,129.1c-0.7-3.2-0.5-6.6,0.9-9.5c-0.9,0.4-1.9,0.8-2.8,1.1c1.5,0.5,3.6,1.3,4.2,2.9
		c0.6,1.7,0.1,3.8-0.2,5.5c0.8-0.6,1.6-1.2,2.4-1.8c-0.8,0-4.2,0.3-4.7-0.8c-0.8-1.8,0-4.5,0.2-6.4c-1.2,0.5-2.4,1-3.7,1.5
		c0.6,0.5,1.3,0.9,1.9,1.4c0.2,0.1,0.8,0.9,0.7,0.6c0.5,1.4,0.6,3,0.8,4.5c1.2-0.9,2.4-1.9,3.7-2.8c-1.2-0.9-2.5-1.6-3.5-2.6
		c-0.8-0.8-0.8-2.9-1-3.9c-0.2-1.1-1.4-1.8-2.4-1.8c0,0-0.1,0-0.1,0c0.8,0.6,1.6,1.2,2.4,1.8c0,0,0,0,0,0c-0.6,1-1.2,2-1.7,3.1
		c0.4-0.2,0.9-0.2,1.3-0.3c0.4-0.1,0.8-0.1,1.3-0.1c1.2-0.1,0.5,0.3-0.2-0.5c-0.2-0.6-0.5-1.2-0.7-1.8c0.1-2.3-0.1,0.1-0.1,0.6v2.1
		v4.4c0.6-0.8,1.2-1.6,1.8-2.4c-3.1,0.9-5.9,0.9-9,0c-3.1-0.9-4.4,3.9-1.3,4.8c3.9,1.2,7.7,1.2,11.6,0c1.1-0.3,1.8-1.3,1.8-2.4v-5
		v-1.1c0-1.5-0.5,1.8,0-0.2c0.2-0.9,0-1.9-0.6-2.6c-1.5-1.6-5.4-1.1-7.3-0.4c-1.3,0.5-2.1,1.6-1.7,3.1c0,0,0,0,0,0
		c0.3,1.1,1.3,1.8,2.4,1.8c0,0,0.1,0,0.1,0c-0.8-0.6-1.6-1.2-2.4-1.8c0.4,2,0.8,4.2,2.1,5.9c1.3,1.5,3.2,2.5,4.8,3.7
		c1.9,1.4,4-0.9,3.7-2.8c-0.4-1.9-0.5-3.9-1.3-5.6c-0.8-1.7-3-2.8-4.4-3.9c-1.2-0.9-3.5,0-3.7,1.5c-0.5,3.3-1.4,7.1,0.3,10.2
		c1.7,3.1,5.9,3.2,9,3.2c1,0,2.2-0.8,2.4-1.8c0.5-2.8,1.1-5.8,0.1-8.6c-1.3-3.3-4.4-4.9-7.5-6c-1-0.3-2.4,0.2-2.8,1.1
		c-2,4.2-2.4,8.8-1.4,13.4C79.7,133.5,84.5,132.2,83.8,129.1"/>
	<path class="st2" d="M33.1,55.1C23.8,40.1,10,26.3,5.9,8.7c-0.8,1.1-1.6,2.1-2.4,3.2c12.2,0.3,27.4,8,34.9,17.6
		c2,2.5,5.5-1,3.5-3.5C33.6,15.3,16.9,7.2,3.5,6.8c-1.7,0-2.8,1.6-2.4,3.2c4.3,18.1,18.1,32.2,27.8,47.6
		C30.5,60.3,34.9,57.8,33.1,55.1"/>
	<path class="st2" d="M113.7,31c14.9-8.1,28.7-18.2,43.6-26.4c-1.2-0.9-2.4-1.9-3.7-2.8c-7.3,21-23.7,37.4-31,58.5
		c-1.1,3.1,3.8,4.4,4.8,1.3c7.3-21,23.7-37.4,31-58.5c0.8-2.2-1.9-3.8-3.7-2.8c-14.9,8.1-28.7,18.2-43.6,26.4
		C108.3,28.2,110.8,32.5,113.7,31"/>
</g>
</svg>
