<?xml version="1.0" encoding="utf-8"?>
<!-- Generator: Adobe Illustrator 20.0.0, SVG Export Plug-In . SVG Version: 6.00 Build 0)  -->
<svg version="1.1" id="Layer_1" xmlns="http://www.w3.org/2000/svg" xmlns:xlink="http://www.w3.org/1999/xlink" x="0px" y="0px"
	 viewBox="0 0 197.2 203" style="enable-background:new 0 0 197.2 203;" xml:space="preserve">
<style type="text/css">
	.st0{fill:#F27264;}
	.st1{fill:#231A12;}
	.st2{fill:#F06459;}
</style>
<g>
	<path class="st0" d="M31.7,137.1c-1.5,0-2.9-0.7-3.8-1.9c-0.9-1.2-1.3-2.7-0.9-4.2L53.6,20.6c0.5-2.2,2.5-3.7,4.7-3.7H106
		c2.4,0,4.4,1.7,4.8,4l19.1,110.5c0.2,1.4-0.1,2.9-1.1,4c-0.9,1.1-2.3,1.7-3.7,1.7H31.7z"/>
	<path class="st0" d="M40,198.1c-2.7,0-4.9-2.2-4.9-4.9v-51.5c0-2.7,2.2-4.9,4.9-4.9h76.2c2.7,0,4.9,2.2,4.9,4.9v51.5
		c0,2.7-2.2,4.9-4.9,4.9H40z"/>
	<path class="st1" d="M125.7,193c-0.6-9-1.5-19.7,3.1-27.9c3.6-6.4,11.3-8.5,17.9-10.1c7.9-1.9,15.5-2.8,22.5-7.2
		c6.1-3.7,10.9-9.2,14.7-15.2c8.9-14.1,11.7-31.6,12.8-47.9c1.2-17.8-0.2-35.8-3.4-53.3c-1.5-8.5-3.5-17-6.5-25.2
		c-1.1-3-5.9-1.7-4.8,1.3c5.3,14.8,7.9,30.6,9.3,46.3c1.6,18.1,1.2,36.8-3.1,54.5c-3.6,15-10.9,30.2-25.3,37.3
		c-12.9,6.4-30.8,3.2-38.9,17.6c-4.8,8.7-4,20.3-3.4,29.8C120.9,196.2,125.9,196.2,125.7,193"/>
	<g>
		<path class="st1" d="M57.2,70.5c1.6-3,4-6.4,7.7-6.5c4.1-0.1,5.5,5.6,5.8,8.6c0.3,3.2,5.3,3.2,5,0C75.1,67,73,60.8,66.8,59.3
			c-6.2-1.5-11.3,3.9-13.9,8.8C51.4,70.9,55.7,73.4,57.2,70.5"/>
		<path class="st1" d="M90.5,72.7c0.4-4,2.4-8.6,6.7-9.4c4.7-1,4.5,6.9,4.2,9.4c-0.4,3.2,4.6,3.2,5,0c0.7-6.3-1.2-14.4-9-14.4
			c-7.5,0-11.3,8.1-11.9,14.4C85.2,75.9,90.2,75.9,90.5,72.7"/>
		<path class="st1" d="M85.7,96.3c-3.6,0.1-6.9,2.1-7,5.9c1.4-0.6,2.8-1.2,4.3-1.8c-0.5-0.5-0.4-0.9-0.4-1.6
			c-1.4,0.6-2.8,1.2-4.3,1.8c1.8,1.7,4.4,1.3,6.4,0.4c1.5-0.7,1.6-2.9,0.5-3.9c-0.9-0.8-2-1.7-3.3-1.3c-1.2,0.4-2.1,1.5-1.9,2.8
			c0.2,1.3,0.7,2.6,1.3,3.8c0.6,1.2,2.3,1.5,3.4,0.9c1.2-0.7,1.5-2.2,0.9-3.4c-0.2-0.3-0.3-0.7-0.5-1c0.3,0.7-0.1-0.2-0.1-0.3
			c-0.3-0.8,0,0.3-0.1,0.5c-0.2,0.4-0.4,0.7-0.6,1.1c0,0,0,0,0,0c-0.4,0.2-0.7,0.4-1.1,0.6c-0.8,0.2-1.4,0.1-1.8-0.4
			c0.1,0.1,0.2,0.2,0.4,0.3c0.2-1.3,0.3-2.6,0.5-3.9c-0.1,0-0.7,0.2-0.4,0.2c-0.7,0.1,0.3,0.1-0.3,0c0.5,0.1,0.2,0.1,0,0
			c0.5,0.3,0.5,0.4,0.3,0.2c-1.6-1.5-4.3-0.5-4.3,1.8c0,2,0.5,3.7,1.9,5.2c1.5,1.7,4.2,0.3,4.3-1.8c-0.1,0.2-0.1,0.1,0-0.2
			c-0.1,0.2-0.1,0.1,0.1-0.1c-0.1,0.1,0.2-0.1,0.3-0.2c0.4-0.3,1-0.3,1.6-0.4C89,101.2,89,96.2,85.7,96.3"/>
		<path class="st1" d="M66.4,121.7c13.9,0.1,33.6,2.6,35.4-16.1c0.3-3.2-4.7-3.2-5,0c-1.4,14.7-20.1,11.2-30.4,11.1
			C63.2,116.7,63.2,121.7,66.4,121.7"/>
		<g>
			<path class="st2" d="M106,21.7l19.1,110.5H31.7L58.4,21.7H106 M106,12H58.4c-4.5,0-8.4,3.1-9.5,7.5L22.2,130
				c-0.7,2.9,0,6,1.8,8.3c1.8,2.3,4.7,3.7,7.7,3.7h93.4c2.9,0,5.6-1.3,7.5-3.5c1.9-2.2,2.6-5.1,2.2-7.9L115.6,20.1
				C114.8,15.4,110.8,12,106,12"/>
			<path class="st2" d="M116.2,193.3H40v-51.5h76.2V193.3z M116.2,132.1H40c-5.4,0-9.7,4.4-9.7,9.7v51.5c0,5.4,4.4,9.7,9.7,9.7h76.2
				c5.4,0,9.7-4.4,9.7-9.7v-51.5C125.9,136.4,121.6,132.1,116.2,132.1"/>
			<path class="st1" d="M43.9,67.5c-2.2-11.7-8.7-29.4,0.4-39.6c10.2-11.5,25.8-5.4,30,8c0.8,2.5,4,2.3,4.8,0
				c3.4-9.3,9.6-23.5,21.4-23.5c8.8,0,15.8,8.5,20,15.2c8.9,14.2,15.2,43-7,48.3c-2.4,0.6-2.4,4.2,0,4.8c15.4,3.8,26,27.6,18.9,41.7
				c-3.8,7.5-15.7,10.1-23,11.6c-8.1,1.6-16.5,1.9-24.8,1.9c-6.8,0-13.6,0.7-20.4,1c-7.3,0.3-15.6,1.1-22.7-1.3
				c-3.8-1.3-6.8-6.1-8-9.7c-1.4-4.4-0.5-9.2,1.2-13.3c3.3-7.8,10.5-14.2,18.7-16.1c1.5-0.3,2.4-2.4,1.5-3.7
				c-9.5-13.2-9.9-28.5-9.9-44.1c0-3.2-5-3.2-5,0c0,16.5,0.5,32.8,10.6,46.7c0.5-1.2,1-2.4,1.5-3.7c-16.9,3.8-31.1,25.3-20.7,41.3
				c4.9,7.6,12.2,8.8,20.5,9.1c9.6,0.3,19.3-0.6,28.9-1.1c17.6-0.9,38.7,0.5,52.7-12.3c13.8-12.6,2.7-39-9.7-48.4
				c-2.8-2.1-5.7-3.6-9.1-4.4v4.8C141.3,74.4,135,41,124,23.8C118.6,15.5,110,7,99.4,7.4C85.6,7.9,78.3,23.6,74.2,34.6h4.8
				C74.5,20,59.3,11.7,45.5,20.3c-16.8,10.5-9.4,32.9-6.5,48.5C39.6,72,44.5,70.6,43.9,67.5"/>
			<path class="st1" d="M56.9,11.2C30.1,6.4,28.4,39.2,27.3,57.8c-0.8,12.6-4.1,24.6-6.4,37c-2.2,12-4.5,28.1,5.2,37.6
				c2.3,2.3,5.8-1.3,3.5-3.5c-9.1-8.9-5.3-25.6-3.2-36.6c2.1-10.3,4.9-20.4,5.7-30.9c1-14.9,0.1-49.5,23.5-45.3
				C58.7,16.6,60.1,11.8,56.9,11.2"/>
			<path class="st1" d="M49.4,11.6c19.1-0.2,37.5-7.5,56.6-6.2c19.9,1.4,34.4,19.5,34.2,38.9c-0.1,8.1-1.7,16.2-2.3,24.2
				c-0.5,6.8,0.1,13.5,0.7,20.2c0.8,8.6,4.5,32.3-8.7,33.6c-3.2,0.3-3.2,5.3,0,5c15.4-1.5,14.9-20.7,14.2-32.3
				c-0.4-6.9-1.5-13.7-1.4-20.6c0.1-10.1,2.2-20.1,2.5-30.2c0.6-19.4-12.9-37.9-31.8-42.7c-21-5.5-43,4.8-64.1,5
				C46.2,6.7,46.2,11.7,49.4,11.6"/>
			<path class="st1" d="M21.2,101.5C18.9,86.7,10,73.6,6.3,59c-1.8-7-2.1-14.8,3-20.4c5.8-6.4,14-4.9,17.3,2.9
				c1.2,2.9,6.1,1.6,4.8-1.3c-3.1-7.3-8.7-12.1-16.9-10.3C7,31.5,1.7,38.6,0.4,45.7c-1.7,9.4,2,19.2,5.4,27.7
				c3.8,9.6,9,19.1,10.5,29.4C16.8,106,21.6,104.7,21.2,101.5"/>
			<path class="st1" d="M141.6,97.7c0.6-19.6,25.2-29.1,26.2-48.7c0.4-7.4-5.3-14.6-11.7-17.5c-7.4-3.5-14.3,0.4-18,7.1
				c-1.5,2.8,2.8,5.4,4.3,2.5c4.3-7.9,11.7-6.9,17.1-0.7c5.6,6.4,2.7,14-1.3,20.3c-7.7,12.1-21.1,21.6-21.6,37.1
				C136.5,100.9,141.5,100.9,141.6,97.7"/>
		</g>
	</g>
</g>
</svg>
