<?xml version="1.0" encoding="utf-8"?>
<!-- Generator: Adobe Illustrator 20.0.0, SVG Export Plug-In . SVG Version: 6.00 Build 0)  -->
<svg version="1.1" id="Layer_1" xmlns="http://www.w3.org/2000/svg" xmlns:xlink="http://www.w3.org/1999/xlink" x="0px" y="0px"
	 viewBox="0 0 169.1 210.5" style="enable-background:new 0 0 169.1 210.5;" xml:space="preserve">
<style type="text/css">
	.st0{clip-path:url(#SVGID_2_);fill:#4076BA;}
	.st1{clip-path:url(#SVGID_2_);fill:none;stroke:#175BA3;stroke-width:6;stroke-miterlimit:10;}
	.st2{opacity:0.9;clip-path:url(#SVGID_2_);}
	.st3{clip-path:url(#SVGID_4_);fill:#FFFFFF;}
	
		.st4{clip-path:url(#SVGID_4_);fill:none;stroke:#FFFFFF;stroke-width:6;stroke-linecap:round;stroke-linejoin:round;stroke-miterlimit:10;}
	.st5{clip-path:url(#SVGID_4_);fill:#C7D92C;}
	
		.st6{clip-path:url(#SVGID_4_);fill:none;stroke:#BDD131;stroke-width:6;stroke-linecap:round;stroke-linejoin:round;stroke-miterlimit:10;}
	.st7{clip-path:url(#SVGID_2_);}
	.st8{clip-path:url(#SVGID_6_);fill:#FFFFFF;}
	.st9{fill:#EE426D;}
	.st10{fill:#D32859;}
	.st11{fill:#C7D92C;}
	.st12{fill:#BDD131;}
	.st13{fill:#F27264;}
	.st14{fill:#F06459;}
	.st15{fill:#4076BA;}
	.st16{fill:#175BA3;}
	.st17{opacity:0.9;clip-path:url(#SVGID_8_);}
	.st18{clip-path:url(#SVGID_10_);fill:#FFFFFF;}
	
		.st19{clip-path:url(#SVGID_10_);fill:none;stroke:#FFFFFF;stroke-width:6;stroke-linecap:round;stroke-linejoin:round;stroke-miterlimit:10;}
	.st20{clip-path:url(#SVGID_10_);fill:#C7D92C;}
	
		.st21{clip-path:url(#SVGID_10_);fill:none;stroke:#BDD131;stroke-width:6;stroke-linecap:round;stroke-linejoin:round;stroke-miterlimit:10;}
	.st22{opacity:0.9;}
	.st23{clip-path:url(#SVGID_12_);fill:#151415;}
	.st24{clip-path:url(#SVGID_12_);fill:none;stroke:#F6F7F7;stroke-width:7;stroke-miterlimit:10;}
	.st25{clip-path:url(#SVGID_14_);fill:#151415;}
	.st26{clip-path:url(#SVGID_14_);fill:none;stroke:#F6F7F7;stroke-width:7;stroke-miterlimit:10;}
	.st27{clip-path:url(#SVGID_16_);fill:#151415;}
	.st28{clip-path:url(#SVGID_16_);fill:none;stroke:#F6F7F7;stroke-width:7;stroke-miterlimit:10;}
	.st29{fill:none;}
</style>
<g>
	<defs>
		<polygon id="SVGID_1_" points="2147.2,132.4 208.2,132.4 208.2,-947.6 2143.2,-949.6 		"/>
	</defs>
	<clipPath id="SVGID_2_">
		<use xlink:href="#SVGID_1_"  style="overflow:visible;"/>
	</clipPath>
	<path class="st0" d="M516,564.4c-115.4,0-223.9-44.9-305.5-126.5C128.9,356.2,84,247.8,84,132.4s44.9-223.9,126.5-305.5
		c81.6-81.6,190.1-126.5,305.5-126.5c115.4,0,223.9,44.9,305.5,126.5C903.1-91.5,948,17,948,132.4s-44.9,223.9-126.5,305.5
		C739.9,519.4,631.4,564.4,516,564.4 M516-245.6c-101,0-195.9,39.3-267.3,110.7C177.3-63.5,138,31.4,138,132.4
		c0,101,39.3,195.9,110.7,267.3C320.1,471.1,415,510.4,516,510.4c101,0,195.9-39.3,267.3-110.7C854.7,328.3,894,233.3,894,132.4
		c0-101-39.3-195.9-110.7-267.3C711.9-206.3,617-245.6,516-245.6"/>
	<path class="st1" d="M516,564.4c-115.4,0-223.9-44.9-305.5-126.5C128.9,356.2,84,247.8,84,132.4s44.9-223.9,126.5-305.5
		c81.6-81.6,190.1-126.5,305.5-126.5c115.4,0,223.9,44.9,305.5,126.5C903.1-91.5,948,17,948,132.4s-44.9,223.9-126.5,305.5
		C739.9,519.4,631.4,564.4,516,564.4z M516-245.6c-101,0-195.9,39.3-267.3,110.7C177.3-63.5,138,31.4,138,132.4
		c0,101,39.3,195.9,110.7,267.3C320.1,471.1,415,510.4,516,510.4c101,0,195.9-39.3,267.3-110.7C854.7,328.3,894,233.3,894,132.4
		c0-101-39.3-195.9-110.7-267.3C711.9-206.3,617-245.6,516-245.6z"/>
	<g class="st2">
		<g>
			<defs>
				<rect id="SVGID_3_" x="98.1" y="-1148.1" width="881.3" height="738.4"/>
			</defs>
			<clipPath id="SVGID_4_">
				<use xlink:href="#SVGID_3_"  style="overflow:visible;"/>
			</clipPath>
			<path class="st3" d="M976.4-1007.8C690.2-902.5,858.1-765.2,747.9-668.7C709.2-634.7,616.1-612,489.8-621
				c-48.6-3.5-120.9,7.5-134.9,102.5c-21.2,143.9-125.3,99.3-125.3,99.3c-25.8,3.8-4.1-63.3-26.6-76.6
				C97.7-558,80.7-719.3,186.6-719.1c125.6,0.3,171.6-26.4,158.9-107.8c-11.7-75.6,56.8-129.8,112.5-126.9
				c208.1,10.9,257.2-59.2,324.8-185.3L976.4-1007.8z"/>
			<path class="st4" d="M976.4-1007.8C690.2-902.5,858.1-765.2,747.9-668.7C709.2-634.7,616.1-612,489.8-621
				c-48.6-3.5-120.9,7.5-134.9,102.5c-21.2,143.9-125.3,99.3-125.3,99.3c-25.8,3.8-4.1-63.3-26.6-76.6
				C97.7-558,80.7-719.3,186.6-719.1c125.6,0.3,171.6-26.4,158.9-107.8c-11.7-75.6,56.8-129.8,112.5-126.9
				c208.1,10.9,257.2-59.2,324.8-185.3L976.4-1007.8z"/>
			<path class="st5" d="M962.4-1013.8C676.2-908.5,844.1-771.2,733.9-674.7C695.2-640.7,602.1-618,475.8-627
				c-48.6-3.5-120.9,7.5-134.9,102.5c-21.2,143.9-125.3,99.3-125.3,99.3c-25.8,3.8-4.1-63.3-26.6-76.6
				C83.7-564,66.7-725.3,172.6-725.1c125.6,0.3,171.6-26.4,158.9-107.8c-11.7-75.6,56.8-129.8,112.5-126.9
				c208.1,10.9,257.2-59.2,324.8-185.3L962.4-1013.8z"/>
			<path class="st6" d="M962.4-1013.8C676.2-908.5,844.1-771.2,733.9-674.7C695.2-640.7,602.1-618,475.8-627
				c-48.6-3.5-120.9,7.5-134.9,102.5c-21.2,143.9-125.3,99.3-125.3,99.3c-25.8,3.8-4.1-63.3-26.6-76.6
				C83.7-564,66.7-725.3,172.6-725.1c125.6,0.3,171.6-26.4,158.9-107.8c-11.7-75.6,56.8-129.8,112.5-126.9
				c208.1,10.9,257.2-59.2,324.8-185.3L962.4-1013.8z"/>
		</g>
	</g>
	<g class="st7">
		<defs>
			<path id="SVGID_5_" d="M962.4-1013.8C676.2-908.5,844.1-771.2,733.9-674.7C695.2-640.7,602.1-618,475.8-627
				c-48.6-3.5-120.9,7.5-134.9,102.5c-21.2,143.9-125.3,99.3-125.3,99.3c-25.8,3.8-4.1-63.3-26.6-76.6
				C83.7-564,66.7-725.3,172.6-725.1c125.6,0.3,171.6-26.4,158.9-107.8c-11.7-75.6,56.8-129.8,112.5-126.9
				c208.1,10.9,257.2-59.2,324.8-185.3L962.4-1013.8z"/>
		</defs>
		<clipPath id="SVGID_6_">
			<use xlink:href="#SVGID_5_"  style="overflow:visible;"/>
		</clipPath>
		<path class="st8" d="M100.3-684.8c-4.8,0.6-6.5,0.9-8.3,1.1c0.5,1.7,0.5,4.1,1.6,4.8c1.4,0.9,4.6,1.4,5.4,0.5
			C100.2-679.6,99.9-682.2,100.3-684.8"/>
		<path class="st8" d="M118.6-579.5c-2.6,0.4-4.4,0.6-6.2,0.9c0.4,0.9,0.5,2.4,1.1,2.6c1.3,0.4,2.9,0.4,4.3,0.1
			C118.2-576,118.3-577.6,118.6-579.5"/>
		<path class="st8" d="M110-428c-1.9-0.9-3.7-1.8-5.6-2.7c-0.1,1-0.1,2.1-0.2,3.1C106.2-427.7,108.1-427.8,110-428L110-428z"/>
		<path class="st8" d="M81.6-438c-0.6,0.2-1.3,0.4-2,0.5c0.3,0.8,0.6,1.6,0.9,2.4c0.6-0.3,1.5-0.5,1.8-1.1
			C82.5-436.5,81.9-437.3,81.6-438"/>
		<path class="st8" d="M90.7-617.5c-0.6,0.2-1.2,0.4-1.8,0.6c0.3,0.5,0.5,1.1,0.9,1.5c0.1,0.1,1-0.1,1-0.3
			C90.9-616.3,90.8-616.9,90.7-617.5"/>
		<path class="st8" d="M95.1-703.6c-0.8,0.9-1.3,1.4-1.8,1.9c0.4,0.3,0.8,0.6,1.2,1c0.2-0.3,0.6-0.6,0.7-0.9
			C95.3-702.2,95.2-702.8,95.1-703.6"/>
		<path class="st8" d="M120.4-529.9c-0.4,0.4-0.8,0.8-1.1,1.2c-0.2-0.3-0.4-0.6-0.6-0.9c0.5,0,1-0.1,1.5-0.1L120.4-529.9z"/>
		<polygon class="st8" points="88.9,-570.6 88.8,-569.6 89.6,-570.3 		"/>
		<path class="st8" d="M110-428c0.7,0.6,1.4,1.1,2.2,1.7C111.4-426.8,110.7-427.4,110-428C110-428,110-428,110-428"/>
		<path class="st8" d="M117.2-450.5c0,0.4,0,1,0.1,1.1c0.6,0.3,1.3,0.3,1.9,0.5c-0.3-0.6-0.6-1.2-1-1.7
			C118.1-450.8,117.5-450.6,117.2-450.5"/>
	</g>
</g>
<g>
	<path class="st9" d="M-555.2-421.5c-0.9,0-1.8-0.4-2.4-1.1c-0.6-0.7-0.8-1.7-0.6-2.6l16.4-68.1c0.3-1.3,1.5-2.3,2.9-2.3h29.3
		c1.5,0,2.7,1.1,3,2.5l11.7,68.1c0.2,0.9-0.1,1.8-0.7,2.4c-0.6,0.7-1.4,1.1-2.3,1.1H-555.2z"/>
	<path class="st10" d="M-509.4-492.6l11.7,68.1h-57.5l16.4-68.1H-509.4 M-509.4-498.6h-29.3c-2.8,0-5.2,1.9-5.8,4.6l-16.4,68.1
		c-0.4,1.8,0,3.7,1.1,5.1c1.1,1.4,2.9,2.3,4.7,2.3h57.5c1.8,0,3.4-0.8,4.6-2.1c1.1-1.4,1.6-3.1,1.3-4.9l-11.7-68.1
		C-504-496.5-506.5-498.6-509.4-498.6"/>
	<path class="st9" d="M-550.1-384c-1.7,0-3-1.3-3-3v-31.7c0-1.7,1.3-3,3-3h46.9c1.7,0,3,1.3,3,3v31.7c0,1.7-1.3,3-3,3H-550.1z"/>
	<path class="st10" d="M-503.2-387h-46.9v-31.7h46.9V-387z M-503.2-424.7h-46.9c-3.3,0-6,2.7-6,6v31.7c0,3.3,2.7,6,6,6h46.9
		c3.3,0,6-2.7,6-6v-31.7C-497.2-422-499.8-424.7-503.2-424.7"/>
	<path class="st11" d="M-643.2-421.5c-0.9,0-1.8-0.4-2.4-1.1c-0.6-0.7-0.8-1.7-0.6-2.6l16.4-68.1c0.3-1.3,1.5-2.3,2.9-2.3h29.3
		c1.5,0,2.7,1.1,3,2.5l11.7,68.1c0.2,0.9-0.1,1.8-0.7,2.4c-0.6,0.7-1.4,1.1-2.3,1.1H-643.2z"/>
	<path class="st12" d="M-597.4-492.6l11.7,68.1h-57.5l16.4-68.1H-597.4 M-597.4-498.6h-29.3c-2.8,0-5.2,1.9-5.8,4.6l-16.4,68.1
		c-0.4,1.8,0,3.7,1.1,5.1c1.1,1.4,2.9,2.3,4.7,2.3h57.5c1.8,0,3.4-0.8,4.6-2.1c1.1-1.4,1.6-3.1,1.3-4.9l-11.7-68.1
		C-592-496.5-594.5-498.6-597.4-498.6"/>
	<path class="st11" d="M-638.1-384c-1.7,0-3-1.3-3-3v-31.7c0-1.7,1.3-3,3-3h46.9c1.7,0,3,1.3,3,3v31.7c0,1.7-1.3,3-3,3H-638.1z"/>
	<path class="st12" d="M-591.2-387h-46.9v-31.7h46.9V-387z M-591.2-424.7h-46.9c-3.3,0-6,2.7-6,6v31.7c0,3.3,2.7,6,6,6h46.9
		c3.3,0,6-2.7,6-6v-31.7C-585.2-422-587.8-424.7-591.2-424.7"/>
	<path class="st13" d="M-473.2-421.5c-0.9,0-1.8-0.4-2.4-1.1c-0.6-0.7-0.8-1.7-0.6-2.6l16.4-68.1c0.3-1.3,1.5-2.3,2.9-2.3h29.3
		c1.5,0,2.7,1.1,3,2.5l11.7,68.1c0.2,0.9-0.1,1.8-0.7,2.4c-0.6,0.7-1.4,1.1-2.3,1.1H-473.2z"/>
	<path class="st14" d="M-427.4-492.6l11.7,68.1h-57.5l16.4-68.1H-427.4 M-427.4-498.6h-29.3c-2.8,0-5.2,1.9-5.8,4.6l-16.4,68.1
		c-0.4,1.8,0,3.7,1.1,5.1c1.1,1.4,2.9,2.3,4.7,2.3h57.5c1.8,0,3.4-0.8,4.6-2.1c1.1-1.4,1.6-3.1,1.3-4.9l-11.7-68.1
		C-422-496.5-424.5-498.6-427.4-498.6"/>
	<path class="st13" d="M-468.1-384c-1.7,0-3-1.3-3-3v-31.7c0-1.7,1.3-3,3-3h46.9c1.7,0,3,1.3,3,3v31.7c0,1.7-1.3,3-3,3H-468.1z"/>
	<path class="st14" d="M-421.2-387h-46.9v-31.7h46.9V-387z M-421.2-424.7h-46.9c-3.3,0-6,2.7-6,6v31.7c0,3.3,2.7,6,6,6h46.9
		c3.3,0,6-2.7,6-6v-31.7C-415.2-422-417.8-424.7-421.2-424.7"/>
	<path class="st15" d="M-381.2-421.5c-0.9,0-1.8-0.4-2.4-1.1c-0.6-0.7-0.8-1.7-0.6-2.6l16.4-68.1c0.3-1.3,1.5-2.3,2.9-2.3h29.3
		c1.5,0,2.7,1.1,3,2.5l11.7,68.1c0.2,0.9-0.1,1.8-0.7,2.4c-0.6,0.7-1.4,1.1-2.3,1.1H-381.2z"/>
	<path class="st16" d="M-335.4-492.6l11.7,68.1h-57.5l16.4-68.1H-335.4 M-335.4-498.6h-29.3c-2.8,0-5.2,1.9-5.8,4.6l-16.4,68.1
		c-0.4,1.8,0,3.7,1.1,5.1c1.1,1.4,2.9,2.3,4.7,2.3h57.5c1.8,0,3.4-0.8,4.6-2.1c1.1-1.4,1.6-3.1,1.3-4.9l-11.7-68.1
		C-330-496.5-332.5-498.6-335.4-498.6"/>
	<path class="st15" d="M-376.1-384c-1.7,0-3-1.3-3-3v-31.7c0-1.7,1.3-3,3-3h46.9c1.7,0,3,1.3,3,3v31.7c0,1.7-1.3,3-3,3H-376.1z"/>
	<path class="st16" d="M-329.2-387h-46.9v-31.7h46.9V-387z M-329.2-424.7h-46.9c-3.3,0-6,2.7-6,6v31.7c0,3.3,2.7,6,6,6h46.9
		c3.3,0,6-2.7,6-6v-31.7C-323.2-422-325.8-424.7-329.2-424.7"/>
</g>
<g>
	<defs>
		<polygon id="SVGID_7_" points="2173.4,1275.7 231.2,1304.4 234.4,195.7 2169.4,193.7 		"/>
	</defs>
	<clipPath id="SVGID_8_">
		<use xlink:href="#SVGID_7_"  style="overflow:visible;"/>
	</clipPath>
	<g class="st17">
		<g>
			<defs>
				<rect id="SVGID_9_" x="124.3" y="-4.8" width="881.3" height="738.4"/>
			</defs>
			<clipPath id="SVGID_10_">
				<use xlink:href="#SVGID_9_"  style="overflow:visible;"/>
			</clipPath>
			<path class="st18" d="M1002.5,135.6C716.3,240.9,884.2,378.2,774,474.7c-38.7,33.9-131.8,56.7-258.1,47.6
				c-48.6-3.5-120.9,7.5-134.9,102.5c-21.2,143.9-125.3,99.3-125.3,99.3c-25.8,3.8-4.1-63.3-26.6-76.6
				C123.8,585.4,106.9,424,212.7,424.2c125.6,0.3,171.6-26.4,158.9-107.8c-11.7-75.6,56.8-129.8,112.5-126.9
				c208.1,10.9,257.2-59.2,324.8-185.3L1002.5,135.6z"/>
			<path class="st19" d="M1002.5,135.6C716.3,240.9,884.2,378.2,774,474.7c-38.7,33.9-131.8,56.7-258.1,47.6
				c-48.6-3.5-120.9,7.5-134.9,102.5c-21.2,143.9-125.3,99.3-125.3,99.3c-25.8,3.8-4.1-63.3-26.6-76.6
				C123.8,585.4,106.9,424,212.7,424.2c125.6,0.3,171.6-26.4,158.9-107.8c-11.7-75.6,56.8-129.8,112.5-126.9
				c208.1,10.9,257.2-59.2,324.8-185.3L1002.5,135.6z"/>
			<path class="st20" d="M988.5,129.6C702.3,234.9,870.2,372.2,760,468.7c-38.7,33.9-131.8,56.7-258.1,47.6
				c-48.6-3.5-120.9,7.5-134.9,102.5c-21.2,143.9-125.3,99.3-125.3,99.3c-25.8,3.8-4.1-63.3-26.6-76.6
				C109.8,579.4,92.9,418,198.7,418.2c125.6,0.3,171.6-26.4,158.9-107.8c-11.7-75.6,56.8-129.8,112.5-126.9
				c208.1,10.9,257.2-59.2,324.8-185.3L988.5,129.6z"/>
			<path class="st21" d="M988.5,129.6C702.3,234.9,870.2,372.2,760,468.7c-38.7,33.9-131.8,56.7-258.1,47.6
				c-48.6-3.5-120.9,7.5-134.9,102.5c-21.2,143.9-125.3,99.3-125.3,99.3c-25.8,3.8-4.1-63.3-26.6-76.6
				C109.8,579.4,92.9,418,198.7,418.2c125.6,0.3,171.6-26.4,158.9-107.8c-11.7-75.6,56.8-129.8,112.5-126.9
				c208.1,10.9,257.2-59.2,324.8-185.3L988.5,129.6z"/>
		</g>
	</g>
</g>
<g class="st22">
	<g>
		<defs>
			<rect id="SVGID_11_" x="-1655.3" y="-412.1" width="42.8" height="42.8"/>
		</defs>
		<clipPath id="SVGID_12_">
			<use xlink:href="#SVGID_11_"  style="overflow:visible;"/>
		</clipPath>
		<path class="st23" d="M-1616-390.7c0,9.9-8,17.9-17.9,17.9s-17.9-8-17.9-17.9c0-9.9,8-17.9,17.9-17.9S-1616-400.6-1616-390.7"/>
		<circle class="st24" cx="-1633.9" cy="-390.7" r="17.9"/>
	</g>
</g>
<g class="st22">
	<g>
		<defs>
			<rect id="SVGID_13_" x="-1596.4" y="-412.1" width="42.8" height="42.8"/>
		</defs>
		<clipPath id="SVGID_14_">
			<use xlink:href="#SVGID_13_"  style="overflow:visible;"/>
		</clipPath>
		<path class="st25" d="M-1557.1-390.7c0,9.9-8,17.9-17.9,17.9c-9.9,0-17.9-8-17.9-17.9c0-9.9,8-17.9,17.9-17.9
			C-1565.1-408.6-1557.1-400.6-1557.1-390.7"/>
		<circle class="st26" cx="-1575" cy="-390.7" r="17.9"/>
	</g>
</g>
<g class="st22">
	<g>
		<defs>
			<rect id="SVGID_15_" x="-1539.1" y="-412.1" width="42.8" height="42.8"/>
		</defs>
		<clipPath id="SVGID_16_">
			<use xlink:href="#SVGID_15_"  style="overflow:visible;"/>
		</clipPath>
		<path class="st27" d="M-1499.8-390.7c0,9.9-8,17.9-17.9,17.9c-9.9,0-17.9-8-17.9-17.9c0-9.9,8-17.9,17.9-17.9
			C-1507.8-408.6-1499.8-400.6-1499.8-390.7"/>
		<circle class="st28" cx="-1517.7" cy="-390.7" r="17.9"/>
	</g>
</g>
<rect x="-1800.8" y="-951.6" class="st29" width="1920" height="1080"/>
</svg>
