<?xml version="1.0" encoding="utf-8"?>
<!-- Generator: Adobe Illustrator 20.0.0, SVG Export Plug-In . SVG Version: 6.00 Build 0)  -->
<svg version="1.1" id="Layer_1" xmlns="http://www.w3.org/2000/svg" xmlns:xlink="http://www.w3.org/1999/xlink" x="0px" y="0px"
	 viewBox="0 0 331.5 117.6" style="enable-background:new 0 0 331.5 117.6;" xml:space="preserve">
<style type="text/css">
	.st0{fill:#EE426D;}
	.st1{fill:#D32859;}
	.st2{fill:#C7D92C;}
	.st3{fill:#BDD131;}
	.st4{fill:#F27264;}
	.st5{fill:#F06459;}
	.st6{fill:#4076BA;}
	.st7{fill:#175BA3;}
</style>
<g>
	<path class="st0" d="M94,77.1c-0.9,0-1.8-0.4-2.4-1.1c-0.6-0.7-0.8-1.7-0.6-2.6l16.4-68.1c0.3-1.3,1.5-2.3,2.9-2.3h29.3
		c1.5,0,2.7,1.1,3,2.5l11.7,68.1c0.2,0.9-0.1,1.8-0.7,2.4c-0.6,0.7-1.4,1.1-2.3,1.1H94z"/>
	<path class="st1" d="M139.8,6l11.7,68.1H94L110.4,6H139.8 M139.8,0h-29.3c-2.8,0-5.2,1.9-5.8,4.6L88.2,72.6c-0.4,1.8,0,3.7,1.1,5.1
		c1.1,1.4,2.9,2.3,4.7,2.3h57.5c1.8,0,3.4-0.8,4.6-2.1c1.1-1.4,1.6-3.1,1.3-4.9L145.7,5C145.2,2.1,142.7,0,139.8,0"/>
	<path class="st0" d="M99.1,114.6c-1.7,0-3-1.3-3-3V79.9c0-1.7,1.3-3,3-3H146c1.7,0,3,1.3,3,3v31.7c0,1.7-1.3,3-3,3H99.1z"/>
	<path class="st1" d="M146,111.6H99.1V79.9H146V111.6z M146,73.9H99.1c-3.3,0-6,2.7-6,6v31.7c0,3.3,2.7,6,6,6H146c3.3,0,6-2.7,6-6
		V79.9C152,76.6,149.3,73.9,146,73.9"/>
	<path class="st2" d="M6,77.1c-0.9,0-1.8-0.4-2.4-1.1c-0.6-0.7-0.8-1.7-0.6-2.6L19.5,5.3C19.8,3.9,21,3,22.4,3h29.3
		c1.5,0,2.7,1.1,3,2.5l11.7,68.1c0.2,0.9-0.1,1.8-0.7,2.4c-0.6,0.7-1.4,1.1-2.3,1.1H6z"/>
	<path class="st3" d="M51.8,6l11.7,68.1H6L22.4,6H51.8 M51.8,0H22.4c-2.8,0-5.2,1.9-5.8,4.6L0.2,72.6c-0.4,1.8,0,3.7,1.1,5.1
		c1.1,1.4,2.9,2.3,4.7,2.3h57.5c1.8,0,3.4-0.8,4.6-2.1c1.1-1.4,1.6-3.1,1.3-4.9L57.7,5C57.2,2.1,54.7,0,51.8,0"/>
	<path class="st2" d="M11.1,114.6c-1.7,0-3-1.3-3-3V79.9c0-1.7,1.3-3,3-3H58c1.7,0,3,1.3,3,3v31.7c0,1.7-1.3,3-3,3H11.1z"/>
	<path class="st3" d="M58,111.6H11.1V79.9H58V111.6z M58,73.9H11.1c-3.3,0-6,2.7-6,6v31.7c0,3.3,2.7,6,6,6H58c3.3,0,6-2.7,6-6V79.9
		C64,76.6,61.3,73.9,58,73.9"/>
	<path class="st4" d="M176,77.1c-0.9,0-1.8-0.4-2.4-1.1c-0.6-0.7-0.8-1.7-0.6-2.6l16.4-68.1c0.3-1.3,1.5-2.3,2.9-2.3h29.3
		c1.5,0,2.7,1.1,3,2.5l11.7,68.1c0.2,0.9-0.1,1.8-0.7,2.4c-0.6,0.7-1.4,1.1-2.3,1.1H176z"/>
	<path class="st5" d="M221.8,6l11.7,68.1H176L192.4,6H221.8 M221.8,0h-29.3c-2.8,0-5.2,1.9-5.8,4.6l-16.4,68.1
		c-0.4,1.8,0,3.7,1.1,5.1c1.1,1.4,2.9,2.3,4.7,2.3h57.5c1.8,0,3.4-0.8,4.6-2.1c1.1-1.4,1.6-3.1,1.3-4.9L227.7,5
		C227.2,2.1,224.7,0,221.8,0"/>
	<path class="st4" d="M181.1,114.6c-1.7,0-3-1.3-3-3V79.9c0-1.7,1.3-3,3-3H228c1.7,0,3,1.3,3,3v31.7c0,1.7-1.3,3-3,3H181.1z"/>
	<path class="st5" d="M228,111.6h-46.9V79.9H228V111.6z M228,73.9h-46.9c-3.3,0-6,2.7-6,6v31.7c0,3.3,2.7,6,6,6H228c3.3,0,6-2.7,6-6
		V79.9C234,76.6,231.3,73.9,228,73.9"/>
	<path class="st6" d="M268,77.1c-0.9,0-1.8-0.4-2.4-1.1c-0.6-0.7-0.8-1.7-0.6-2.6l16.4-68.1c0.3-1.3,1.5-2.3,2.9-2.3h29.3
		c1.5,0,2.7,1.1,3,2.5l11.7,68.1c0.2,0.9-0.1,1.8-0.7,2.4c-0.6,0.7-1.4,1.1-2.3,1.1H268z"/>
	<path class="st7" d="M313.8,6l11.7,68.1H268L284.4,6H313.8 M313.8,0h-29.3c-2.8,0-5.2,1.9-5.8,4.6l-16.4,68.1
		c-0.4,1.8,0,3.7,1.1,5.1c1.1,1.4,2.9,2.3,4.7,2.3h57.5c1.8,0,3.4-0.8,4.6-2.1c1.1-1.4,1.6-3.1,1.3-4.9L319.7,5
		C319.2,2.1,316.7,0,313.8,0"/>
	<path class="st6" d="M273.1,114.6c-1.7,0-3-1.3-3-3V79.9c0-1.7,1.3-3,3-3H320c1.7,0,3,1.3,3,3v31.7c0,1.7-1.3,3-3,3H273.1z"/>
	<path class="st7" d="M320,111.6h-46.9V79.9H320V111.6z M320,73.9h-46.9c-3.3,0-6,2.7-6,6v31.7c0,3.3,2.7,6,6,6H320c3.3,0,6-2.7,6-6
		V79.9C326,76.6,323.3,73.9,320,73.9"/>
</g>
</svg>
