<?xml version="1.0" encoding="utf-8"?>
<!-- Generator: Adobe Illustrator 20.0.0, SVG Export Plug-In . SVG Version: 6.00 Build 0)  -->
<svg version="1.1" id="Layer_1" xmlns="http://www.w3.org/2000/svg" xmlns:xlink="http://www.w3.org/1999/xlink" x="0px" y="0px"
	 viewBox="0 0 956.9 390.7" style="enable-background:new 0 0 956.9 390.7;" xml:space="preserve">
<style type="text/css">
	.st0{fill:#459AD4;}
	.st1{fill:#38499E;}
</style>
<g>
	
		<image style="overflow:visible;opacity:0.56;" width="958" height="392" xlink:href="691D27A2.png"  transform="matrix(1 0 0 1 -0.251 -0.3628)">
	</image>
	<g>
		<g>
			<path class="st0" d="M120.3,122.5c-13.5,6.9-21.1,25.1-13.2,25.1c9.9,0,40.6-51.5,11.9-51.5c-38.9,0-98,186.1-66.6,186.1
				c34.3,0,64.3-61.7,79.8-102.3h12.5C122.9,237.6,94.2,299,43.4,299.3c-70.3,0.3-16.5-214.4,67.3-214.4c50.5,0,30.7,69.9-4,69.9
				c-26.4,0-18.5-36,6.9-36.3L120.3,122.5z"/>
			<path class="st1" d="M43.3,302.3c-11.6,0-20.9-5.5-27-16C-0.9,256.5,9.6,188,39.2,136.7c20.4-35.3,45.8-54.8,71.5-54.8
				c11.1,0,19.7,3.1,25.6,9.3c5.2,5.4,7.9,12.9,7.9,21.6c0,10.3-3.9,21.5-10.5,30.1c-7.3,9.6-16.9,14.8-27,14.8
				c-14.2,0-19.3-9.2-19.3-17.1c0-6,2.5-12.1,7-16.9c5-5.3,11.8-8.2,19.3-8.3l0.9,0l9.9,6c2.1-4.9,3.6-10,3.5-14.3
				c-0.1-5.6-2.9-8.1-9-8.1c-12.3,0-30.2,24.5-46.7,64c-15.2,36.4-25.8,77.6-25.8,100.2c0,5.6,0.6,9.8,1.8,12.6
				c1.3,2.9,2.8,3.3,4,3.3c14.1,0,29.1-11.6,44.5-34.6c14.3-21.3,25.6-47.5,32.6-65.7l0.7-1.9H149l-1.5,4.1
				c-23.7,62.8-52.7,121-104.1,121.4H43.3L43.3,302.3z M110.7,87.9c-23.5,0-47.1,18.4-66.3,51.8c-28.2,48.8-38.9,116-22.9,143.7
				c5,8.6,12.3,13,21.8,13h0h0.1c46.7-0.3,74.3-54.2,96.9-113.4h-6.1c-7.1,18.4-18.3,44-32.4,65c-16.6,24.7-33.2,37.2-49.5,37.2
				c-2.9,0-7-1.2-9.5-6.9c-1.6-3.5-2.4-8.6-2.4-15c0-23.3,10.8-65.4,26.3-102.5C91.3,101.9,110,93.1,119,93.1c5,0,8.8,1.4,11.4,4.2
				c2.3,2.5,3.5,5.9,3.5,10.2c0,15.3-17.3,43.1-26.8,43.1c-3.1,0-5.3-1.7-6-4.6c-1.4-5.9,4.3-16.8,13.4-23.4l-1.6-1
				c-8.5,0.5-19.6,7.2-19.5,19.1c0,7.1,4.9,11.2,13.4,11.2c17.7,0,31.5-20.9,31.5-38.9c0-5-1.1-12.1-6.2-17.5
				C127.3,90.4,120.1,87.9,110.7,87.9 M106.9,144.6c0,0,0.1,0,0.2,0c2.8-0.1,10.7-9.5,16-20.1l-1.4,0.7c-7.2,3.7-12.7,11-14.3,16.3
				C106.8,143.2,106.9,144.2,106.9,144.6"/>
			<path class="st0" d="M284.6,167c-12.2,33.6-50.1,145.5-84.4,145.5c-32.7,0-7.3-80.2-7.3-80.2c-8.2,17.2-24.4,29.7-48.8,29.7
				c-47.8,0-7.9-172.5,67.6-172.5c18.8,0,25.1,12.9,25.7,14.2c0-0.7,4.3-9.2,8.6-15.5c4.6-6.9,21.8,5.9,22.8,10.2
				c1.3,8.2-51.8,171.5-44.5,171.5c10.6,0,46.5-96.7,48.8-102.9H284.6z M211.7,175c3.6-9.6,15.2-44.2,15.2-44.2s3.3-16.2-7.9-16.2
				c-33.6,0-77.5,122.1-54.4,122.1C179.3,236.7,203.8,195.1,211.7,175"/>
			<path class="st1" d="M200.1,315.5c-6,0-10.8-2.3-14.1-6.9c-9.4-12.8-4.9-41.5-0.6-60.1c-10.3,10.8-24.5,16.6-41.4,16.6
				c-8,0-14.3-4.2-18.4-12c-3.6-6.9-5.4-16.3-5.4-28c0-26.9,9.7-61.5,24.7-88.2c18.2-32.4,41.9-50.2,66.7-50.2
				c13.6,0,21.3,6.2,25.3,11c2-3.9,4.8-8.5,6.6-11.1c1-1.5,3-3.3,6.7-3.3c8.2,0,20.4,9.7,21.5,14.6l0,0.2
				c0.6,3.7-4.9,23.1-18.6,69.6c-9.7,33.1-23.7,81-26.3,96.5c7.5-10.2,24.1-45.8,43.3-98.1l0.7-2h17.9l-1.5,4
				c-0.7,2-1.5,4.3-2.4,6.8c-7.3,20.5-19.6,54.7-34.4,84.6C231.9,297.2,215.4,315.5,200.1,315.5 M190.2,231.1l5.6,2.2
				c-4.8,15.2-15.1,57.8-4.9,71.8c2.2,3,5.2,4.4,9.3,4.4c8.7,0,23.5-9.2,45.1-52.8c14.6-29.5,26.8-63.6,34.1-83.9
				c0.3-1,0.7-1.9,1-2.8h-5.2c-2.5,6.7-11.1,29.5-20.6,52C232.8,273,227.2,273,224.2,273c-1.1,0-2.1-0.5-2.8-1.4
				c-1.3-1.8-2.7-3.6,6.6-38.1c5.3-19.6,12.4-43.9,19.3-67.5c8.6-29.2,18.2-62.2,18.4-66.9c-1.1-2.4-10.3-9.8-15.6-9.8
				c-1.2,0-1.5,0.5-1.7,0.7c-3.8,5.6-7.4,12.6-8.1,14.3v12.3l-5.7-11.4c-1.5-3-7.5-12.5-23-12.5c-30.4,0-51.5,29.6-61.4,47.2
				c-14.6,25.9-24,59.3-24,85.3c0,10.6,1.6,19.4,4.7,25.3c3.1,5.9,7.4,8.8,13.1,8.8C165.1,259.1,181.5,249.1,190.2,231.1
				 M164.5,239.7c-3.3,0-6-1.7-7.6-4.9c-1.3-2.5-1.9-5.8-1.9-10.1c0-15.7,8.5-43.7,20.6-67.9c19.6-39.3,35.5-45.1,43.3-45.1
				c3.5,0,6.4,1.3,8.3,3.7c4.5,5.5,2.7,15,2.5,16.1l-0.1,0.3c-0.5,1.4-11.6,34.8-15.2,44.3C207.3,194.2,182,239.7,164.5,239.7
				 M218.9,117.6c-10.7,0-24.8,15.6-37.9,41.8c-11.7,23.5-20,50.3-20,65.2c0,4.2,0.7,6.3,1.2,7.4c0.7,1.3,1.4,1.6,2.2,1.6
				c11.5,0,35.1-36.2,44.4-59.8c3.4-9,14.1-41.1,15.1-43.9c0.4-2.1,0.9-8.2-1.3-10.9C222.1,118.4,221.1,117.6,218.9,117.6"/>
			<path class="st0" d="M346.9,255.5c17.5,45.2-4.6,110.2-49.5,110.2c-35.3,0,13.5-116.4,19.1-129.6c-3,4.9-15.8,24.4-38.3,24.4
				c-55.7,0-4.6-173.5,59.7-173.5c20.1,0,26.1,17.5,27.1,20.1c0.7-2,7.3-20.5,11.9-19.8c4.3,0.3,23.4,7.3,22.1,11.5
				c-15.8,44.9-36.3,99.3-52.8,145.1c22.8-10.2,36.6-34,52.8-76.9l11.2,0.3C393.4,220.5,370.3,247.2,346.9,255.5 M335,185.2
				c4-10.9,20.5-53.4,20.5-53.4c2-7.3,4.9-22.8-6.9-24.4c-32.7-4.6-76.2,125-50.8,125C315.9,232.4,332.7,192.1,335,185.2 M339,264.7
				c-15.2,42.6-25.1,73.6-21.4,73.6C333.1,338.9,347.2,304.9,339,264.7"/>
			<path class="st1" d="M297.4,368.6c-5.1,0-9.2-2.1-11.9-6.2c-12.1-18.3,7.9-76.6,21.1-110.1c-6.9,5.9-16.3,11.1-28.3,11.1
				c-9,0-16.2-4.2-20.8-12.1c-4-6.9-6.1-16.5-6.1-28.5c0-26,9.9-60.8,25.3-88.6c18-32.5,39.7-50.4,61.3-50.4
				c11.7,0,21,5.4,26.7,15.3c2.9-6.9,7.2-15,11.9-15c0.2,0,0.4,0,0.6,0c4.2,0.4,20.3,5.9,23.9,11.1c1.2,1.8,1.1,3.3,0.8,4.3l0,0.1
				c-9.1,25.9-20,55.4-30.4,83.8c-6.6,18.1-13.5,36.7-19.8,54.1c14.3-8.8,27.4-26.3,44.5-71.7l0.8-2l17.3,0.5l-1.2,3.8
				c-18.8,59.3-43.8,81.2-62.4,88.9c9.7,28.1,5.5,63.4-10.7,87C329.2,360,314.1,368.6,297.4,368.6 M314,234.5l5.3,2.7
				c-3,7.1-13.5,32.2-21.5,58.2c-5.9,19.1-14.7,52.7-7.3,63.8c1.6,2.4,3.8,3.5,6.9,3.5c18.7,0,30.8-11.9,37.6-21.8
				c15.7-22.9,19.4-57.5,9-84.2l-1.1-2.9l2.9-1c17.2-6,41.4-25.3,60.3-82.4l-5.1-0.2c-8.6,22.5-15.8,37.7-23.5,49.3
				c-8.8,13.3-18.4,22-30.1,27.3l-6.4,2.9l2.4-6.6c7-19.4,14.8-40.7,22.4-61.4c10.4-28.2,21.1-57.3,30.1-83.1
				c-2.2-2.7-15.1-7.8-19.1-8.2c-2.1,1.3-6.6,10.6-9,17.7l-2.7,8l-3.1-8.2c-3-8.2-9.7-17.9-24.2-17.9c-19,0-39.4,17.2-56,47.3
				c-14.9,27-24.5,60.6-24.5,85.7c0,10.8,1.8,19.6,5.2,25.5c3.6,6.1,8.7,9.1,15.6,9.1C298.6,257.4,310.8,239.8,314,234.5 M318,341.3
				L318,341.3c-0.2,0-0.4,0-0.5,0c-1.1,0-2.2-0.6-2.8-1.5c-1.6-2.2-3.7-5.3,21.5-76l3.6-10.1l2.2,10.5c6.5,31.5-0.4,57.6-10.1,69.4
				C327.7,338.6,322.9,341.3,318,341.3 M337.9,276.9c-13.8,39.4-17.4,53.4-18,58.1c3.1-0.8,5.6-3.2,7.4-5.3
				C334.6,320.7,340.3,301.1,337.9,276.9 M297.8,235.4c-3.7,0-6.7-2-8.5-5.7c-1.4-2.9-2.1-6.9-2.1-12c0-16.8,7.7-44.5,19.1-68.9
				c18.1-38.8,33.2-44.6,40.6-44.6c0.7,0,1.4,0.1,2.1,0.2c3.9,0.5,6.8,2.3,8.8,5.3c3.2,4.9,3.4,12.6,0.6,22.9l-0.1,0.3
				c-0.2,0.4-16.5,42.6-20.4,53.4c-1.3,4-6.3,16-13,26.7C315.7,227.8,306.6,235.4,297.8,235.4 M346.8,110.2
				c-22.5,0-53.7,74.6-53.7,107.5c0,5.2,0.8,8,1.5,9.4c1,2,2.1,2.3,3.1,2.3c6.5,0,14.1-6.8,22-19.6c7-11.3,11.6-23,12.4-25.6
				c3.8-10.5,19.4-50.7,20.4-53.4c2.2-8.3,2.3-14.6,0.1-17.9c-1-1.5-2.5-2.3-4.6-2.6C347.7,110.3,347.3,110.2,346.8,110.2"/>
			<path class="st0" d="M390.5,191.5c15.8-43.9,35-101.9,61-101.9c51.1,0-15.2,146.8-0.7,146.8c19.1,0,63-114.8,93.7-152.7
				c4.6-6.3,26.1-3,24.1,10.9c-3.6,24.1-61,173.5-41.2,173.5c10.6,0,29-51.5,47.2-100h11.5c-24.1,69.6-46.5,145.1-79.8,145.1
				c-48.8,0,1.3-135.3,3.6-142.2c-26.4,53.1-48.5,90.1-73.6,90.4c-61.4,0.3,11.5-143.5,1.3-145.5c-4.9-1-23.3,38.4-37.2,75
				L390.5,191.5z"/>
			<path class="st1" d="M506.2,316.2c-7.6,0-13.6-3-17.7-8.8c-13.2-18.7-4.1-64.3,7.2-102.7c-21,38-39,59.5-59.4,59.7l-0.2,0h0
				c-9.5,0-16.7-3.3-21.4-9.7c-15.5-21.3,1.6-73.5,12.9-108c2.9-8.9,6.1-18.6,7.4-24.4c-6.5,9.7-19.5,37.1-31.8,69.6l-0.7,1.8
				l-16.5,0.9l1.5-4.3c1-2.7,1.9-5.4,2.9-8.1c16.1-44.9,34.3-95.8,60.9-95.8c7.1,0,12.6,2.5,16.5,7.5c14,18.2,1.6,64.7-8.4,102.2
				c-3.8,14.5-8.6,32.2-7.9,37c2.3-0.7,7.6-4.6,17.9-21.6c8.4-13.9,17.9-32.4,27.9-52c15.3-30,31.2-61,44.7-77.8
				c2-2.7,5.9-4.2,10.7-4.2c4.9,0,11.5,1.7,15.6,6.4c2.6,3,3.7,6.8,3.1,11c-1.2,7.8-7.5,27.2-15.4,51.8c-8.1,25-17.3,53.4-23.4,76.7
				c-9.7,37.2-6,41.2-5.5,41.5c0,0,0,0,0.1,0c0.8,0,5.2-1.3,16.4-26.4c7.5-16.9,16.1-39.9,24.4-62.2l4.2-11.4h17.8l-1.4,4
				c-2.2,6.3-4.4,12.7-6.5,19.1C559.9,254,538.7,316.2,506.2,316.2 M507.2,169.7l5.5,2.3c-0.1,0.3-0.4,1-0.7,2
				c-23,65.4-30,114-18.6,130c3,4.2,7.2,6.2,12.8,6.2c28.1,0,49.6-63,70.4-124c1.7-5.1,3.4-10.1,5.2-15.1h-5.3l-2.8,7.5
				c-24,64.3-35.6,92.5-46.5,92.5c-2,0-3.8-0.9-5-2.6c-7-9.6,3.5-47.4,28.1-123.5c7.6-23.4,14.1-43.5,15.2-50.8
				c0.3-2.4-0.2-4.4-1.7-6.2c-2.3-2.6-6.6-4.3-11-4.3c-3.2,0-5.3,0.9-5.9,1.8l-0.1,0.1c-13.1,16.2-28.8,47-44,76.8
				c-24.4,47.8-39.9,77.1-52,77.1c-1.5,0-2.8-0.6-3.7-1.8c-3.4-4.4-0.4-16.3,6.7-42.8c8.6-32.3,21.6-81.2,9.4-97
				c-2.7-3.5-6.5-5.2-11.7-5.2c-22.4,0-40.6,50.9-55.3,91.8c-0.5,1.3-0.9,2.6-1.4,3.8l3.5-0.2c6.8-17.8,14.4-35.7,21.1-49.5
				c3.6-7.5,6.8-13.4,9.4-17.6c3.6-5.8,6-8,8.6-8c0.3,0,0.5,0,0.8,0.1c1.1,0.2,2.1,0.9,2.7,1.9c2,3.5-0.2,11.1-7.6,33.7
				c-10.3,31.3-27.4,83.8-13.8,102.6c3.5,4.9,8.9,7.2,16.5,7.2h0l0.2,0C458.8,258.1,480.1,224.2,507.2,169.7"/>
			<path class="st0" d="M748,168c-15.2,43.2-60.7,170.9-118.4,170.9c-25.4,0-22.8-41.2-8.9-94c-12.9,16.5-28.7,28.7-47.8,28.7
				c-56.1,0,32.7-174.8,29.7-189c0,0,30.4,4,30.4,26.7c0,22.8-50.5,134.9-38.6,134.9c15.8,0,31.7-29.7,43.9-58.7
				c12.2-35,26.1-70.9,38.6-100.6c-45.2,0-63.7-14.8-63.7-28.7c0-12.5,10.9-31.7,10.9-31.7s31.3-1.3,31.3,19.8
				c0,4-3.3,15.8-11.9,15.8c7.3,4,27.1,3.6,40.6,2.6c15.2-36.3,18.1-44.5,20.1-52.5c0,0,26.1,12.9,26.1,26.4c0,4.3-2,15.2-5.6,27.7
				c5.9,0.3,16.5,0.3,18.1,0c8.9-2.3,2.3,17.2,0.7,24.7c-0.3,2-11.9-2.6-27.4-2.3c-27.4,77.9-76.2,218-64.7,218
				c30.7,0,71.9-101.9,85.1-139.2L748,168z"/>
			<path class="st1" d="M629.6,341.9c-6.6,0-11.9-2.5-15.6-7.3c-9.1-11.8-8.9-37.5,0.8-78.3c-13.1,13.5-27.2,20.3-41.9,20.3
				c-7.4,0-13-2.7-16.7-8.1c-16.1-23.4,10.4-92.5,29.8-142.9c7-18.2,14.2-37.1,13.7-40.5l-0.9-4.1l4.2,0.6c11.4,1.5,33,9.6,33,29.7
				c0,10.9-10.1,38.9-20.9,68.5c-8.6,23.9-20.3,56.2-19.6,63.3c13.9-1.6,29.3-31.5,39.9-56.7c11.4-32.8,24.5-66.9,36.9-96.6
				c-45.8-1-62.2-17.5-62.2-31.7c0-13.2,10.8-32.3,11.3-33.2l0.8-1.4l1.7-0.1c0,0,0.4,0,1.2,0c16.1,0,33.3,6,33.3,22.8
				c0,3.7-1.9,10.8-6.3,15.2c3.5,0.5,8.4,0.9,15.3,0.9c5.5,0,10.8-0.3,14.6-0.5c14.2-34,17.3-42.5,19.3-50.3l0.9-3.6l3.3,1.6
				c0.3,0.1,6.8,3.4,13.5,8.4c9.4,7.1,14.2,14.1,14.2,20.7c0,4.6-1.9,14.5-4.7,24.9c2.1,0.1,4.5,0.1,6.8,0.1c4.1,0,6.3-0.1,6.8-0.2
				c2.7-0.7,5.1,0.1,6.5,1.9c3.1,4,1.3,12-1.3,22.1c-0.4,1.7-0.8,3.2-1.1,4.3h0c-0.2,0.7-0.9,2.9-4.1,2.9c-1.4,0-3.2-0.3-5.8-0.8
				c-4.3-0.8-10.8-2-18.2-2c-14.5,41.4-31,88.8-44.1,129.5c-20,62.5-22,78.5-21.4,82.5c24.7-2.7,61.8-82.9,81-137.1l0.7-2.1
				l17.8,0.5l-1.4,3.9c-6.7,19.1-22.4,63.7-43.5,102.1C681.6,318.1,655.4,341.9,629.6,341.9 M627.3,231.6l-3.7,14.1
				c-14.8,56.5-10.8,77.5-4.9,85.3c2.6,3.4,6.2,5,10.9,5c23.5,0,47.9-22.8,72.5-67.7c19.5-35.6,34.4-76.7,41.7-97.3l-5.3-0.2
				c-7.8,21.6-51.7,139.1-87.2,139.1c-1.4,0-2.7-0.7-3.5-1.8c-1.7-2.4-2.5-7.6,3.2-30c3.5-13.8,9.1-33,16.8-56.9
				c13.3-41.7,30.4-90.8,45.4-133.3l0.7-2l2.1,0c8.9-0.2,16.5,1.2,21.5,2.1c1.3,0.2,2.6,0.5,3.5,0.6c0.2-0.8,0.4-1.6,0.7-2.6
				c0.9-3.6,3.7-14.4,2.4-16.7c-0.1,0-0.3,0-0.5,0.1l-0.2,0c-1,0.2-3.7,0.3-8.1,0.3c-4,0-8-0.1-10.8-0.3l-3.8-0.2l1-3.6
				c3.6-12.4,5.5-22.9,5.5-26.9c0-8.3-13.2-17.5-21.1-22c-2.2,7.7-6.4,18.5-19.3,49.2l-0.7,1.7l-1.8,0.1c-4.1,0.3-10.3,0.7-16.9,0.7
				c-12.4,0-20.9-1.2-25.3-3.6l-10.3-5.6h11.8c6.1,0,8.9-9.8,8.9-12.8c0-6.7-3.6-11.3-11.1-14.1c-5.9-2.2-12.3-2.6-15.4-2.7
				c-2.5,4.6-9.7,19-9.7,28.7c0,12.8,18.8,25.7,60.7,25.7h4.5l-1.8,4.2c-12.9,30.6-26.6,66.2-38.5,100.4l-0.1,0.2
				c-17.4,41.3-32.2,60.6-46.6,60.6c-1.5,0-2.8-0.7-3.7-1.9c-3.8-5.5,2.4-24.4,18.8-69.5c10.1-27.9,20.5-56.7,20.5-66.5
				c0-16-17.3-21.5-24.6-23.2c-1.2,6.6-5.8,19-13.8,39.6c-16.7,43.6-44.7,116.6-30.4,137.4c2.5,3.7,6.4,5.5,11.7,5.5
				c15.9,0,31.2-9.3,45.5-27.5L627.3,231.6z"/>
			<path class="st0" d="M840.1,176c-4,11.5-8.9,23.1-14.2,34.3c14.2-0.3,19.1-9.9,29-36.3h11.5c-11.9,34.6-19.5,46.2-40.9,46.2
				c-1.6,0-3.3,0-4.6-0.3c-14.5,26.1-34.3,46.8-61,46.8c-51.5,0-44.9-54.1-26.4-102.6c16.8-44.9,47.2-83.8,88.1-83.8
				C869.8,80.3,851.6,143.3,840.1,176 M810.4,213.2c-27.4-35.6-5.6-121.1,30-107.2c-1.7-7.9-5.6-11.9-10.9-11.9
				c-14.2,0-38.6,22.4-58.1,75.5c-18.1,49.5-22.1,84.4-4.6,84.4C780.4,254.1,796.2,238.3,810.4,213.2 M841.1,118.2
				c-15.2-4.3-34,71.3-24.1,82.8c4-7.9,7.3-16.5,10.9-25.7C836.8,151.2,840.7,131.8,841.1,118.2"/>
			<path class="st1" d="M759.9,269.7c-16.3,0-28.2-5.2-35.3-15.6c-8.4-12.2-14.2-37.9,6.1-91.1c9.1-24.4,21.5-45,35.7-59.7
				c16.6-17.2,35.2-26,55.2-26c12.7,0,22,4.2,27.8,12.4c10.9,15.5,8.8,44-6.5,87.3c-3.1,9-7,18.8-12,29.6
				c8.3-2.4,12.7-11.1,21.2-33.6l0.7-1.9h17.8l-1.4,4c-12.2,35.6-20.6,48.2-43.7,48.2c-1,0-2,0-3-0.1
				C804.9,254,783.8,269.7,759.9,269.7 M821.6,83.3c-18.3,0-35.4,8.1-50.9,24.2c-13.6,14.1-25.5,34.1-34.4,57.7
				c-15.1,39.6-17.5,70-6.8,85.6c5.9,8.6,16.1,13,30.3,13c22,0,41.7-15.2,58.4-45.3l1.1-2l2.2,0.6c1,0.2,2.4,0.2,3.9,0.2
				c17.9,0,25.2-7.6,36.7-40.2H857c-9.6,25.5-15.4,35.9-31,36.3l-4.8,0.1l2.1-4.4c6-12.7,10.6-23.8,14.1-34
				c14.4-40.8,16.9-68.3,7.3-81.9C839.8,86.5,832.3,83.3,821.6,83.3 M766.8,257.1c-4.4,0-8-1.8-10.4-5.3
				c-5.5-7.8-7.8-28.6,12.2-83.2c19.6-53.5,44.7-77.5,60.9-77.5c6.9,0,11.9,5.2,13.8,14.3l1.1,5.4l-5.2-2c-2.2-0.9-4.4-1.3-6.6-1.3
				c-11.3,0-19,12-22.5,19.2c-11.8,24-13.6,63.7,2.5,84.7l1.2,1.6l-1,1.7C797.5,242.1,781.1,257.1,766.8,257.1 M829.5,97.1
				c-6.8,0-15.8,6.1-24.8,16.8c-11.2,13.3-21.8,33-30.5,56.8c-14.5,39.5-19.3,68.5-13,77.7c1.3,1.9,3.1,2.8,5.5,2.8
				c11.6,0,26.1-13.7,40-37.7c-7.5-10.6-11.6-25.8-11.8-43c-0.1-16.5,3.5-33.4,9.8-46.4c7.8-15.9,19-24,31-22.3
				C834.6,99.2,832.6,97.1,829.5,97.1 M817.6,206.4l-2.9-3.4c-4.9-5.7-3.8-20.2-2-31.5c2.2-14.1,6.6-29.4,11.5-40
				c5.1-11,10.2-16.4,15.5-16.4c0.7,0,1.4,0.1,2.1,0.3l2.2,0.6l-0.1,2.3c-0.3,10.7-2.8,29.4-13.4,58l-0.8,2
				c-3.3,8.5-6.5,16.5-10.2,24L817.6,206.4z M837.9,121.8c-2.1,1.5-5,5.2-8.2,12.2c-8.2,17.8-13.7,46.1-12.3,59.1
				c2.4-5.4,4.6-11,6.9-16.9l0.8-2C832.4,154.3,836.9,135.9,837.9,121.8"/>
			<path class="st0" d="M899.1,130.1c0,21.1,32.7,64.3,32.7,119.4c0,34.6-24.4,64.3-63.3,64.3c-41.9,0-16.2-61.7,23.8-82.8
				c-4.6-24.1-15.5-45.2-22.8-65.3c-4.3,12.5-9.6,26.7-9.9,27h-11.9c5.9-13.5,14.5-38.9,16.5-44.5c-1.3-5.9-2-11.9-2-17.8
				c-1-41.9,58.7-59.4,67.3-18.1C922.2,105,899.1,107.3,899.1,130.1 M894.2,249.5c0-2.6-0.3-5.3-0.7-7.9
				c-27.4,18.8-44.9,55.4-25.1,55.4C882.3,297,895.2,277.9,894.2,249.5"/>
			<path class="st1" d="M868.4,316.8c-17.2,0-22.2-9.8-23.7-15.6c-5.2-21.1,16.4-56,44.1-71.7c-3.3-15.7-9.2-30.1-14.9-44.1
				c-1.5-3.7-3-7.3-4.4-10.9c-2.8,8-7,19.5-7.9,20.4l-0.9,0.9h-17.7l1.8-4.2c5-11.4,12.1-31.9,15.1-40.7c0.4-1.1,0.7-2.1,1-2.9
				c-1.2-5.8-1.9-11.8-1.9-17.6c-0.3-11.7,4.1-22.8,12.3-31.2c8.2-8.4,19.7-13.4,30.6-13.4c15.6,0,27,9.7,30.4,25.9l2,9.8l-7.1-7.1
				c-1.7-1.7-5-2.8-8.5-2.8c-7.7,0-16.8,4.8-16.8,18.5c0,7.5,4.8,18.9,10.4,32.2c9.4,22.2,22.2,52.6,22.2,87.2
				c0,18.1-6.3,34.8-17.9,47.2C904.8,309.7,887.6,316.8,868.4,316.8 M869.4,156.7l2.9,8c2.2,6,4.6,12,7.2,18.4
				c6.1,14.9,12.4,30.3,15.7,47.4l0.4,2.2l-2,1c-28.3,15-47.3,48.8-43,66.1c1.8,7.4,7.8,11.1,17.9,11.1c30,0,60.3-21.1,60.3-61.3
				c0-33.4-12.1-62-21.7-84.9c-6.1-14.4-10.9-25.8-10.9-34.5c0-9.9,4.1-15.7,7.5-18.8c4.1-3.7,9.5-5.7,15.3-5.7c2,0,3.9,0.2,5.6,0.7
				c-5.5-13-17.2-14.5-22.4-14.5c-9.4,0-19.2,4.3-26.3,11.6c-5,5.1-10.9,13.9-10.6,27c0,5.8,0.6,11.5,1.9,17.2l0.2,0.8l-0.3,0.8
				c-0.3,0.8-0.7,2.1-1.3,3.6c-2.9,8.5-8.7,25.1-13.5,36.9h5.4c1.6-4,5.6-14.9,9-25L869.4,156.7z M868.4,300
				c-7.6,0-10.1-4.5-10.9-7.1c-4-12.8,12.7-38.9,34.3-53.8l4.1-2.8l0.6,4.9l-3,0.4l3-0.4c0.3,2.7,0.7,5.4,0.7,8.2
				c0.6,17.9-4.3,34.1-13.1,43.2C879.4,297.5,874,300,868.4,300 M891.1,247.1c-18.1,14.2-30.4,35.5-27.8,44c0.4,1.4,1.4,2.9,5.2,2.9
				c3.9,0,7.8-1.9,11.3-5.5c7.7-8,12-22.5,11.4-38.9l0-0.1C891.2,248.7,891.1,247.9,891.1,247.1"/>
			<path class="st0" d="M395.2,187l-4.8,8.9l6.7-1.7c0,0,1.5-7.5,2.1-8.1C399.7,185.6,395.2,187,395.2,187"/>
			<path class="st0" d="M848.9,195.9c0,0,6.8-13.5,7-15.8l5.8-1c0,0-8,20.3-9,20.8S848.9,195.9,848.9,195.9"/>
		</g>
	</g>
</g>
</svg>
