<?xml version="1.0" encoding="utf-8"?>
<!-- Generator: Adobe Illustrator 20.0.0, SVG Export Plug-In . SVG Version: 6.00 Build 0)  -->
<svg version="1.1" id="Layer_1" xmlns="http://www.w3.org/2000/svg" xmlns:xlink="http://www.w3.org/1999/xlink" x="0px" y="0px"
	 viewBox="0 0 212.1 97.6" style="enable-background:new 0 0 212.1 97.6;" xml:space="preserve">
<style type="text/css">
	.st0{fill-rule:evenodd;clip-rule:evenodd;fill:#F3ED76;stroke:#231F20;stroke-width:2;stroke-miterlimit:10;}
	.st1{fill-rule:evenodd;clip-rule:evenodd;}
	.st2{fill-rule:evenodd;clip-rule:evenodd;fill:none;}
</style>
<path class="st0" d="M39.3,4.5c0,0-16-4.3-19.7,3.4c-3.7,7.6-7.3,6.2-4,11.5c3.4,5.3,8.5,12.3,4.6,16.9c0,0-5.5,7.3-3.4,13.7
	c0,0-3.7,9.8-10.4,8.5c0,0-7.9-3.7,0,8.2c7.9,11.9,19.2,19.5,25,20.7c5.8,1.2,2.7-5.8,13.2-1.2c10.5,4.6,28.4,11.6,28.7,7
	c0.4-4.6,12.6,2.7,16.4-4.9c3.8-7.6,30.6,7,31.4,2.1c0,0-0.2-5.2,26.8-1.5c0,0,24.5,3,22.7-5.6c-1.8-8.7-0.9-14.4,4.7-14.3
	c5.6,0,0,0.6,0,0.6s13.7,3,18.4-2.8c0,0,8.5-3.1,14.3-16.2c0,0,4.4-22.2-5.3-31.2c0,0-14-24.6-36.2-13.1c0,0-9.3,6.7-20.6,1.1
	c0,0-58.8-9.4-82,0C64,7.2,46.8,7.8,39.3,4.5z"/>
<g>
	<g>
		<path class="st1" d="M155.3,77.2c-0.1,0-0.2,0-0.4-0.1c-0.1,0-0.2,0-0.3,0c-0.4-0.1-0.7-0.2-1-0.5c-0.1-0.1-0.1-0.2-0.2-0.3
			c0-0.2,0-0.4-0.1-0.6c0-0.2-0.1-0.4-0.1-0.6c0-0.1,0-0.2,0-0.3c0-0.3,0-0.6,0-0.9c0-0.1,0-0.3,0-0.4c0-0.1,0-0.2,0.1-0.3
			c0.1-0.1,0.1-0.1,0.1-0.2c0-0.1,0-0.1,0.1-0.2c0-0.1,0.1-0.1,0.1-0.2c0.1-0.1,0.2-0.1,0.3-0.1c0.2,0,0.4,0,0.5,0
			c0.2,0,0.3,0,0.5,0c0.1,0,0.3-0.1,0.4-0.1c0,0,0.1,0,0.1,0c0.2,0.1,0.4,0,0.6-0.1c0.2,0,0.4,0,0.5,0c0.1,0,0.2,0,0.3,0
			c0.1,0,0.2,0,0.3,0c0.2,0.1,0.4,0.1,0.6,0.2c0.2,0.1,0.3,0.3,0.4,0.5c0.1,0.3,0.2,0.5,0.2,0.8c0,0.2,0.1,0.4,0,0.5
			c0,0.1,0,0.2,0,0.2c0,0,0,0,0,0c0,0.5,0,0.9,0,1.4c0,0.3-0.1,0.6-0.2,0.8c0,0.1-0.1,0.1-0.1,0.1c-0.2,0.2-0.3,0.3-0.6,0.3
			c-0.2,0-0.5,0-0.7,0c-0.4,0-0.8,0-1.2,0C155.6,77.2,155.4,77.2,155.3,77.2z M158,74c0-0.4-0.1-0.7-0.2-1c0-0.1-0.1-0.3-0.2-0.3
			c-0.2-0.1-0.4-0.2-0.6-0.2c-0.2,0-0.4,0-0.7,0.1c-0.1,0-0.2,0-0.3,0c-0.3,0.1-0.5,0.1-0.8,0.1c0,0-0.1,0-0.1,0
			c-0.2,0-0.3,0-0.5,0.1c-0.1,0-0.3,0-0.4,0.1c-0.1,0-0.2,0-0.3,0.1c-0.2,0.1-0.3,0.5-0.3,0.7c0,0,0,0.1,0,0.2
			c-0.1,0.1-0.1,0.2-0.1,0.3c0,0.2,0,0.4,0,0.5c0,0.2,0,0.3,0,0.5c0,0.2,0,0.3,0.1,0.5c0,0.2,0,0.4,0.1,0.6c0,0.1,0,0.2,0.1,0.3
			c0,0.1,0.1,0.2,0.2,0.2c0.3,0.2,0.6,0.3,0.9,0.3c0.2,0,0.4,0,0.6,0c0.2,0,0.4,0,0.6-0.1c0.3,0,0.5,0,0.8,0c0.2,0,0.4,0,0.6,0
			c0.2,0,0.4-0.1,0.4-0.3c0-0.1,0.1-0.2,0.1-0.4c0-0.2,0.1-0.3,0-0.5c0-0.3,0-0.6,0-0.9C158.1,74.4,158.1,74.2,158,74z"/>
		<path class="st1" d="M118.4,70.5c0.2-0.1,0.2-0.2,0.2-0.3c0.1-0.2,0.1-0.4,0.1-0.7c0-0.2,0.1-0.4,0.1-0.6c0-0.2,0-0.4,0-0.6
			c0,0-0.1-0.1-0.1-0.1c-0.1,0-0.1-0.1,0-0.1c0.1-0.1,0.3-0.1,0.4-0.1c0,0,0.1,0.1,0.1,0.1c0,0.3,0,0.6,0,0.8c0,0.2,0,0.3,0,0.5
			c0,0.2-0.1,0.4-0.1,0.6c0,0.1,0,0.2-0.1,0.3c0,0.2-0.2,0.4-0.3,0.5c-0.1,0.1-0.3,0.1-0.3,0c-0.1-0.2-0.3-0.3-0.4-0.6
			c-0.1-0.3-0.3-0.5-0.4-0.8c-0.1-0.2-0.2-0.4-0.2-0.7c0-0.1-0.1-0.2-0.1-0.3c0,0,0,0,0,0c0,0,0,0.1,0,0.1c0,0.3-0.1,0.6-0.1,0.9
			c0,0.2-0.1,0.4-0.1,0.5c0,0,0,0.1,0,0.1c0,0.3-0.1,0.5-0.2,0.8c0,0.1,0,0.2-0.1,0.3c-0.1,0.1-0.1,0.1-0.2,0c-0.1-0.1,0-0.1,0-0.2
			c0.2-0.3,0.2-0.6,0.3-1c0-0.1,0.1-0.3,0.1-0.4c0-0.2,0-0.3,0.1-0.5c0-0.2,0.1-0.4,0.1-0.5c0-0.1,0.1-0.3,0.1-0.4
			c0-0.1,0.1-0.2,0.1-0.3c0-0.1,0.2-0.1,0.3,0c0.2,0.2,0.2,0.5,0.3,0.7c0.1,0.3,0.1,0.7,0.3,1c0.1,0.1,0.2,0.3,0.3,0.4
			c0,0.1,0.1,0.1,0.2,0.2C118.4,70.4,118.4,70.5,118.4,70.5z"/>
		<path class="st1" d="M105.9,71.7c0,0-0.1,0.1-0.1,0.1c-0.1,0-0.1-0.1-0.1-0.1c0-0.1,0-0.2,0-0.3c0-0.2,0-0.3-0.1-0.5
			c0-0.1,0-0.1,0-0.2c0-0.1,0-0.2,0-0.4c0-0.1,0-0.2,0-0.3c0-0.3,0-0.5,0-0.8c0-0.2,0.1-0.4,0.1-0.6c0-0.5,0.1-0.9,0.1-1.4
			c0-0.1,0.1-0.2,0.2-0.2c0,0,0.1,0,0.1-0.1c0.1-0.1,0.3-0.2,0.5-0.3c0.1,0,0.2,0,0.3,0c0.2,0.1,0.4,0.1,0.5,0.2
			c0.1,0.1,0.2,0.2,0.2,0.3c0.1,0.2,0.1,0.4,0.1,0.5c0,0.2,0,0.3-0.1,0.5c0,0.2-0.1,0.3-0.2,0.5c-0.2,0.3-0.4,0.5-0.8,0.6
			c-0.2,0.1-0.4,0.1-0.5,0.2c-0.1,0-0.1,0.2-0.1,0.3c0,0.1,0,0.2,0,0.2c0,0.2,0,0.3,0,0.5c0,0.2,0.1,0.4,0.1,0.6c0,0.1,0,0.2,0,0.4
			C106.1,71.6,106,71.7,105.9,71.7C105.9,71.7,105.9,71.7,105.9,71.7z M107.4,67.8c0-0.1-0.1-0.3-0.1-0.4c-0.1-0.3-0.3-0.3-0.6-0.4
			c0,0-0.1,0-0.1,0c-0.1,0.1-0.2,0.2-0.4,0.3c-0.1,0.1-0.1,0.2-0.1,0.4c0,0.2,0,0.4-0.1,0.6c0,0,0,0.1,0,0.1c0,0.1,0,0.2,0,0.2
			c0,0.2,0,0.3-0.1,0.5c0,0,0.1,0.1,0.1,0.1c0.1,0,0.2,0,0.3-0.1c0.1,0,0.2-0.1,0.3-0.1c0.2-0.1,0.3-0.1,0.4-0.3
			c0-0.1,0.1-0.3,0.2-0.4C107.3,68.1,107.4,68,107.4,67.8z"/>
		<path class="st1" d="M134.3,74.7c0-0.1,0.1-0.2,0.1-0.2c0,0,0.1,0,0.2,0.1c0.1,0,0.2,0.1,0.3,0.2c0.2,0.2,0.3,0.4,0.4,0.5
			c0.1,0.1,0.2,0.2,0.3,0.2c0.1,0.1,0.2,0.2,0.3,0.3c0.1,0.1,0.2,0.3,0.3,0.4c0.1,0.2,0.2,0.3,0.3,0.5c0.1,0.2,0.1,0.3-0.1,0.4
			c-0.1,0,0,0.1-0.2,0.1c-0.1-0.1-0.1-0.2-0.1-0.3c0,0,0-0.1,0-0.1c-0.1-0.2-0.2-0.4-0.3-0.5c-0.1-0.1-0.2-0.1-0.2-0.1
			c-0.3,0-0.7,0-1,0c-0.1,0-0.2,0-0.3,0c0,0-0.1,0.1-0.1,0.1c0,0.1,0,0.1-0.1,0.2c0,0.2-0.1,0.4-0.1,0.6c0,0.1-0.1,0.2,0,0.3
			c0,0.1-0.1,0.2-0.2,0.2c-0.1,0-0.2,0-0.2-0.1c0,0,0,0,0-0.1c0-0.2,0.1-0.4,0.2-0.6c0.1-0.2,0.1-0.4,0.2-0.6c0-0.1,0.1-0.3,0.1-0.4
			c0,0,0-0.1,0-0.1c0-0.2,0.1-0.3,0.1-0.4C134.3,75.1,134.3,74.9,134.3,74.7C134.4,74.7,134.3,74.7,134.3,74.7z M135.5,75.9
			c-0.3-0.3-0.6-0.6-0.9-1c-0.1,0.4-0.2,0.7-0.3,1C134.7,75.9,135,75.9,135.5,75.9z"/>
		<path class="st1" d="M140.1,69.8c0-0.2,0-0.5,0-0.8c0-0.3,0-0.6,0-0.9c0,0,0-0.1,0-0.1c-0.1-0.1,0-0.2,0.1-0.3
			c0.1-0.1,0.2-0.1,0.2,0c0.1,0.2,0,0.3,0,0.5c0,0.3,0,0.5,0,0.8c0,0.2,0,0.5,0,0.7c0,0.1-0.1,0.2-0.1,0.3c0,0,0,0,0,0.1
			c0,0-0.1,0.1-0.1,0.1c-0.1,0-0.2,0-0.2-0.1c-0.3-0.1-0.3-0.4-0.4-0.6c-0.1-0.1-0.1-0.3-0.2-0.4c0-0.1-0.1-0.2-0.1-0.3
			c0-0.2-0.2-0.4-0.3-0.6c0,0,0,0,0,0c0,0.1-0.1,0.2-0.1,0.3c0,0.2-0.1,0.4-0.1,0.5c0,0.3-0.1,0.7-0.1,1c0,0.1,0,0.2-0.1,0.2
			c-0.1,0-0.2,0-0.3,0c0,0,0-0.1,0-0.2c0-0.1,0.1-0.1,0.1-0.2c0-0.2,0-0.4,0-0.6c0-0.1,0-0.2,0.1-0.3c0,0,0-0.1,0-0.1
			c0-0.1,0.1-0.3,0.1-0.4c0-0.2,0.1-0.5,0.1-0.7c0-0.1,0.1-0.2,0.2-0.2c0.1,0,0.1,0,0.2,0.1c0.1,0.2,0.2,0.4,0.3,0.5
			c0,0.1,0.1,0.1,0.1,0.2c0,0.2,0.1,0.3,0.2,0.4c0.1,0.2,0.1,0.4,0.2,0.6c0,0.1,0.1,0.2,0.1,0.3C140,69.8,140,69.9,140.1,69.8
			C140.1,69.9,140.1,69.9,140.1,69.8z"/>
		<path class="st1" d="M150.1,74.5c0.1,0,0.2,0,0.3,0.1c0.1,0.1,0.1,0.3,0.1,0.5c0,0.2,0,0.4,0,0.6c0,0.1,0,0.2,0,0.3
			c0,0,0,0.1,0,0.1c0.1,0.2,0,0.5-0.1,0.7c0,0.1-0.3,0.2-0.4,0.1c-0.2-0.2-0.4-0.5-0.6-0.7c-0.2-0.2-0.3-0.4-0.4-0.6c0,0,0,0,0,0
			c0,0.1,0,0.3,0,0.4c0,0.3,0,0.5,0,0.8c0,0.2,0,0.3,0,0.5c0,0.1-0.1,0.1-0.2,0.2c0,0-0.1,0-0.2-0.1c-0.1-0.1,0-0.3,0-0.4
			c0-0.2,0.1-0.5,0-0.7c0-0.2,0-0.4,0-0.6c0-0.1,0-0.3,0-0.4c0-0.2,0-0.3,0.1-0.4c0.1-0.1,0.3-0.1,0.3,0c0.1,0.2,0.2,0.3,0.3,0.5
			c0,0.1,0.1,0.1,0.1,0.2c0.1,0.1,0.2,0.3,0.3,0.4c0.1,0.2,0.3,0.3,0.4,0.5c0,0,0.1,0,0.1,0c0,0,0-0.1,0-0.1c0-0.3,0-0.7,0-1
			c0-0.2,0-0.4-0.1-0.6C150.1,74.6,150.1,74.5,150.1,74.5z"/>
		<path class="st1" d="M128.8,67.4c-0.2,0-0.4,0-0.6,0c-0.2,0-0.3,0.1-0.5,0.1c0,0,0,0-0.1,0c-0.2,0-0.2,0-0.1,0.2
			c0,0.2,0.1,0.4,0.1,0.7c0,0,0.1,0.1,0.1,0.1c0.3,0,0.6,0,0.8,0c0.1,0,0.3-0.1,0.4-0.1c0,0,0.1,0,0.1,0.1c0.1,0.1-0.1,0.3-0.2,0.3
			c-0.2,0-0.3,0.1-0.5,0.1c-0.1,0-0.2,0-0.3,0c-0.1,0-0.2,0-0.3,0.1c0,0-0.1,0.1-0.1,0.1c0.1,0.3,0.1,0.6,0.1,0.8
			c0,0.1,0,0.2,0.1,0.2c0,0,0.1,0.1,0.1,0.1c0.3,0,0.6,0,0.9,0c0.2,0,0.3,0,0.5,0c0,0,0.1,0,0.1,0c0,0.1,0,0.2,0,0.3
			c-0.1,0.1-0.2,0.2-0.3,0.1c0,0-0.1,0-0.1,0c-0.2,0-0.5,0-0.7,0c-0.1,0-0.3,0-0.4-0.1c-0.1,0-0.1,0-0.2,0c-0.1-0.1-0.2-0.1-0.2-0.2
			c0-0.2,0-0.3,0-0.5c0-0.1,0-0.3,0-0.4c0-0.2-0.1-0.4-0.1-0.6c0,0,0-0.1,0-0.1c0-0.3-0.1-0.7-0.2-1c-0.1-0.1,0-0.1,0.1-0.2
			c0.1,0,0.2-0.1,0.3-0.1c0.2,0,0.3-0.1,0.5-0.1c0.1,0,0.3,0,0.4,0c0,0,0.1,0,0.1-0.1c0.1,0,0.2,0,0.3,0c0,0.1,0,0.1,0,0.2
			C128.8,67.4,128.8,67.4,128.8,67.4z"/>
		<path class="st1" d="M112.2,71c-0.3,0-0.5-0.2-0.7-0.4c-0.1-0.2-0.1-0.4-0.1-0.6c0-0.2,0-0.5,0-0.7c0-0.2,0.1-0.4,0.2-0.6
			c0-0.3,0.2-0.5,0.4-0.8c0,0,0-0.1,0.1-0.2c0-0.1,0.3-0.2,0.3-0.2c0.3,0,0.5,0.2,0.7,0.4c0.1,0.1,0.2,0.2,0.2,0.4
			c0.1,0.1,0.1,0.3,0.2,0.4c0,0.1,0,0.2,0,0.4c0,0.2-0.1,0.4-0.1,0.6c0,0.1-0.1,0.2-0.2,0.3c-0.1,0.1-0.1,0.2-0.2,0.4
			c-0.1,0.1-0.2,0.3-0.4,0.4C112.5,71,112.3,71,112.2,71C112.2,71,112.2,71,112.2,71z M113.1,69.1c0-0.1,0-0.2-0.1-0.3
			c0-0.2-0.1-0.3-0.2-0.5c-0.1-0.2-0.2-0.3-0.4-0.3c0,0-0.1,0-0.2,0c-0.1,0.1-0.2,0.3-0.3,0.4c-0.1,0.1-0.1,0.2-0.1,0.3
			c0,0.2-0.2,0.4-0.1,0.6c0,0.1,0,0.1,0,0.2c-0.1,0.3-0.1,0.5,0,0.8c0.1,0.1,0.2,0.3,0.3,0.3c0.3,0.1,0.4,0.1,0.6-0.2
			c0.1-0.2,0.2-0.4,0.3-0.6C113.1,69.6,113.1,69.4,113.1,69.1z"/>
		<path class="st1" d="M144.3,77c-0.3,0-0.5-0.1-0.7-0.3c-0.3-0.3-0.4-0.8-0.4-1.2c0-0.1,0.1-0.2,0.1-0.3c0,0,0,0,0,0
			c-0.1-0.3,0.1-0.5,0.2-0.7c0.1-0.2,0.2-0.3,0.4-0.4c0,0,0,0,0,0c0.2,0,0.4-0.1,0.6,0c0.2,0,0.3,0.1,0.4,0.2
			c0.1,0.1,0.2,0.3,0.3,0.5c0,0.1,0.1,0.2,0.1,0.3c0.1,0.2,0.2,0.5,0.1,0.8c0,0.3-0.1,0.5-0.2,0.8c-0.1,0.2-0.3,0.3-0.5,0.4
			C144.6,77,144.4,77,144.3,77z M144.5,74.2c-0.1,0-0.2,0.1-0.3,0.1c-0.1,0-0.2,0-0.3,0.1c-0.1,0.2-0.2,0.3-0.2,0.5
			c-0.1,0.2,0,0.5-0.1,0.7c-0.1,0.3,0.1,0.6,0.3,0.9c0.1,0.1,0.2,0.2,0.4,0.2c0,0,0,0,0.1,0c0,0,0.1,0,0.1,0
			c0.2-0.1,0.4-0.2,0.5-0.3c0.1-0.2,0.2-0.3,0.2-0.5c0-0.3-0.1-0.6-0.2-0.9c0-0.1,0-0.2-0.1-0.3C144.8,74.4,144.6,74.3,144.5,74.2z"
			/>
		<path class="st1" d="M155.5,69.6C155.5,69.6,155.5,69.5,155.5,69.6c-0.2-0.1-0.2-0.2-0.2-0.2c0.1-0.2,0.1-0.3,0-0.5
			c0-0.1,0-0.3,0-0.4c0-0.2,0-0.4,0-0.5c0-0.1,0-0.3,0-0.4c0-0.2,0.2-0.2,0.3-0.1c0.1,0.1,0.3,0.3,0.3,0.4c0.1,0.3,0.2,0.6,0.3,0.8
			c0,0,0,0,0,0c0.1,0.2,0.3,0.4,0.4,0.6c0.1,0,0.1-0.1,0.2-0.2c0.1-0.4,0.1-0.7,0.1-1.1c0-0.2,0-0.4,0-0.7c0-0.1,0-0.2,0.1-0.2
			c0.1,0,0.1,0.1,0.2,0.2c0,0,0,0.1,0,0.2c0,0.2,0,0.5,0,0.7c0,0.3,0,0.6-0.1,0.9c0,0.1-0.1,0.2-0.1,0.3c0,0.1-0.1,0.2-0.1,0.3
			c0,0-0.1,0.1-0.2,0c-0.1,0-0.3-0.1-0.3-0.2c-0.1-0.1-0.2-0.3-0.2-0.4c-0.1-0.1-0.1-0.3-0.2-0.4c-0.1-0.2-0.1-0.4-0.2-0.5
			c0,0,0-0.1-0.1-0.1c0,0,0,0-0.1,0c0,0,0,0,0,0.1c0,0.2,0,0.4-0.1,0.6c0,0.1,0,0.3,0,0.4C155.7,69.3,155.7,69.4,155.5,69.6z"/>
		<path class="st1" d="M125.5,74.5c0.4-0.1,0.6,0.1,0.8,0.4c0.2,0.3,0.3,0.6,0.3,0.9c0,0.3,0,0.5-0.1,0.8c-0.1,0.3-0.3,0.5-0.5,0.6
			c-0.2,0.2-0.5,0.2-0.7,0.2c-0.1,0-0.1-0.1-0.2-0.1c-0.2-0.1-0.3-0.3-0.4-0.5c-0.1-0.1-0.1-0.2-0.1-0.3c0-0.2-0.1-0.4-0.1-0.6
			c0-0.2,0.1-0.4,0.1-0.6c0.1-0.3,0.4-0.5,0.6-0.8C125.2,74.5,125.3,74.5,125.5,74.5C125.5,74.5,125.5,74.5,125.5,74.5z M126.3,75.9
			c-0.1-0.3-0.1-0.6-0.3-0.8c-0.1-0.1-0.3-0.4-0.5-0.2c0,0,0,0,0,0c-0.3,0-0.4,0.1-0.5,0.3c-0.1,0.2-0.2,0.5-0.2,0.7
			c0,0.1,0,0.3,0.1,0.4c0,0.1,0.1,0.2,0.1,0.3c0,0.1,0.1,0.1,0.1,0.2c0.1,0.1,0.2,0.3,0.3,0.3c0.3,0,0.7-0.2,0.7-0.6
			c0,0,0-0.1,0-0.1C126.2,76.2,126.3,76,126.3,75.9z"/>
		<path class="st1" d="M152.4,68.2c0,0.3-0.1,0.5-0.1,0.7c0,0.1,0,0.1,0,0.2c0,0.2-0.1,0.4-0.2,0.6c-0.1,0.2-0.4,0.3-0.6,0.4
			c-0.2,0-0.3,0-0.5-0.1c-0.1-0.1-0.3-0.1-0.4-0.3c0-0.1-0.1-0.1-0.1-0.2c0-0.3,0-0.5,0-0.8c0-0.2,0-0.4,0.1-0.5
			c0.1-0.3,0.3-0.6,0.6-0.7c0.2-0.1,0.3-0.1,0.5,0c0.3,0.1,0.5,0.3,0.6,0.6C152.3,68,152.4,68.1,152.4,68.2z M151.4,69.7
			c0.1,0,0.2-0.1,0.3-0.1c0.2-0.2,0.3-0.3,0.3-0.6c0-0.2,0-0.4,0-0.6c0-0.2-0.1-0.5-0.2-0.7c-0.1-0.1-0.2-0.2-0.3-0.2
			c-0.1,0-0.3,0.1-0.4,0.2c-0.3,0.3-0.3,0.7-0.4,1.1c0.1,0.2,0,0.4,0.1,0.5C151,69.6,151.2,69.6,151.4,69.7z"/>
		<path class="st1" d="M110.3,74.6c0.1,0.1,0.1,0.2,0.1,0.3c0,0.1,0,0.2,0,0.3c0,0.3-0.1,0.5-0.1,0.8c0,0.2-0.1,0.3-0.2,0.5
			c0,0.1-0.1,0.2-0.1,0.4c-0.1,0.2-0.1,0.3-0.2,0.5c0,0.1-0.1,0.2-0.3,0.3c-0.1,0-0.1,0.1-0.2,0.1c-0.1,0-0.3,0-0.4,0
			c-0.1,0-0.1-0.1-0.2-0.1c-0.1-0.1-0.1-0.2-0.2-0.3c-0.1-0.2-0.1-0.3-0.1-0.5c0-0.2,0-0.5-0.1-0.7c0-0.2,0-0.4-0.1-0.6
			c0-0.1,0-0.3,0-0.4c0-0.1,0-0.1,0.1-0.2c0,0,0.1-0.1,0.1-0.1c0,0,0.1,0.1,0.1,0.1c0,0,0,0.1,0,0.1c0,0.2,0.1,0.3,0.1,0.5
			c0,0,0,0,0,0c-0.1,0.2,0,0.3,0.1,0.5c0,0.2,0.1,0.4,0,0.6c0,0.3,0.1,0.5,0.3,0.8c0.1,0.1,0.2,0,0.3,0c0.1,0,0.2-0.1,0.2-0.3
			c0-0.1,0.1-0.2,0.1-0.3c0.1-0.1,0.1-0.3,0.1-0.4c0,0,0-0.1,0-0.1c0-0.1,0.1-0.2,0.1-0.4c0-0.1,0-0.1,0-0.2c0.1-0.2,0-0.5,0.1-0.7
			C110.1,74.8,110.1,74.6,110.3,74.6z"/>
		<path class="st1" d="M123.2,68.4c0,0.3,0,0.5,0,0.8c0,0.2,0.1,0.5,0.1,0.7c0,0.2,0,0.5,0,0.7c0,0-0.3,0.2-0.3,0.2
			c-0.1,0-0.1-0.2-0.1-0.3c0-0.3,0-0.5,0-0.8c0-0.2-0.1-0.4-0.1-0.6c0-0.3,0-0.6,0-0.9c0-0.2,0-0.2-0.2-0.2c-0.2,0-0.3,0-0.5,0
			c-0.1,0-0.2-0.2-0.1-0.3c0.1,0,0.2-0.1,0.3-0.1c0.2,0,0.4,0,0.6,0c0.1,0,0.1,0,0.2,0c0.1,0,0.2,0,0.2,0c0.2-0.1,0.5,0,0.7,0
			c0.2,0,0.4-0.1,0.6-0.1c0.1,0,0.1,0,0.2,0c0,0.1,0,0.2,0,0.2c-0.1,0-0.2,0.1-0.3,0.1c0,0-0.1,0-0.1,0c-0.2,0-0.4,0.1-0.6,0.1
			c-0.2,0-0.3,0-0.5,0c-0.1,0-0.1,0.1-0.2,0.2C123.2,68.2,123.2,68.3,123.2,68.4C123.2,68.4,123.2,68.4,123.2,68.4z"/>
		<path class="st1" d="M139.3,76.9c0,0-0.1,0.1-0.1,0.2c0,0.1-0.2,0.1-0.3,0c0,0,0-0.1,0-0.2c0-0.2,0-0.3-0.1-0.5c0-0.1,0-0.1,0-0.2
			c0-0.2,0-0.5,0-0.7c0-0.1,0-0.1,0-0.2c0-0.1,0-0.1,0-0.2c0.1-0.2,0-0.5,0-0.7c0-0.2,0-0.2,0.2-0.2c0,0,0.1,0,0.1-0.1
			c0.2-0.1,0.4-0.1,0.6,0c0.2,0,0.5,0.1,0.7,0c0.1,0,0.2,0,0.2,0.1c0.1,0.1,0,0.1,0,0.1c-0.1,0.2-0.1,0.2-0.3,0.1c0,0,0,0-0.1,0
			c-0.3,0-0.5,0-0.7,0c-0.2,0-0.3,0.1-0.3,0.3c0,0.1,0,0.3,0,0.4c0,0.1,0,0.2,0,0.3c0.1,0,0.2,0,0.3,0c0.1,0,0.3,0,0.4,0
			c0.1,0,0.2,0,0.3-0.1c0,0,0.1,0,0.1,0c0.1,0.2,0,0.3-0.2,0.3c-0.2,0-0.5,0-0.7,0c-0.2,0-0.2,0-0.2,0.2c0,0.2,0,0.4,0,0.6
			C139.3,76.7,139.3,76.8,139.3,76.9z"/>
		<path class="st1" d="M146.2,68.7c0-0.2,0.1-0.4,0.1-0.6c0-0.1,0.1-0.3,0.2-0.4c0.1-0.2,0.3-0.3,0.5-0.4c0.2-0.1,0.4-0.1,0.6,0
			c0,0,0,0,0.1,0c0,0,0.1,0.1,0.1,0.1c0,0,0,0.1-0.1,0.1c0,0.1-0.1,0-0.1,0c-0.2-0.1-0.4,0-0.5,0c-0.2,0.1-0.3,0.3-0.5,0.5
			c-0.1,0.1-0.1,0.2-0.1,0.3c-0.1,0.3,0,0.6,0.1,0.9c0.1,0.2,0.2,0.4,0.4,0.6c0,0,0.1,0,0.1,0.1c0.2,0.1,0.4,0.2,0.6,0
			c0.1,0,0.2,0,0.2-0.1c0,0,0,0,0.1,0c0.1-0.1,0.2-0.1,0.3,0c0.1,0.1,0.1,0.2,0.1,0.2c0,0-0.1,0.1-0.1,0.1c-0.3,0.1-0.6,0.3-0.9,0.2
			c-0.2,0-0.4-0.1-0.6-0.2c-0.2-0.1-0.2-0.3-0.3-0.5c-0.1-0.2-0.2-0.3-0.2-0.5C146.3,69.1,146.2,68.9,146.2,68.7z"/>
		<path class="st1" d="M116.3,77.8c-0.1-0.1-0.1-0.2,0-0.3c0-0.2,0-0.4,0-0.5c0-0.1,0-0.2,0-0.2c0-0.1,0-0.3,0-0.4
			c0-0.1,0-0.2,0-0.3c0-0.2,0-0.5,0-0.7c0-0.1-0.1-0.1,0-0.2c0,0,0.1-0.1,0.1-0.2c0.1-0.1,0.3-0.2,0.4-0.3c0.2,0,0.4,0,0.6,0
			c0.1,0,0.2,0,0.3,0c0.1,0,0.2,0,0.2,0.1c0,0.1,0,0.1-0.1,0.2c-0.1,0-0.2,0-0.3,0c-0.2,0-0.5,0.1-0.7,0.1c-0.1,0-0.2,0.1-0.2,0.2
			c0,0.2,0,0.4-0.1,0.7c0,0,0,0,0,0.1c0.4,0.1,0.8-0.1,1.2,0c0,0.1,0,0.2-0.1,0.2c0,0.1-0.1,0.1-0.1,0.1c-0.1-0.1-0.2,0-0.4,0
			c-0.2,0-0.3,0-0.5,0.1c-0.1,0-0.2,0.1-0.2,0.2c0,0.2,0,0.3,0,0.5c0,0.2,0,0.3,0,0.5c0,0.2,0,0.2-0.2,0.3
			C116.4,77.7,116.3,77.7,116.3,77.8z"/>
		<path class="st1" d="M130.4,77.4c-0.1,0-0.2,0.1-0.4,0.1c-0.1-0.4-0.1-0.8,0-1.2c0-0.2,0.1-0.4,0.1-0.6c0-0.1,0-0.3,0.1-0.4
			c0-0.1,0.1-0.2,0.1-0.2c0-0.2,0.2-0.3,0.2-0.5c0,0,0-0.1-0.1-0.1c-0.1,0-0.2,0-0.3,0c-0.2,0-0.5,0.1-0.7,0c-0.1,0-0.2,0-0.2-0.1
			c0,0,0-0.1,0-0.1c0,0,0.1-0.1,0.1-0.1c0.2,0,0.4,0,0.6,0c0.2,0,0.4-0.1,0.6-0.1c0.2,0,0.5,0,0.7,0c0,0,0.1,0,0.1,0
			c0.2-0.1,0.3,0,0.4,0.1c0,0.1-0.1,0.1-0.1,0.2c0,0-0.1,0-0.1,0c-0.2,0-0.3-0.1-0.5-0.1c-0.1,0-0.2,0.1-0.2,0.2
			c-0.1,0.2-0.2,0.4-0.2,0.7c0,0.3-0.1,0.5-0.1,0.8c0,0.2-0.1,0.3-0.1,0.5c0,0.2,0,0.4,0,0.5C130.4,77.3,130.4,77.3,130.4,77.4z"/>
		<path class="st1" d="M105.3,74.7c0.2,0,0.4,0.1,0.6,0.1c0.2,0,0.4-0.1,0.6-0.1c0.1,0,0.1,0.1,0.2,0.1c0,0,0,0.1,0,0.1
			c-0.1,0-0.2,0.1-0.3,0.1c-0.2,0-0.3,0-0.5,0c-0.1,0-0.1,0-0.1,0.1c0,0.1,0,0.2,0,0.3c0,0.2,0,0.3,0,0.5c0,0,0,0.1,0,0.1
			c0,0.4,0,0.8,0,1.1c0,0.2,0,0.4,0,0.6c0,0.1-0.1,0.2-0.2,0.2c-0.1,0-0.2-0.1-0.1-0.2c0-0.2,0-0.3,0-0.5c0-0.1,0-0.3,0-0.4
			c0-0.2,0-0.3,0-0.5c0-0.4,0-0.7,0-1.1c0-0.1,0-0.1,0-0.2c0-0.1,0-0.1-0.1-0.1c-0.2,0-0.5,0-0.7,0.1c0,0-0.1,0-0.1,0
			c0-0.1,0-0.2,0-0.2c0.1-0.1,0.2-0.1,0.3-0.2C105,74.8,105.1,74.8,105.3,74.7z"/>
		<path class="st1" d="M121,77.4c0.1,0,0.1,0,0.2-0.1c0.1,0,0.2,0,0.3,0c0,0,0.1,0,0.1,0c0,0.1,0,0.2,0,0.2c0,0-0.1,0-0.2,0.1
			c-0.1,0-0.3,0-0.4,0c-0.1,0-0.3,0-0.4,0c0,0-0.1,0-0.1,0c-0.1,0.1-0.2,0-0.2,0c0,0-0.1,0-0.1-0.1c0,0,0-0.1,0-0.1
			c0-0.3,0-0.5,0-0.8c0-0.1,0-0.1,0-0.2c0-0.3,0-0.5,0-0.8c0-0.1,0.1-0.2,0.1-0.3c0,0,0-0.1,0-0.1c0-0.2,0-0.3,0-0.5
			c0-0.1,0-0.2,0.1-0.1c0.1,0,0.1,0.1,0.1,0.2c0,0.3,0,0.6,0,0.9c0,0.2,0,0.4,0,0.6c0,0.3,0,0.6,0,0.9c0,0.1,0.1,0.2,0.2,0.2
			C120.7,77.4,120.9,77.4,121,77.4z"/>
		<path class="st1" d="M136.5,67.7c0,0.1,0.1,0.2,0.1,0.3c0,0.4,0,0.9,0,1.3c0,0.3,0,0.6-0.1,0.9c0,0.1,0,0.2,0,0.4
			c0,0.1-0.1,0.2-0.2,0.2c-0.1,0-0.2-0.2-0.2-0.2c0-0.1,0.1-0.2,0.1-0.4c0-0.1,0-0.3,0.1-0.4c0-0.1,0-0.3,0-0.4
			c0-0.2,0.1-0.4,0.1-0.6c0-0.2,0-0.3,0-0.5c0-0.1,0-0.1,0-0.2C136.3,67.8,136.3,67.7,136.5,67.7z"/>
		<path class="st1" d="M145.9,72.8c0.1,0.2-0.1,0.3-0.2,0.4c-0.1,0.1-0.1,0.1-0.2,0.2c0,0-0.1,0-0.2,0.1c0-0.1,0-0.1,0-0.1
			c0.2-0.2,0.2-0.4,0.4-0.5C145.8,72.8,145.8,72.8,145.9,72.8z"/>
		<path class="st1" d="M155.7,74.8c0.1,0,0.1,0,0.2-0.1c0.1,0,0.3,0,0.3,0.1c0,0.1,0.1,0.2,0.1,0.2c0.1,0.2,0,0.5-0.2,0.6
			c-0.1,0-0.1,0.1-0.2,0.1c-0.2,0.1-0.4,0-0.6-0.1c-0.1-0.1-0.2-0.2-0.2-0.3c0-0.1,0-0.2,0-0.3c0.1-0.3,0.2-0.6,0.3-0.9
			c0.1-0.1,0.1-0.2,0.2-0.3c0.1-0.1,0.1-0.2,0.2-0.3c0.1-0.1,0.1-0.1,0.2,0c0,0,0.1,0.1,0,0.2c0,0.1-0.1,0.2-0.1,0.3
			c-0.1,0.2-0.2,0.3-0.3,0.5C155.7,74.6,155.7,74.7,155.7,74.8z M155.8,75.1c-0.3,0-0.4,0.1-0.2,0.3c0,0.1,0.2,0.1,0.2,0.1
			c0.1,0,0.1-0.1,0.2-0.1c0.1,0,0.1-0.1,0.1-0.2C156,75.1,155.9,75.1,155.8,75.1z"/>
	</g>
	<path class="st1" d="M61.8,21.2c0-0.3,0-0.6-0.1-0.9c-0.4-1.1-0.2-2.1,0-3.2c0.1-0.9,0.4-1.7,1.3-1.9c0.9-0.2,1.8,0.2,2.4,0.9
		c0.7,0.8,1.2,1.8,1.3,2.8c0.1,0.9,0.2,1.8,0.2,2.6c0,1.1-0.3,2.2-0.8,3.2c-0.3,0.7-0.9,1.1-1.6,1.4c-0.7,0.3-1.2,0.1-1.7-0.4
		c-0.3-0.4-0.5-0.8-0.6-1.2C62,23.4,61.9,22.3,61.8,21.2C61.8,21.2,61.8,21.2,61.8,21.2z M63.2,20.6c0.1,0.8,0.2,1.5,0.4,2.2
		c0.1,0.4,0.3,0.7,0.5,1.1c0.1,0.2,0.2,0.4,0.4,0.4c0.3,0,0.3-0.3,0.4-0.5c0.4-1.3,0.5-2.7,0.6-4.1c0-0.1,0-0.3-0.1-0.4
		c-0.3-0.7-0.5-1.4-0.8-2c-0.2-0.4-0.4-0.9-0.9-0.8c-0.6,0.1-0.5,0.7-0.6,1.1C63,18.7,63.3,19.7,63.2,20.6z"/>
	<path class="st1" d="M50.7,23.7c0.1,0.3,0.1,0.6,0.2,1c0.1,0.5-0.3,1-0.7,1c-0.4,0-0.7-0.3-0.7-0.9c0.1-2.8,0-5.6-0.3-8.4
		c-0.1-0.6-0.2-1.3,0-1.9c0.3-1,1.6-1.5,2.5-0.9c0.3,0.2,0.5,0.5,0.7,0.8c0.4,1,0.8,2,0.7,3.1c0,0.8-0.2,1.5-0.9,2
		c-0.4,0.2-0.4,0.5-0.1,0.8c1.1,1,1.8,2.4,2.3,3.7c0.1,0.1,0.1,0.2,0.1,0.4c0,0.2,0,0.4-0.2,0.5c-0.2,0.1-0.4,0.1-0.6,0
		c-0.3-0.2-0.5-0.4-0.6-0.8c-0.3-0.9-0.9-1.7-1.4-2.5c-0.1-0.2-0.3-0.3-0.5-0.5c-0.3-0.2-0.5-0.2-0.5,0.2
		C50.7,22.2,50.6,22.9,50.7,23.7z M50.6,18.9c0.5-0.4,0.9-0.7,1-1.2c0.1-0.8,0-1.6-0.2-2.3c0-0.2-0.2-0.4-0.4-0.6
		c-0.2-0.1-0.3-0.2-0.5-0.1c-0.2,0.1-0.2,0.3-0.2,0.4C50.4,16.4,50.5,17.7,50.6,18.9z"/>
	<path class="st1" d="M113.5,24.1c-0.1-1.5-0.1-1.5-1.5-1.5c-0.1,0-0.2,0-0.3,0c-0.7,0-0.9,0.2-0.9,0.9c0,0.2,0.1,0.5,0.1,0.7
		c0,0.4-0.2,0.7-0.7,0.8c-0.4,0-0.7-0.2-0.7-0.7c0-0.2,0-0.3,0.1-0.5c0.4-2.6,0.8-5.1,1.1-7.7c0-0.1,0-0.2,0-0.3
		c0.1-0.4,0.1-0.9,0.6-1c0.5-0.1,1.2,0.1,1.4,0.7c0.4,0.9,0.8,1.8,1.2,2.7c0.2,0.6,0.4,1.2,0.4,1.8c0.1,0.6,0.1,1.1,0.4,1.6
		c0.3,0.5,0,1,0.2,1.5c0.1,0.6,0.2,1.3,0.2,2c0,0.5-0.4,0.9-0.8,0.9c-0.4,0-0.7-0.3-0.7-0.8C113.5,24.7,113.5,24.4,113.5,24.1z
		 M112,16.9c-0.4,0.4-0.3,0.7-0.3,1c-0.1,0.9-0.1,1.7-0.2,2.6c-0.1,0.9,0,1,0.9,1.1c0.7,0.1,1-0.1,0.8-0.8
		C112.8,19.5,112.4,18.2,112,16.9z"/>
	<path class="st1" d="M33.9,21.3c-0.1-1.6-0.1-2.8-0.3-4c0-0.2,0-0.4-0.1-0.6c-0.1-0.5-0.3-0.7-0.8-0.6c-0.5,0.1-1,0.2-1.5,0.3
		c-0.2,0-0.5,0.1-0.7,0.1c-0.4,0-0.8-0.1-0.8-0.5c0-0.4,0.3-0.6,0.7-0.7c0.1,0,0.2-0.1,0.3-0.1c1.9,0,3.6-0.6,5.4-0.8
		c0.5-0.1,1-0.2,1.5,0c0.2,0.1,0.4,0.2,0.4,0.5c0,0.2-0.1,0.4-0.3,0.5c-0.2,0.1-0.4,0.1-0.7,0.2c-0.3,0-0.7,0.1-1,0.1
		c-0.9,0.2-1,0.3-1,1.2c0,2.2,0.6,4.3,0.7,6.4c0,0.6,0.2,1.2,0.2,1.8c0,0.6-0.2,0.9-0.7,1c-0.5,0.1-0.8,0-1-0.6
		c-0.1-0.5-0.2-1-0.2-1.6C34,23,33.9,22,33.9,21.3z"/>
	<path class="st1" d="M147.5,20.4c-0.1-1.1-0.2-2.2-0.2-3.4c0-0.3,0-0.6,0.3-0.7c0.4-0.1,0.6,0.1,0.8,0.4c0.2,0.3,0.3,0.6,0.3,1
		c0,0.7,0.1,1.5,0,2.2c-0.1,0.5,0.2,0.7,0.7,0.7c0.8,0,1.1-0.1,1.1-0.6c0-0.8-0.1-1.5-0.2-2.3c0-0.3-0.1-0.6-0.1-0.9
		c0-0.4,0.2-0.7,0.6-0.7c0.4,0,0.6,0.2,0.7,0.6c0,0.2,0.1,0.3,0.1,0.5c0.4,2.8,0.1,5.7,0.2,8.5c0,0.1,0,0.3-0.1,0.4
		c-0.2,0.3-0.4,0.5-0.7,0.5c-0.4,0-0.5-0.4-0.5-0.7c0-0.8,0-1.6,0.1-2.4c0-0.3,0.1-0.7,0-1c0-0.5-0.2-0.7-0.7-0.7
		c-0.9,0.1-1.5,0-1.2,1.4c0.1,0.6,0.2,1.2,0.2,1.9c0,0.2,0,0.5,0,0.7c0,0.3-0.2,0.5-0.5,0.5c-0.3,0-0.4-0.2-0.5-0.4
		c-0.1-0.8-0.3-1.6-0.3-2.4C147.6,22.4,147.5,21.4,147.5,20.4z"/>
	<path class="st1" d="M76,22c-0.1-1.7-0.5-3.4-0.6-5.2c0-0.4-0.1-0.8,0-1.2c0.2-0.8,0.8-1.1,1.5-0.8c0.4,0.2,0.8,0.4,1.1,0.8
		c0.7,1,1.2,2.2,1.1,3.5C79,20,78.7,20.7,77.8,21c-0.5,0.2-0.6,0.5-0.6,1c0.1,0.9,0.1,1.8,0.2,2.6c0,0.4,0,0.8-0.2,1.2
		C77.2,25.9,77,26,76.9,26c-0.2,0-0.4-0.1-0.5-0.3c-0.1-0.3-0.2-0.6-0.2-0.9C76.1,23.9,76.1,23,76,22z M76.9,16.2
		c-0.3,0.3-0.2,0.4-0.2,0.6c0,1,0.2,1.9,0.4,2.8c0,0.2,0.1,0.5,0.4,0.4c0.3,0,0.4-0.3,0.4-0.5C77.7,18.4,77.4,17.3,76.9,16.2z"/>
	<path class="st1" d="M133.9,25.9c-0.4,0-0.9-0.1-1.3-0.5c-0.3-0.3-0.3-0.7,0-1c0.3-0.3,0.6-0.2,0.8,0c0.2,0.1,0.3,0.5,0.6,0.4
		c0.3-0.1,0.4-0.5,0.5-0.8c0.4-1.5-0.1-2.5-1.6-2.9c-0.5-0.1-0.8-0.4-1-0.8c-0.5-1.1-0.5-2.3-0.1-3.5c0.3-0.8,1.1-1.2,1.7-1
		c0.8,0.2,1.6,1.3,1.4,2c-0.1,0.3-0.2,0.6-0.5,0.7c-0.4,0-0.5-0.2-0.6-0.5c0-0.1-0.1-0.2-0.1-0.3c-0.1-0.3-0.2-0.7-0.6-0.6
		c-0.3,0.1-0.3,0.4-0.4,0.7c0,0.2,0,0.4-0.1,0.6c-0.1,1.4-0.1,1.4,1.2,1.8c0.3,0.1,0.6,0.2,0.7,0.4c0.8,1.2,1.6,2.5,1.3,4.1
		C135.8,25.4,134.8,25.8,133.9,25.9z"/>
	<path class="st1" d="M99.2,20c0.1,1.1,0.2,2.1,0.7,3c0.5,1,1,1.1,1.9,0.5c0.3-0.2,0.7-0.5,1,0c0.3,0.4,0.1,0.8-0.3,1.1
		c-0.9,0.9-2.6,0.6-3.3-0.6c-0.9-1.6-1.3-3.3-1.2-5c0.1-1.1,0.1-2.2,0.6-3.3c0.4-0.9,1-1.4,2-1.5c0.8-0.1,1.4,0.3,1.7,1
		c0.1,0.3,0.1,0.6-0.1,0.9c-0.2,0.2-0.5,0.1-0.8,0c-0.8-0.4-1.1-0.3-1.5,0.4C99.2,17.6,99,18.8,99.2,20z"/>
	<path class="st1" d="M87.9,20.1c-0.1-0.9-0.1-1.9-0.2-2.8c0-0.4-0.1-0.8-0.2-1.1c-0.2-0.5-0.1-0.8,0.4-0.9c0.4-0.1,0.8,0,1.1,0.3
		c0.2,0.1,0.2,0.3,0.2,0.5c-0.5,1.4-0.3,2.8-0.4,4.2c0,1.2,0.2,2.4,0.1,3.6c0,0.4,0.2,0.6,0.3,0.9c0.2,0.4,0,0.7-0.4,0.7
		c-0.2,0-0.5,0-0.7,0c-0.6-0.1-0.8-0.4-0.4-0.9c0.3-0.4,0.3-0.7,0.3-1.1c-0.1-1.1-0.1-2.2-0.2-3.2C87.8,20.1,87.9,20.1,87.9,20.1z"
		/>
	<path class="st1" d="M121.4,21.7c0-1.6-0.4-3.2-0.5-4.8c0-0.2,0-0.3,0-0.5c0-0.3-0.1-0.7,0.3-0.8c0.4,0,0.5,0.3,0.6,0.6
		c0.1,0.3,0.2,0.7,0.2,1c0.1,1.9,0.6,3.7,0.6,5.6c0,1.2,0.5,1.9,1.7,2.1c0.2,0,0.4,0.1,0.6,0.2c0.2,0.1,0.4,0.3,0.4,0.5
		c0,0.3-0.3,0.5-0.6,0.5c-0.2,0-0.3,0-0.5-0.1c-0.2,0-0.4-0.1-0.6-0.1c-1.5-0.2-1.5-0.2-1.8-1.7c-0.1-0.4-0.1-0.9-0.2-1.3
		C121.5,22.6,121.5,22.1,121.4,21.7z"/>
	<path class="st2" d="M67.2,19.5c0.1-0.9-0.3-1.9,0-2.9c0.1-0.4,0-1.1,0.6-1.1c0.5-0.1,0.7,0.5,0.9,0.8c0.3,0.7,0.5,1.3,0.8,2
		c0,0.1,0.1,0.3,0.1,0.4c-0.1,1.4-0.2,2.8-0.6,4.1c-0.1,0.2-0.1,0.5-0.4,0.5c-0.2,0-0.3-0.2-0.4-0.4c-0.2-0.3-0.4-0.7-0.5-1.1
		C67.4,21.1,67.3,20.3,67.2,19.5z"/>
	<path class="st2" d="M48.4,19.5c-0.1-1.3-0.2-2.5-0.3-3.8c0-0.2,0-0.3,0.2-0.4c0.2-0.1,0.4,0,0.5,0.1c0.2,0.1,0.3,0.3,0.4,0.6
		c0.1,0.8,0.2,1.5,0.2,2.3C49.3,18.9,48.9,19.2,48.4,19.5z"/>
	<path class="st2" d="M107.7,17.7c0.4,1.4,0.8,2.6,1.2,3.9c0.2,0.7,0,0.9-0.8,0.8c-0.9-0.1-1-0.2-0.9-1.1c0.1-0.9,0.1-1.7,0.2-2.6
		C107.4,18.4,107.3,18.1,107.7,17.7z"/>
	<path class="st2" d="M79,15.8c0.5,1.1,0.8,2.2,1,3.4c0,0.2-0.1,0.5-0.4,0.5c-0.3,0-0.4-0.2-0.4-0.4c-0.2-0.9-0.4-1.9-0.4-2.8
		C78.8,16.2,78.7,16,79,15.8z"/>
	<g>
		<path class="st2" d="M84,59.1c0.4,0.2,0.8,0,1.3,0.3C84.7,59.6,84.3,59.4,84,59.1z"/>
		<g>
			<path class="st1" d="M144.2,35.8c0,0.1,0,0.2,0,0.3c0,0.2-0.1,0.3-0.3,0.3c-0.2,0-0.3-0.1-0.3-0.2c0-0.2-0.1-0.3-0.1-0.5
				c0-0.2-0.1-0.4,0.2-0.4c0.2-0.1,0.4,0,0.5,0.2C144.1,35.6,144.1,35.7,144.2,35.8z"/>
			<g>
				<path class="st1" d="M40.5,44.6c-0.8,0.3-1.4-0.3-2-0.7c-0.2-0.2-0.3-0.4-0.5-0.5c-0.3-0.3-0.7-0.2-0.9,0.1
					c-0.2,0.2-0.3,0.5-0.3,0.8c-0.2,1-0.3,2-0.4,3.1c0,0.6,0.2,0.7,0.7,0.7c0.7-0.1,1.3,0.3,1.6,0.9c0.4,1,0.6,2,0.4,3.1
					c-0.1,0.7-0.5,1.1-1.1,1.4c-1,0.4-1,0.4-1,1.5c0,1.6,0,3.2-0.2,4.7c0,0.1,0,0.2,0,0.3c-0.2,1.1-0.6,1.7-1.9,2
					c-1.1,0.3-2.2,0.4-3.4,0.3c-0.6-0.1-1.2-0.6-1.3-1.4C30,60.5,30,60.1,30,59.7c0-1.4,0-2.8,0.1-4.2c0-0.7,0-0.7-0.7-0.8
					c-1.1-0.2-1.8-0.9-1.8-2.1c0-0.6,0-1.1,0.1-1.7c0.2-1,0.9-1.7,1.9-1.8c0,0,0,0,0.1,0c1.2,0,1,0,1.2-1.1c0.3-1.9,0.8-3.8,1.3-5.6
					c0.3-1.1,0.8-2.2,1.1-3.3c0.1-0.5,0.4-0.9,0.7-1.3c0.6-0.8,1-1.6,1.8-2.2c0.7-0.5,1.4-1,2.3-1.1c0.3,0,0.5,0,0.7,0
					c0.1,0,0.2,0.1,0.3,0.1c1.7,0.2,2.6,1.3,3.3,2.6c0.7,1.1,1,2.4,1.2,3.6c0,0.1,0.1,0.3,0.1,0.4c0.3,1.3-0.4,2.7-1.7,3.2
					C41.5,44.5,41,44.6,40.5,44.6z M33.7,39.5c0.3-0.7,0.9-1.3,1.3-2c0.5-0.9,1.2-1.5,2.2-1.7c0.6-0.1,1.1-0.3,1.7-0.2
					c0.3,0.1,0.5,0.3,0.7,0.3c1,0.2,1.2,1.1,1.8,1.7c0.1,0.6,0.5,1.1,0.6,1.7c0.2,0.7,0.3,1.4,0.6,2c0.2,0.5,0.1,1-0.3,1.3
					c-0.5,0.4-1,0.6-1.6,0.8c-0.6,0.1-1.1,0-1.6-0.3c-0.3-0.2-0.5-0.6-0.7-0.8c-0.5-0.6-1.1-0.7-1.6-0.1c-0.5,0.5-0.9,1.1-1.1,1.8
					c-0.3,1.4-0.4,2.7-0.5,4.1c0,1,0,1,1,0.8c0.5-0.1,0.8,0,1.1,0.4c0.3,0.4,0.4,1,0.4,1.5c0.1,1.2-0.2,1.7-1.4,2
					c-0.8,0.2-0.8,0.2-0.8,1c0,0.1,0,0.3,0,0.4c-0.1,0.9,0.1,1.7,0.1,2.5c0,0.7,0,1.4,0.1,2.1c0.1,1.1-0.7,1.8-1.6,1.8
					c-0.8,0-1.6,0.1-2.4-0.1c-0.5-0.1-0.7-0.2-0.7-0.7c0.1-0.9,0-1.9,0.3-2.8c0.1-0.2,0.1-0.5,0.1-0.7c-0.1-0.7,0-1.4,0-2.1
					c0.1-0.5,0-0.6-0.5-0.6c-0.4,0-0.8,0.1-1.2,0c-0.5,0-0.8-0.1-0.9-0.7c0-0.2-0.1-0.3-0.1-0.5c-0.3-0.6-0.2-1.3,0.1-1.9
					c0.2-0.3,0.4-0.5,0.8-0.6c0.5-0.1,1.1-0.2,1.6-0.3c0.3-0.1,0.5-0.2,0.5-0.6c0.1-1,0.1-2.1,0.3-3.1c0.1-0.4,0.2-0.9,0.1-1.4
					c-0.2,0.2-0.2,0.5-0.3,0.7c-0.3,1.2-0.5,2.4-0.6,3.6c0,0.5-0.1,0.6-0.7,0.7c-0.4,0.1-0.7,0.1-1.1,0.2c-0.6,0-1,0.4-1.2,1
					c-0.1,0.5-0.2,1.1-0.1,1.7c0.1,1.2,0.4,1.5,1.6,1.6c0.5,0.1,0.8,0.3,0.9,0.8c0,0.4,0.1,0.7,0,1.1c-0.1,1.1-0.1,2.2-0.1,3.3
					c0,0.5,0,0.9,0.1,1.4c0.1,0.6,0.4,0.8,1,0.9c0.9,0.1,1.8,0,2.7-0.2c0.9-0.2,1.4-0.6,1.5-1.5c0-0.1,0-0.2,0.1-0.4
					c0.1-1.1,0.1-2.3,0.1-3.4c0-0.7,0-1.3,0-2c0-0.6,0.2-0.8,0.8-1c0.1,0,0.2,0,0.3-0.1c0.8-0.2,1-0.5,1-1.3c0-0.7,0-1.3-0.2-2
					c-0.2-0.8-0.5-1-1.3-0.9c-0.8,0.1-1-0.1-1.1-0.9c-0.1-1.4,0.1-2.7,0.4-4c0.1-0.3,0.2-0.5,0.4-0.8c0.5-0.7,1.3-0.8,2-0.2
					c0.2,0.2,0.4,0.5,0.7,0.7c0.3,0.3,0.7,0.5,1.2,0.5c0.4,0,0.7-0.1,1.1-0.2c0.3-0.1,0.6-0.2,0.9-0.4c0.8-0.6,0.8-1.4,0.6-2.3
					c-0.3-1.4-0.8-2.8-1.5-4.1c-0.3-0.6-0.7-1-1.2-1.4c-0.4-0.4-1-0.4-1.5-0.5c-0.6-0.2-1.2,0-1.8,0.2c-0.3,0.2-0.6,0.4-0.9,0.6
					c-0.7,0.5-1,1.2-1.5,1.8C34.2,38.2,33.9,38.8,33.7,39.5z"/>
				<path class="st1" d="M82.1,39.2c-0.1-0.5-0.1-1-0.2-1.5c-0.4-1.7,1-2.8,2.5-2.8c1.4,0.1,2.2,1,2.3,2.4c0,0.1,0,0.1,0,0.2
					c-0.1,1.2,0,2.4-0.1,3.7c0,0.5,0.1,0.6,0.6,0.6c0.7,0,1.3,0.1,1.9,0.4c1.7,0.9,1.8,2.5,0.8,3.9c-0.3,0.4-0.7,0.4-1.1,0.5
					c-0.2,0-0.5,0-0.7,0.1c-0.6,0.2-0.8,0.4-0.8,1.1c0,0.7,0,1.5,0.1,2.2c0.2,1.6,0.3,3.2,0.4,4.8c0.1,1,0.1,1.9-0.2,2.9
					c-0.2,0.5-0.5,0.9-0.7,1.4c0,0.1-0.1,0.2-0.2,0.2c-0.5,0.2-1,0.6-1.6,0.7c-1.2,0.2-2.3-0.6-2.5-1.8c-0.2-1.2-0.1-2.4-0.2-3.7
					c0-0.5,0-0.9-0.1-1.4c-0.1-1.3,0.1-2.6,0.1-3.9c0-0.5,0-1,0.1-1.5c0-0.1,0-0.3-0.1-0.4c-0.2-0.2-0.2-0.4-0.2-0.6
					c0-0.3-0.2-0.4-0.4-0.4c-0.3,0-0.5,0-0.8,0.1c-0.5,0.1-1,0-1.5-0.1c-0.7-0.2-1.1-0.6-1.3-1.3c0-0.2-0.1-0.4-0.1-0.6
					c-0.3-0.9,0-1.5,0.7-2.1c0.6-0.5,1.2-0.7,2-0.6c0.2,0,0.4,0.1,0.6,0.1c0.5,0.1,0.6,0,0.7-0.6C82.1,40.6,82.1,39.9,82.1,39.2z
					 M85.9,39c-0.1,1,0,2.1,0.1,3.1c0,0.5,0.1,0.5,0.5,0.6c0.4,0.1,0.8,0.1,1.2,0.1c0.6,0,1.1,0.2,1.6,0.6c0.4,0.4,0.6,1,0.4,1.5
					c-0.3,0.7-0.6,0.9-1.3,0.9c-0.3,0-0.6,0-0.9,0c-1,0-1,0-0.9,1c0.1,1.3,0.1,2.5,0.1,3.8c0,1.1,0,2.2,0.1,3.4c0,0.4-0.1,0.7,0,1.1
					c0.1,0.6,0.1,1.3,0.2,1.9c0,0.5,0,1-0.4,1.5c-0.1,0.1-0.2,0.2-0.1,0.4c0.3-0.1,0.4-0.3,0.5-0.5c0.4-0.8,0.6-1.6,0.5-2.4
					c0-1.2-0.2-2.4-0.3-3.7c-0.2-1.8-0.3-3.5-0.3-5.3c0-0.3,0.1-0.5,0.4-0.6c0.5-0.2,1-0.3,1.6-0.4c0.4,0,0.7-0.1,1-0.4
					c0.5-0.5,0.5-1.8,0-2.3c-0.5-0.6-1.1-0.9-1.9-0.9c-0.3,0-0.6,0-0.9-0.1c-0.5-0.1-0.7-0.3-0.8-0.8c0-0.2,0-0.3,0-0.5
					C86.1,40.4,86,39.7,85.9,39z M82.3,42.6c0.1,0,0.2,0,0.4,0c0.4-0.1,0.5-0.1,0.4-0.5c-0.2-1.5-0.1-3.1-0.2-4.7
					c-0.1-1.2,0.2-1,0.9-1.3c0.2-0.1,0.4-0.1,0.5-0.1c0.5-0.1,1,0.2,1.2,0.7c0.1,0.3,0.2,0.5,0.2,0.8c0,0.2,0,0.3,0.1,0.5
					c0.4-0.9-0.1-1.9-0.9-2.2c-1.5-0.4-2.7,0.5-2.4,2c0.2,1.2,0.2,2.3,0.2,3.5C82.7,41.7,82.7,42.1,82.3,42.6z M83.6,58.7
					c0-3.5-0.1-6.9-0.5-10.3c0,0.5-0.1,1-0.1,1.5c0,1.3-0.1,2.6,0,3.9c0,0.3,0,0.7,0,1.1c0,1,0,2.1,0.2,3.1
					C83.3,58.2,83.3,58.5,83.6,58.7z M80.8,42.4c-1.1-0.3-2.1,0.6-2,1.7c0,0.3,0.1,0.7,0.2,1c0.1,0.3,0.4,0.6,0.7,0.7
					c0.2,0.1,0.4,0.1,0.6,0.1c0.8,0.1,1.7-0.2,2.5-0.1c0.1,0,0.2-0.1,0.2-0.2c0-0.1-0.1-0.2-0.2-0.2c-0.4,0-0.8,0-1.2,0.1
					c-0.6,0.1-1.2,0-1.8-0.1c-0.3,0-0.5-0.2-0.6-0.4c-0.6-0.7-0.4-1.7,0.4-2.1C80,42.6,80.3,42.4,80.8,42.4z M84,59.1
					c0.3,0.3,0.7,0.5,1.3,0.3C84.8,59.1,84.3,59.3,84,59.1z"/>
				<path class="st1" d="M117.2,57.9c-0.1-0.8,0-1.6-0.2-2.4c-0.1-0.6-0.2-0.7-0.8-0.7c-0.7,0.1-1.2-0.2-1.5-0.8
					c-0.7-1.3-0.2-2.7,1.1-3.3c0.2-0.1,0.5-0.2,0.7-0.2c0.3-0.1,0.5-0.3,0.5-0.6c-0.1-1.3,0.1-2.6,0.2-4c0.1-1,0.2-2.1,0.2-3.1
					c0-1.4,0.5-2.6,1.3-3.7c0.4-0.6,1-0.9,1.8-0.9c1.1,0,2.1,0.2,2.9,1.1c0.5,0.5,1,1,1.6,1.5c0.2,0.1,0.3,0.3,0.4,0.5
					c0.3,0.7,0.6,1.4,0.8,2.1c0.1,0.4,0.1,0.8-0.2,1.2c-0.1,0.2-0.3,0.4-0.3,0.7c-0.3,0.9-0.9,1.1-1.6,1c-0.5,0-0.9-0.2-1.2-0.5
					c0,0-0.1-0.1-0.1-0.1c-0.5-0.4-0.5-0.3-0.6,0.2c-0.1,0.5-0.1,1.1-0.2,1.6c-0.1,0.5-0.1,1-0.3,1.4c0,0.1-0.1,0.2-0.1,0.3
					c-0.1,0.8,0.1,1,0.9,1c0.6,0,1.2,0.1,1.6,0.6c0.4,0.5,0.5,1.2,0.5,1.8c0,0.2-0.1,0.5-0.1,0.7c-0.1,0.6-0.4,1-1.1,1.1
					c-0.2,0-0.4,0.1-0.5,0.2c-0.4,0.2-0.6,0.5-0.6,1c0,0.3,0,0.5,0.1,0.7c0.2,0.6,0.2,1.1,0,1.7c-0.1,0.5-0.2,1-0.4,1.4
					c-0.5,1.5-2,2-3.2,1.5c-0.6-0.2-0.9-0.6-1-1.2C117.3,59.1,117.2,58.5,117.2,57.9z M120.6,48.8c0.3-0.6,0.4-1.2,0.4-1.8
					c0.1-0.7,0.2-1.5,0.3-2.2c0.1-0.5,0.3-0.6,0.7-0.3c0.3,0.2,0.6,0.5,0.9,0.8c0.4,0.3,0.9,0.5,1.5,0.2c0.5-0.3,0.7-0.8,1-1.3
					c0.2-0.4,0-0.7-0.1-1c-0.1-0.3-0.2-0.7-0.3-1c-0.1-0.3-0.3-0.6-0.5-0.8c-0.8-0.6-1.4-1.4-2.2-2c-0.8-0.6-1.7-0.6-2.6-0.4
					c-0.1,0-0.2,0.1-0.3,0.2c-0.3,0.3-0.7,0.7-0.9,1.1c-0.1,0.2-0.2,0.3-0.2,0.4c-0.1,0.2-0.2,0.3-0.1,0.6c0.3-0.7,0.8-1.1,1.3-1.5
					c0.5-0.4,1.2-0.4,1.8-0.5c0.1,0,0.2,0,0.3,0.1c1.6,0.8,2.8,2,3.5,3.6c0.3,0.6,0.1,1.5-0.3,1.9c-0.7,0.6-1.7,0.5-2.3-0.3
					c-0.2-0.3-0.3-0.5-0.5-0.8c-0.3-0.3-0.7-0.2-0.9,0.2c0,0.1,0,0.2-0.1,0.2C120.8,45.7,120.7,47.2,120.6,48.8z M123.1,53.6
					c0,0-0.1-0.1-0.1-0.1c-0.6,0.1-1.2,0.3-1.8,0.4c-0.3,0-0.4,0.2-0.4,0.5c0,0.7,0.1,1.3,0.1,2c0,1,0.2,1.9-0.2,2.9
					c-0.3,0.6-0.7,0.9-1.3,1c-0.8,0.1-1.1-0.2-1.2-0.9c-0.1-0.5-0.1-1-0.1-1.4c-0.1-1-0.2-2.1-0.2-3.1c0-0.6,0-0.7-0.6-0.7
					c-0.1,0-0.2,0-0.4,0c-0.9,0-1.5-0.4-1.7-1.3c0-0.1,0-0.2-0.1-0.2c-0.2,1,0.3,1.7,1.3,1.7c0.1,0,0.2,0,0.3,0c0.7,0,1,0.3,1,0.9
					c0.1,1.1,0.2,2.2,0.3,3.3c0,0.4,0.1,0.8,0.2,1.2c0.1,0.3,0.3,0.4,0.5,0.6c1.1,0.5,2.2-0.1,2.5-1c0.4-1.1,0.8-2.2,0.4-3.4
					c-0.4-1,0.1-1.8,1.2-2.1C122.8,53.7,123,53.8,123.1,53.6z M120.6,49.4c0,0.4,0,0.8,0,1.1c0,0.4,0.1,0.4,0.4,0.4
					c0.2,0,0.5,0,0.7,0c0.7-0.1,1.3,0.1,1.7,0.8c0,0,0.1,0,0.1,0c-0.1-0.7-0.4-1-1.1-1c-0.2,0-0.4,0-0.6,0c-1.1-0.1-1.1-0.1-1.3-1.2
					C120.6,49.5,120.6,49.5,120.6,49.4z M117.1,51c0.6-0.1,0.6-0.1,0.6-0.6c0.1-1.1-0.1-2.2,0-3.3c0-0.1,0-0.2-0.2-0.2
					c-0.1,1-0.2,2.1-0.1,3.1C117.5,50.3,117.5,50.7,117.1,51z"/>
				<path class="st1" d="M145.2,58.2c-0.1-1.7-0.4-3.3-0.5-5c0-0.8-0.4-1.5-0.3-2.3c0-0.8-0.1-1.6,0.1-2.4c0.1-0.4,0.3-0.6,0.6-0.7
					c1-0.3,2-0.4,3.1-0.1c0.3,0.1,0.5,0.2,0.7,0.4c0.2,0.3,0.4,0.3,0.7,0.1c0.6-0.3,1.2-0.5,1.9-0.7c0.4-0.1,0.7-0.1,1.1,0
					c2.7,0.5,4.2,2.4,4.6,4.8c0.1,0.6,0.2,1.1,0.4,1.7c0.4,1.8,0.7,3.7,0.3,5.5c-0.1,0.7-0.5,1.2-1.1,1.6c-0.9,0.5-1.8,0.6-2.7,0.2
					c-0.3-0.1-0.5-0.3-0.6-0.5c-0.5-0.6-0.7-1.2-0.8-2c-0.1-1.4,0.1-2.7,0-4.1c0-0.3-0.1-0.6-0.1-0.9c-0.1-0.3-0.3-0.6-0.6-0.7
					c-0.4-0.1-0.6,0.1-0.8,0.4c-0.4,0.6-0.6,1.3-0.6,1.9c-0.1,1.3-0.2,2.6-0.4,3.9c-0.2,0.9-0.5,1.8-1.5,2.1c-0.7,0.2-1.4,0.1-2-0.3
					c-0.8-0.6-1.4-1.4-1.3-2.5C145.2,58.7,145.2,58.4,145.2,58.2z M146.2,60.2c0.1,0.2,0.2,0.4,0.4,0.5c1,0.9,2.3,0.5,2.7-0.8
					c0.3-1,0.3-2,0.4-3c0.1-1,0.1-2.1,0.4-3.1c0.4-1.2,1.5-1.6,2.5-0.8c0,0,0.1,0,0.1,0c0-0.4-0.2-0.7-0.6-0.7c-0.4,0-0.7,0-1.1-0.1
					c-0.2,0-0.4,0-0.6,0.2c-0.6,0.7-1.1,1.4-1.2,2.4c0,0.6,0,1.2,0,1.7c0,0.4,0,0.8,0,1.2c0.1,0.6,0,1.2-0.2,1.8
					c-0.2,0.9-1.3,1.4-2.1,0.9C146.7,60.5,146.5,60.2,146.2,60.2c-0.1-0.3-0.2-0.5-0.1-0.8c0-0.4,0-0.8-0.1-1.2
					c-0.2-0.8-0.2-1.7-0.2-2.5c0-1.7-0.2-3.5-0.5-5.2c-0.1-0.4-0.1-0.9,0-1.3c0.1-0.4,0.2-0.5,0.7-0.6c0.2,0,0.4-0.1,0.6-0.1
					c1-0.1,1.8,0.2,1.9,1.1c0,0.1,0,0.3,0.3,0.3c-0.1-0.3-0.2-0.6-0.3-0.9c-0.1-0.3-0.3-0.5-0.5-0.5c-0.6-0.2-1.2-0.2-1.8-0.1
					c-1.1,0.2-1.2,0.3-1.3,1.5c0,0.1,0,0.2,0,0.4c0,0.9,0.2,1.7,0.3,2.5c0.1,2.1,0.5,4.1,0.6,6.1c0,0.2,0,0.4,0,0.6
					C145.8,59.7,146,60,146.2,60.2z M153.2,54.8c0,0.9,0,1.9-0.1,2.8c0,0.6-0.1,1.2,0,1.7c0.1,1,0.6,1.6,1.7,1.7
					c0.5,0,0.9-0.1,1.3-0.3c0.6-0.2,0.9-0.7,1-1.3c0.2-1.4,0.2-2.8-0.1-4.1c-0.2-1.1-0.6-2.1-0.7-3.2c0-0.5-0.2-0.7-0.5-1
					c0.3,0.5,0.3,0.9,0.4,1.4c0.2,1.3,0.3,2.7,0.4,4c0.1,0.9,0.2,1.8,0.3,2.7c0,0.9-0.6,1.5-1.5,1.4c-0.2,0-0.4,0-0.6,0
					c-0.8,0-1.4-0.7-1.4-1.5c0-0.3,0.1-0.6,0.1-0.9C153.7,57,153.6,55.9,153.2,54.8z M154.8,49.6c-0.4-0.7-1-0.9-1.6-1.1
					c-0.5-0.2-1-0.3-1.5-0.2c-0.7,0.1-1.4,0.4-2,0.7c-0.3,0.1-0.4,0.3-0.5,0.6c0.2,0.1,0.3,0,0.4,0c0.5-0.2,1-0.4,1.5-0.5
					c0.7-0.2,1.4,0,2.1-0.1c0.2,0,0.4,0.1,0.6,0.2C154.2,49.3,154.5,49.4,154.8,49.6z"/>
				<path class="st1" d="M54.9,38c0.2,1.7,0.1,3.4,0.1,5c0,1.3-0.1,2.5-0.1,3.8c0,1.1-0.1,2.2-0.1,3.4c0,0.7,0,1.5,0,2.2
					c0,1-0.2,1.9-0.1,2.9c0,0.7,0,1.5-0.1,2.2c-0.1,1.3-0.8,2.3-2.1,2.8c-1,0.4-1.9,0.2-2.8-0.4c-0.3-0.2-0.5-0.5-0.6-0.9
					c-0.4-1.2-0.5-2.5-0.4-3.8c0-0.4,0-0.7-0.1-1.1c-0.1-1.4,0-2.8,0-4.2c0-1.8,0.2-3.6,0.1-5.3c0-1.6,0-3.2,0.5-4.7
					c0.1-0.3,0.1-0.7,0.1-1.1c0-0.7,0.1-1.3,0.3-2c0.2-0.9,0.8-1.5,1.8-1.7c0.8-0.2,1.6-0.1,2.3,0.1c0.6,0.1,0.9,0.5,1,1.1
					C54.8,36.8,54.8,37.4,54.9,38z M50.6,36.2c0.5-0.2,0.9-0.3,1.4-0.5c0.3-0.1,0.5-0.1,0.8,0c1.1,0.5,1.3,1,1.2,2.2c0,0,0,0,0,0.1
					c-0.2,2.3-0.3,4.6-0.4,6.9c0,1.1,0,2.2-0.1,3.3c-0.1,1.9-0.3,3.7-0.2,5.6c0,0.3,0,0.6,0,0.9c0,0.3,0,0.7,0,1
					c0,0.6,0.1,1.2,0.2,1.8c0.1,0.7-0.2,1.1-0.9,1.3c-0.5,0.2-1.1-0.1-1.7,0.1c-0.1,0-0.1-0.1-0.2-0.1c-0.8-0.4-1.2-1.1-1.3-2
					c-0.1-1,0-1.9,0.1-2.9c0.2-1.8,0.3-3.5,0.3-5.3c0-1.3-0.1-2.6-0.1-3.9c0-0.8,0.1-1.6,0.2-2.3c0.1-0.9,0.2-1.7,0.3-2.6
					c0-0.5,0.1-1,0.2-1.5c0.1-0.3,0.1-0.6,0.1-0.9c0-0.1,0-0.2-0.1-0.2c-0.1,0-0.2,0.1-0.2,0.2c0,0.3-0.1,0.5-0.1,0.8
					c-0.1,0.8-0.1,1.5-0.3,2.3c-0.3,1.4-0.5,2.8-0.4,4.3c0,0.7,0,1.4,0,2c-0.1,1.6-0.2,3.2-0.2,4.8c0,1.2,0.1,2.5,0.1,3.7
					c0,1,0.1,2,0.3,3c0.2,0.7,0.5,1.1,1.2,1.4c1,0.3,2.3-0.2,2.8-1.1c0.1-0.1,0.1-0.2,0.1-0.3c0-0.5,0.1-1.1,0.2-1.6
					c0-0.9,0-1.7,0.1-2.6c0.1-0.6,0.1-1.2,0.1-1.7c0-1.5,0-3.1,0.1-4.6c0.1-1.2,0.2-2.4,0.2-3.5c0-0.9,0.1-1.9,0.1-2.8
					c0-1.6-0.2-3.2-0.3-4.8c-0.1-0.6-0.2-0.8-0.8-0.9c-0.7-0.1-1.3,0-2,0.1C51,35.7,50.8,35.9,50.6,36.2z"/>
				<path class="st1" d="M136.1,44.2c0-0.4,0-0.7,0.1-1c0.4-1.2,0.9-2.4,1.4-3.6c0.3-0.8,1.3-1.2,2.2-0.9c0.9,0.2,1.7,0.8,2.6,1.2
					c0.4,0.2,0.6,0.6,0.8,1c0.1,0.3,0,0.6,0,0.9c-0.2,0.7-0.6,1.4-1.1,1.9c-0.5,0.6-1.1,1.3-1.6,1.9c-0.5,0.5-1,1-1.8,1
					C137.3,46.5,136.2,45.5,136.1,44.2z M140,45c-0.2,0.1-0.3,0.1-0.3,0.2c-1.3,0.6-2,0.2-2.5-0.7c-0.4-0.6-0.3-1.2,0-1.8
					c0.3-0.5,0.5-1.1,0.7-1.6c0.2-0.4,0.4-0.9,0.6-1.3c0.3-0.6,0.6-0.7,1.2-0.5c0.7,0.2,1.3,0.5,1.9,1.1c0.7,0.6,0.7,1.2,0.3,1.9
					c-0.2,0.4-0.5,0.7-0.8,1c-0.3,0.3-0.3,0.5-0.3,0.9c0.4-0.6,0.9-1,1.3-1.6c0.2-0.3,0.4-0.7,0.5-1.1c0.2-0.6,0-1-0.5-1.3
					c-0.4-0.2-0.8-0.4-1.1-0.6c-0.4-0.2-0.7-0.3-1.2-0.4c-0.7-0.2-1.3,0.1-1.7,0.9c-0.5,1-0.8,2-1.2,3c-0.4,1.1-0.1,2,0.9,2.6
					C138.5,46.1,139.4,45.9,140,45z"/>
				<path class="st1" d="M94.1,55.2c0-1.1,0-2.3,0.3-3.4c0.3-1.1,0.8-2.2,1.6-3c0.7-0.7,1.3-1.6,2.2-2c1.1-0.6,2.3-1,3.6-0.4
					c0.7,0.4,1.4,0.7,2,1.2c0.2,0.2,0.4,0.2,0.7,0.1c0.9-0.4,1.7-0.1,2.4,0.4c1.6,1.1,1.8,2.6,1.6,4.3c-0.1,0.6-0.1,1.1,0.2,1.6
					c0.4,0.9,0.8,1.7,1.4,2.5c0.8,0.9,0.8,2,0.4,3.1c-0.2,0.7-1,1.1-1.7,1.1c-0.4,0-0.8,0-1.2,0c-0.4,0-0.8-0.1-1.1-0.3
					c-0.6-0.4-1.2-0.8-1.6-1.3c-0.3-0.4-0.3-0.3-0.7-0.1c-0.5,0.3-1.1,0.6-1.6,1c-0.4,0.3-0.9,0.4-1.3,0.5c-2,0.3-3.8-0.1-5.2-1.6
					c-0.3-0.3-0.5-0.6-0.8-0.9C94.5,57.2,94.1,56.3,94.1,55.2z M104,48.7c-0.1-0.3-0.2-0.6-0.5-0.7c-0.4-0.3-0.9-0.5-1.3-0.8
					c-1.2-0.8-2.4-0.6-3.6,0.1c-0.7,0.4-1.2,0.9-1.7,1.4c-1,0.9-1.5,2-1.8,3.3c-0.2,0.8-0.2,1.7-0.2,2.5c0,0.5,0,1,0.1,1.4
					c0.1,0.4,0.1,0.7,0.4,1c0.4,0.5,0.9,0.9,1.3,1.4c0.5,0.6,1.1,1,1.9,1.2c1.3,0.4,2.7,0.4,3.9-0.4c0.5-0.3,1.1-0.7,1.6-1
					c0.7-0.4,0.8-0.4,1.3,0.3c0,0.1,0.1,0.1,0.1,0.2c0.4,0.7,1.1,0.9,1.8,1.3c0.1,0.1,0.3,0.1,0.4,0.1c0.3,0,0.7,0,1,0
					c0.7,0.1,1.4-0.3,1.4-0.9c0.1-0.7,0.2-1.5-0.4-2.1c-0.6-0.6-0.9-1.4-1.3-2.2c-0.4-0.8-0.7-1.7-0.4-2.6c0.1-0.5,0.1-1.1,0-1.7
					c-0.2-0.7-0.4-1.4-1.1-1.8c-0.1-0.1-0.2-0.2-0.3-0.3c-0.6-0.5-1.1-0.5-1.7-0.1C104.5,48.6,104.3,48.7,104,48.7L104,48.7z"/>
				<path class="st1" d="M60.8,54.1c-0.2-1.4,0.3-2.7,0.9-4c0.4-1.1,0.9-2.2,1.7-3.1c0.2-0.2,0.3-0.4,0.5-0.6
					c0.2-0.1,0.4-0.3,0.4-0.5c0.2-0.5,0.6-0.7,1-0.9c1.1-0.5,2.2-0.7,3.5-0.6c0.7,0.1,1.3,0.3,2,0.6c0.8,0.3,1.6,0.7,2.3,1.4
					c0.4,0.5,1,0.8,1.5,1.2c0.2,0.1,0.4,0.3,0.4,0.5c0,0.5,0.2,1,0.4,1.4c0.4,0.9,0.5,1.8,0.7,2.6c0.2,0.8,0.1,1.7-0.1,2.5
					c-0.2,0.7-0.4,1.4-0.7,2.1c-1,2.3-2.8,3.5-5.2,4.1c-0.6,0.1-1.2,0.3-1.8,0.3c-0.3,0-0.6,0-0.9-0.1c-0.6-0.1-1.1-0.4-1.7-0.4
					c-0.4,0-0.7-0.3-1-0.5c-0.5-0.4-1-0.9-1.6-1.1c-0.6-0.3-1-0.8-1.3-1.4C61.3,56.4,60.8,55.3,60.8,54.1z M74.8,49.8
					c0-0.4-0.3-0.8-0.4-1.2c-0.1-0.5-0.5-0.9-0.9-1.2c-0.4-0.3-0.8-0.6-1.2-0.9c-1-0.9-2.2-1.2-3.4-1.5c-0.9-0.2-1.8,0-2.7,0.3
					c-0.4,0.1-0.7,0.2-1,0.5c-0.8,0.8-1.6,1.7-2.1,2.7c-0.5,0.9-0.9,1.9-1.3,2.9c-0.2,0.7-0.4,1.5-0.4,2.2c0,1.2,0.4,2.3,0.8,3.3
					c0.2,0.6,0.6,1,1.1,1.4c0.3,0.2,0.7,0.3,0.9,0.6c0.7,0.7,1.5,1.1,2.4,1.3c0.7,0.1,1.4,0.4,2.1,0.1c0.1,0,0.2,0,0.3,0
					c0.9,0.1,1.8-0.3,2.5-0.7c2.3-1.2,3.3-3.4,3.8-5.8c0.2-0.9,0-1.8-0.2-2.6C75.1,50.7,75.1,50.2,74.8,49.8L74.8,49.8z"/>
				<path class="st1" d="M133.9,47.1c1-0.1,1.6,0,2.3,0.2c0.7,0.3,1.5,0.3,2.1,0.8c0.9,0.8,1.8,1.5,2.4,2.7c0.4,0.8,0.7,1.7,0.8,2.6
					c0,0.5,0.2,0.9,0.2,1.4c0.1,0.7,0.1,1.4-0.2,2.2c-0.2,0.6-0.3,1.2-0.5,1.8c-0.5,1.4-1.4,2.4-2.7,3c-1.7,0.8-3.4,0.4-5-0.3
					c-1.5-0.7-2.5-1.9-3.3-3.3c-0.6-1.1-1.1-2.4-1.2-3.7c0-0.2,0-0.4-0.1-0.6c-0.4-1.2,0-2.2,0.5-3.2c0.3-0.5,0.6-1.1,1-1.6
					C131.2,47.8,132.6,47.2,133.9,47.1z M134.3,47.7c-0.2,0-0.3,0-0.4,0c-1,0.1-1.9,0.4-2.7,1.2c-0.5,0.5-0.9,1.1-1.3,1.7
					c-0.6,1-0.9,2.1-0.5,3.3c0,0.1,0,0.2,0,0.4c0.1,1.5,0.7,2.9,1.5,4.1c0.9,1.3,2,2.3,3.5,2.8c1.1,0.4,2.2,0.5,3.4,0
					c1.4-0.6,2.3-1.6,2.7-3c0.2-0.6,0.3-1.1,0.5-1.7c0.2-0.6,0.3-1.3,0.1-2c-0.1-0.5-0.2-1-0.3-1.5c0-0.5-0.2-1-0.4-1.4
					c-0.1-0.2-0.2-0.4-0.3-0.6c-0.3-0.7-0.8-1.3-1.3-1.8c-0.4-0.4-0.8-0.8-1.4-1c-0.5-0.2-1-0.3-1.5-0.5
					C135.2,47.7,134.7,47.6,134.3,47.7z"/>
				<path class="st2" d="M33.7,39.5c0.2-0.7,0.4-1.3,0.9-1.8c0.5-0.6,0.8-1.3,1.5-1.8c0.3-0.2,0.6-0.4,0.9-0.6
					c0.6-0.3,1.2-0.4,1.8-0.2c0.5,0.2,1.1,0.1,1.5,0.5c0.5,0.4,0.9,0.9,1.2,1.4c0.7,1.3,1.2,2.7,1.5,4.1c0.2,0.9,0.1,1.7-0.6,2.3
					c-0.3,0.2-0.6,0.4-0.9,0.4C41,43.9,40.7,44,40.3,44c-0.5,0.1-0.8-0.2-1.2-0.5c-0.2-0.2-0.4-0.4-0.7-0.7c-0.7-0.6-1.5-0.5-2,0.2
					c-0.2,0.2-0.3,0.5-0.4,0.8c-0.3,1.3-0.5,2.6-0.4,4c0.1,0.8,0.3,1,1.1,0.9c0.8-0.1,1.1,0.1,1.3,0.9c0.2,0.6,0.2,1.3,0.2,2
					c0,0.8-0.2,1.1-1,1.3c-0.1,0-0.2,0-0.3,0.1c-0.5,0.2-0.8,0.4-0.8,1c0,0.7,0,1.3,0,2c0,1.1-0.1,2.3-0.1,3.4c0,0.1,0,0.2-0.1,0.4
					c-0.1,0.9-0.6,1.3-1.5,1.5c-0.9,0.2-1.8,0.3-2.7,0.2c-0.6-0.1-0.9-0.3-1-0.9c-0.1-0.4-0.1-0.9-0.1-1.4c0-1.1,0-2.2,0.1-3.3
					c0.1-0.4,0-0.7,0-1.1c-0.1-0.5-0.3-0.8-0.9-0.8c-1.2-0.1-1.5-0.5-1.6-1.6c0-0.6,0-1.1,0.1-1.7c0.1-0.6,0.6-1,1.2-1
					c0.4,0,0.7,0,1.1-0.2c0.5-0.2,0.6-0.2,0.7-0.7c0.1-1.2,0.3-2.4,0.6-3.6c0-0.2,0.1-0.4,0.3-0.7c0.1,0.5,0,1-0.1,1.4
					c-0.3,1-0.2,2.1-0.3,3.1c0,0.4-0.2,0.5-0.5,0.6c-0.5,0.1-1.1,0.2-1.6,0.3c-0.4,0.1-0.6,0.2-0.8,0.6c-0.3,0.6-0.4,1.2-0.1,1.9
					c0.1,0.2,0.1,0.3,0.1,0.5c0.1,0.6,0.4,0.7,0.9,0.7c0.4,0,0.8,0,1.2,0c0.5,0,0.6,0,0.5,0.6c-0.1,0.7-0.1,1.4,0,2.1
					c0,0.2,0,0.5-0.1,0.7c-0.2,0.9-0.1,1.9-0.3,2.8c-0.1,0.5,0.1,0.6,0.7,0.7c0.8,0.1,1.6,0.1,2.4,0.1c0.9,0,1.7-0.7,1.6-1.8
					c-0.1-0.7-0.1-1.4-0.1-2.1c0-0.8-0.1-1.7-0.1-2.5c0-0.1,0-0.2,0-0.4c0-0.8,0.1-0.8,0.8-1c1.2-0.3,1.6-0.7,1.4-2
					c-0.1-0.5-0.1-1-0.4-1.5c-0.3-0.4-0.7-0.5-1.1-0.4c-1,0.2-1.1,0.2-1-0.8c0-1.4,0.1-2.8,0.5-4.1c0.2-0.7,0.6-1.3,1.1-1.8
					c0.5-0.5,1.1-0.5,1.6,0.1c0.3,0.3,0.4,0.7,0.7,0.8c0.5,0.3,1,0.4,1.6,0.3c0.6-0.1,1.1-0.4,1.6-0.8c0.4-0.3,0.5-0.8,0.3-1.3
					c-0.3-0.6-0.4-1.3-0.6-2c-0.2-0.6-0.5-1.1-0.6-1.7c-0.6-0.6-0.9-1.5-1.8-1.7c-0.3,0-0.5-0.3-0.7-0.3c-0.6-0.2-1.2,0-1.7,0.2
					c-1,0.3-1.7,0.8-2.2,1.7C34.6,38.1,34.1,38.7,33.7,39.5z"/>
				<path class="st2" d="M85.9,39c0.1,0.7,0.2,1.4,0.1,2.1c0,0.2,0,0.3,0,0.5c0.1,0.5,0.2,0.7,0.8,0.8c0.3,0,0.6,0,0.9,0.1
					c0.8,0,1.4,0.3,1.9,0.9c0.5,0.6,0.5,1.8,0,2.3c-0.2,0.3-0.6,0.4-1,0.4c-0.5,0-1.1,0.2-1.6,0.4c-0.3,0.1-0.4,0.3-0.4,0.6
					c0,1.8,0.1,3.5,0.3,5.3c0.1,1.2,0.3,2.4,0.3,3.7c0,0.8-0.1,1.6-0.5,2.4c-0.1,0.2-0.2,0.4-0.5,0.5c-0.1-0.2,0-0.3,0.1-0.4
					c0.4-0.4,0.5-0.9,0.4-1.5c0-0.6,0-1.3-0.2-1.9c-0.1-0.4,0-0.7,0-1.1c-0.1-1.1-0.1-2.2-0.1-3.4c0-1.3,0.1-2.5-0.1-3.8
					c-0.1-1-0.1-1,0.9-1c0.3,0,0.6,0,0.9,0c0.8,0,1.1-0.2,1.3-0.9c0.2-0.5,0-1.1-0.4-1.5c-0.4-0.4-0.9-0.6-1.6-0.6
					c-0.4,0-0.8,0-1.2-0.1c-0.5-0.1-0.5-0.1-0.5-0.6C85.8,41.1,85.8,40,85.9,39z"/>
				<path class="st2" d="M82.3,42.6c0.4-0.4,0.5-0.8,0.5-1.3c0-1.2,0-2.4-0.2-3.5c-0.2-1.5,1-2.4,2.4-2c0.9,0.3,1.3,1.3,0.9,2.2
					c-0.2-0.1-0.1-0.3-0.1-0.5c0-0.3-0.1-0.6-0.2-0.8c-0.2-0.5-0.7-0.8-1.2-0.7c-0.2,0-0.4,0.1-0.5,0.1c-0.7,0.3-1,0.1-0.9,1.3
					c0.1,1.5,0,3.1,0.2,4.7c0,0.4,0,0.5-0.4,0.5C82.5,42.5,82.4,42.5,82.3,42.6z"/>
				<path class="st2" d="M83.6,58.7c-0.3-0.2-0.3-0.5-0.3-0.7c-0.1-1-0.2-2.1-0.2-3.1c0-0.4,0-0.7,0-1.1c-0.1-1.3-0.1-2.6,0-3.9
					c0-0.5,0-1,0.1-1.5C83.5,51.8,83.6,55.2,83.6,58.7z"/>
				<path class="st2" d="M80.8,42.4c-0.4,0-0.8,0.2-1.2,0.4c-0.8,0.5-0.9,1.4-0.4,2.1c0.2,0.2,0.4,0.4,0.6,0.4
					c0.6,0.1,1.2,0.2,1.8,0.1c0.4-0.1,0.8-0.1,1.2-0.1c0.1,0,0.2,0.1,0.2,0.2c0,0.1-0.1,0.2-0.2,0.2c-0.9-0.1-1.7,0.2-2.5,0.1
					c-0.2,0-0.4,0-0.6-0.1c-0.3-0.1-0.6-0.3-0.7-0.7c-0.1-0.3-0.2-0.6-0.2-1C78.7,42.9,79.6,42.1,80.8,42.4z"/>
				<path class="st2" d="M120.6,48.8c0-1.6,0.2-3.1,0.4-4.6c0-0.1,0-0.2,0.1-0.2c0.1-0.4,0.5-0.5,0.9-0.2c0.2,0.2,0.4,0.5,0.5,0.8
					c0.6,0.8,1.5,0.9,2.3,0.3c0.4-0.4,0.6-1.2,0.3-1.9c-0.7-1.7-2-2.8-3.5-3.6c-0.1,0-0.2-0.1-0.3-0.1c-0.6,0.1-1.3,0.1-1.8,0.5
					c-0.5,0.4-0.9,0.8-1.3,1.5c-0.1-0.3,0.1-0.4,0.1-0.6c0.1-0.2,0.1-0.3,0.2-0.4c0.2-0.4,0.6-0.7,0.9-1.1c0.1-0.1,0.2-0.2,0.3-0.2
					c0.9-0.2,1.8-0.2,2.6,0.4c0.8,0.6,1.4,1.4,2.2,2c0.2,0.2,0.4,0.5,0.5,0.8c0.1,0.3,0.2,0.7,0.3,1c0.1,0.3,0.3,0.7,0.1,1
					c-0.3,0.5-0.5,1-1,1.3c-0.5,0.3-1,0.2-1.5-0.2c-0.3-0.2-0.6-0.5-0.9-0.8c-0.4-0.3-0.7-0.3-0.7,0.3c-0.1,0.7-0.2,1.5-0.3,2.2
					C121,47.6,120.9,48.2,120.6,48.8z"/>
				<path class="st2" d="M123.1,53.6c-0.1,0.2-0.3,0.1-0.5,0.2c-1.1,0.3-1.6,1.1-1.2,2.1c0.4,1.2,0,2.3-0.4,3.4
					c-0.3,0.9-1.4,1.5-2.5,1c-0.3-0.1-0.5-0.3-0.5-0.6c-0.1-0.4-0.2-0.8-0.2-1.2c-0.1-1.1-0.2-2.2-0.3-3.3c-0.1-0.7-0.4-0.9-1-0.9
					c-0.1,0-0.2,0-0.3,0c-1,0-1.5-0.7-1.3-1.7c0.1,0,0.1,0.2,0.1,0.2c0.3,0.9,0.9,1.3,1.7,1.3c0.1,0,0.3,0,0.4,0
					c0.6,0.1,0.6,0.1,0.6,0.7c0.1,1,0.2,2.1,0.2,3.1c0,0.5,0,1,0.1,1.4c0.1,0.8,0.4,1,1.2,0.9c0.6-0.1,1-0.4,1.3-1
					c0.4-1,0.2-1.9,0.2-2.9c0-0.7,0-1.3-0.1-2c0-0.3,0.1-0.5,0.4-0.5c0.6,0,1.2-0.2,1.8-0.4C123,53.5,123,53.6,123.1,53.6z"/>
				<path class="st2" d="M120.6,49.4c0,0.1,0.1,0.1,0.1,0.1c0.2,1.1,0.2,1.1,1.3,1.2c0.2,0,0.4,0,0.6,0c0.7,0,0.9,0.3,1.1,1
					c0,0-0.1,0-0.1,0c-0.4-0.6-0.9-0.9-1.7-0.8c-0.2,0-0.5,0-0.7,0c-0.4,0-0.4-0.1-0.4-0.4C120.5,50.2,120.5,49.8,120.6,49.4z"/>
				<path class="st2" d="M117.1,51c0.4-0.2,0.4-0.6,0.4-1c-0.1-1,0-2.1,0.1-3.1c0.2,0,0.2,0.1,0.2,0.2c-0.1,1.1,0.1,2.2,0,3.3
					C117.6,50.9,117.7,50.9,117.1,51z"/>
				<path class="st2" d="M153.2,54.8c0.3,1.1,0.4,2.2,0.3,3.4c0,0.3-0.1,0.6-0.1,0.9c-0.1,0.8,0.5,1.5,1.4,1.5c0.2,0,0.4,0,0.6,0
					c0.9,0,1.5-0.5,1.5-1.4c0-0.9-0.2-1.8-0.3-2.7c-0.1-1.3-0.2-2.7-0.4-4c-0.1-0.5-0.1-0.9-0.4-1.4c0.3,0.3,0.5,0.6,0.5,1
					c0.1,1.1,0.4,2.1,0.7,3.2c0.3,1.4,0.3,2.8,0.1,4.1c-0.1,0.6-0.4,1.1-1,1.3c-0.4,0.2-0.8,0.3-1.3,0.3c-1.1-0.1-1.6-0.7-1.7-1.7
					c-0.1-0.6,0-1.2,0-1.7C153.2,56.7,153.2,55.7,153.2,54.8z"/>
				<path class="st2" d="M146.2,60.2c0.3,0.1,0.5,0.3,0.7,0.5c0.8,0.5,1.9,0,2.1-0.9c0.1-0.6,0.2-1.2,0.2-1.8c0-0.4,0-0.8,0-1.2
					c0-0.6,0-1.2,0-1.7c0.1-1,0.6-1.7,1.2-2.4c0.1-0.2,0.4-0.2,0.6-0.2c0.4,0,0.7,0,1.1,0.1c0.4,0,0.6,0.3,0.6,0.7
					c-0.1,0-0.1,0-0.1,0c-1-0.8-2.1-0.4-2.5,0.8c-0.3,1-0.4,2-0.4,3.1c-0.1,1-0.1,2-0.4,3c-0.4,1.3-1.7,1.7-2.7,0.8
					C146.5,60.5,146.3,60.4,146.2,60.2L146.2,60.2z"/>
				<path class="st2" d="M146.2,60.2c-0.3-0.2-0.4-0.4-0.4-0.7c0-0.2,0-0.4,0-0.6c-0.1-2.1-0.4-4.1-0.6-6.1
					c-0.1-0.8-0.3-1.7-0.3-2.5c0-0.1,0-0.2,0-0.4c0-1.2,0.2-1.3,1.3-1.5c0.6-0.1,1.2-0.1,1.8,0.1c0.3,0.1,0.5,0.3,0.5,0.5
					c0.1,0.3,0.1,0.6,0.3,0.9c-0.2,0-0.2-0.2-0.3-0.3c-0.1-0.9-0.9-1.2-1.9-1.1c-0.2,0-0.4,0.1-0.6,0.1c-0.5,0-0.6,0.1-0.7,0.6
					c-0.1,0.4,0,0.9,0,1.3c0.3,1.7,0.5,3.4,0.5,5.2c0,0.8,0,1.7,0.2,2.5c0.1,0.4,0.1,0.8,0.1,1.2C146.1,59.6,146.1,59.9,146.2,60.2
					L146.2,60.2z"/>
				<path class="st2" d="M154.8,49.6c-0.3-0.2-0.6-0.3-0.9-0.5c-0.2-0.1-0.4-0.2-0.6-0.2c-0.7,0.1-1.4-0.1-2.1,0.1
					c-0.5,0.1-1,0.3-1.5,0.5c-0.1,0.1-0.3,0.2-0.4,0c0-0.3,0.2-0.5,0.5-0.6c0.6-0.3,1.3-0.5,2-0.7c0.5-0.1,1,0.1,1.5,0.2
					C153.8,48.7,154.5,48.9,154.8,49.6z"/>
				<path class="st2" d="M50.6,36.2c0.2-0.4,0.4-0.6,0.7-0.6c0.7-0.1,1.3-0.2,2-0.1c0.6,0.1,0.8,0.3,0.8,0.9
					c0.1,1.6,0.3,3.2,0.3,4.8c0,0.9-0.1,1.9-0.1,2.8c0,1.2-0.1,2.4-0.2,3.5C54,49.2,54,50.7,54,52.2c0,0.6,0,1.2-0.1,1.7
					c-0.1,0.9-0.1,1.7-0.1,2.6c0,0.5-0.1,1.1-0.2,1.6c0,0.1-0.1,0.2-0.1,0.3c-0.5,0.9-1.9,1.4-2.8,1.1c-0.7-0.2-1.1-0.7-1.2-1.4
					c-0.2-1-0.3-2-0.3-3c0-1.2-0.1-2.5-0.1-3.7c0-1.6,0.1-3.2,0.2-4.8c0-0.7,0.1-1.4,0-2c-0.1-1.4,0.1-2.9,0.4-4.3
					c0.2-0.8,0.2-1.5,0.3-2.3c0-0.3,0.1-0.5,0.1-0.8c0-0.1,0.1-0.2,0.2-0.2c0.1,0,0.1,0.1,0.1,0.2c0,0.3-0.1,0.6-0.1,0.9
					c-0.1,0.5-0.1,1-0.2,1.5c-0.1,0.9-0.2,1.7-0.3,2.6c-0.1,0.8-0.2,1.6-0.2,2.3c0,1.3,0.1,2.6,0.1,3.9c0,1.8-0.1,3.5-0.3,5.3
					c-0.1,0.9-0.2,1.9-0.1,2.9c0.1,0.9,0.5,1.6,1.3,2c0.1,0,0.2,0.1,0.2,0.1c0.6-0.2,1.1,0.1,1.7-0.1c0.7-0.2,1-0.6,0.9-1.3
					c-0.1-0.6-0.2-1.2-0.2-1.8c0-0.3,0-0.7,0-1c0-0.3,0.1-0.6,0-0.9c-0.1-1.9,0-3.7,0.2-5.6c0.1-1.1,0-2.2,0.1-3.3
					c0.1-2.3,0.1-4.6,0.4-6.9c0,0,0,0,0-0.1c0.1-1.2-0.2-1.7-1.2-2.2c-0.3-0.1-0.5-0.1-0.8,0C51.5,35.9,51.1,36.1,50.6,36.2z"/>
				<path class="st2" d="M140,45c-0.6,0.8-1.5,1-2.3,0.6c-1-0.6-1.3-1.4-0.9-2.6c0.4-1,0.7-2,1.2-3c0.4-0.8,1-1.1,1.7-0.9
					c0.4,0.1,0.8,0.2,1.2,0.4c0.4,0.2,0.7,0.4,1.1,0.6c0.6,0.3,0.7,0.7,0.5,1.3c-0.1,0.4-0.3,0.7-0.5,1.1c-0.4,0.6-0.8,1-1.3,1.6
					c0-0.4,0.1-0.6,0.3-0.9c0.3-0.3,0.6-0.6,0.8-1c0.4-0.8,0.3-1.3-0.3-1.9c-0.5-0.5-1.2-0.8-1.9-1.1c-0.6-0.2-0.9-0.1-1.2,0.5
					c-0.2,0.4-0.4,0.8-0.6,1.3c-0.2,0.6-0.5,1.1-0.7,1.6c-0.3,0.6-0.4,1.1,0,1.8c0.6,0.9,1.2,1.3,2.5,0.7
					C139.7,45.2,139.8,45.1,140,45z"/>
				<path class="st2" d="M104,48.7c0.3,0,0.6-0.1,0.8-0.3c0.6-0.4,1.1-0.4,1.7,0.1c0.1,0.1,0.2,0.2,0.3,0.3c0.7,0.4,1,1.1,1.1,1.8
					c0.1,0.5,0.2,1.1,0,1.7c-0.2,1,0,1.8,0.4,2.6c0.4,0.8,0.7,1.5,1.3,2.2c0.5,0.6,0.5,1.4,0.4,2.1c-0.1,0.6-0.7,1-1.4,0.9
					c-0.3,0-0.7-0.1-1,0c-0.1,0-0.3,0-0.4-0.1c-0.6-0.4-1.3-0.7-1.8-1.3c0-0.1-0.1-0.1-0.1-0.2c-0.5-0.7-0.6-0.7-1.3-0.3
					c-0.5,0.3-1.1,0.7-1.6,1c-1.2,0.7-2.6,0.7-3.9,0.4c-0.8-0.2-1.4-0.6-1.9-1.2c-0.4-0.5-0.9-1-1.3-1.4c-0.3-0.3-0.4-0.7-0.4-1
					c-0.1-0.5-0.1-0.9-0.1-1.4c0.1-0.8,0-1.7,0.2-2.5c0.3-1.2,0.9-2.4,1.8-3.3c0.5-0.5,1-1.1,1.7-1.4c1.2-0.7,2.4-0.8,3.6-0.1
					c0.4,0.3,0.9,0.5,1.3,0.8C103.7,48.1,103.9,48.4,104,48.7c-0.6-0.6-1.3-0.9-2-1.3c-0.5-0.3-1-0.3-1.5-0.4
					c-1.4-0.1-2.2,0.8-3.2,1.6c-0.7,0.5-1,1.4-1.4,2.2c-0.7,1.5-0.7,3.2-0.4,4.8c0.1,0.7,0.4,1.4,0.8,2c1.1,1.4,2.7,2,4.5,1.8
					c0.6-0.1,1.2-0.3,1.8-0.6c0.8-0.4,1.4-0.8,1.8-1.7c0.1-0.2,0.2-0.3,0.3-0.5c0.1-0.2,0.2-0.1,0.3,0c0.1,0.1,0.1,0.2,0.2,0.3
					c0.2,0.5,0.5,0.9,0.7,1.4c0.1,0.2,0.2,0.4,0.4,0.5c0.5,0.3,1.1,0.5,1.6,0.8c0.5,0.2,1.1,0.2,1.6-0.1c0.1-0.1,0.3-0.2,0.3-0.3
					c0.1-0.4,0.2-0.8-0.1-1.2c-0.2-0.3-0.4-0.7-0.7-0.9c-0.3-0.3-0.4-0.6-0.6-1c-0.2-0.7-0.4-1.3-0.6-2c-0.1-0.3-0.1-0.6-0.2-0.9
					c-0.1-0.9-0.1-1.9-0.1-2.8c0-0.2,0-0.4-0.1-0.5c-0.4-0.3-0.8-0.8-1.3-1c-0.2-0.1-0.5-0.1-0.7,0c-0.2,0.1-0.4,0.2-0.6,0.2
					C104.2,49.2,104.2,49.2,104,48.7z"/>
				<path class="st2" d="M74.8,49.8c0.3,0.4,0.3,0.8,0.4,1.2c0.2,0.9,0.4,1.7,0.2,2.6c-0.5,2.4-1.4,4.6-3.8,5.8
					c-0.8,0.4-1.6,0.8-2.5,0.7c-0.1,0-0.2,0-0.3,0c-0.7,0.3-1.4,0.1-2.1-0.1c-0.9-0.2-1.8-0.6-2.4-1.3c-0.2-0.2-0.6-0.4-0.9-0.6
					c-0.5-0.3-0.9-0.8-1.1-1.4c-0.4-1.1-0.8-2.1-0.8-3.3c0-0.8,0.2-1.5,0.4-2.2c0.3-1,0.8-2,1.3-2.9c0.5-1,1.3-1.9,2.1-2.7
					c0.3-0.3,0.6-0.4,1-0.5c0.9-0.3,1.8-0.5,2.7-0.3c1.2,0.3,2.5,0.6,3.4,1.5c0.4,0.3,0.8,0.6,1.2,0.9c0.4,0.3,0.7,0.7,0.9,1.2
					C74.5,49,74.8,49.4,74.8,49.8c-0.2-0.2-0.3-0.4-0.4-0.6c-0.2-0.4-0.3-0.9-0.6-1.2c-0.5-0.7-1.2-1.1-1.9-1.5
					c-0.6-0.4-1.3-0.6-1.9-1c-0.2-0.2-0.5-0.2-0.8-0.2c-1.1-0.1-2.2,0-3.3,0.6c-1,0.5-1.8,1.2-2.3,2.1c-0.5,0.9-0.9,1.8-1.2,2.8
					c-0.3,1-0.3,2-0.3,3.1c0.1,1,0.5,2,0.9,2.9c0.3,0.7,0.7,1.3,1.4,1.8c1,0.7,2,1.2,3.2,1.3c1,0.1,2-0.2,3-0.3
					c0.1,0,0.2-0.1,0.3-0.1c0.7-0.3,1.4-0.6,1.8-1.3c0-0.1,0.1-0.1,0.2-0.2c0.4-0.2,0.6-0.5,0.8-0.8c0.3-0.4,0.5-0.8,0.7-1.3
					c0.4-0.9,0.6-1.8,0.7-2.8C75.2,52.1,75.1,50.9,74.8,49.8z"/>
				<path class="st2" d="M134.3,47.7c0.5-0.2,1,0,1.5,0.1c0.5,0.1,1,0.3,1.5,0.5c0.6,0.2,0.9,0.6,1.4,1c0.6,0.5,1.1,1.1,1.3,1.8
					c0.1,0.2,0.2,0.4,0.3,0.6c0.2,0.4,0.4,0.9,0.4,1.4c0,0.5,0.2,1,0.3,1.5c0.2,0.7,0.1,1.3-0.1,2c-0.2,0.6-0.3,1.1-0.5,1.7
					c-0.4,1.4-1.3,2.4-2.7,3c-1.1,0.5-2.3,0.4-3.4,0c-1.5-0.5-2.7-1.5-3.5-2.8c-0.9-1.2-1.4-2.6-1.5-4.1c0-0.1,0-0.3,0-0.4
					c-0.4-1.2,0-2.2,0.5-3.3c0.4-0.6,0.8-1.2,1.3-1.7c0.7-0.7,1.7-1,2.7-1.2C134,47.8,134.1,47.7,134.3,47.7z M134.4,48.3
					c-0.8,0-1.7,0.3-2.7,0.8c-0.2,0.1-0.5,0.3-0.6,0.5c-1,1.3-1.8,2.7-1.4,4.5c0.2,1.1,0.4,2.2,1,3.2c0.4,0.7,0.9,1.5,1.5,2.1
					c1.5,1.5,3.4,1.9,5.4,1.3c0.2,0,0.4-0.1,0.5-0.2c0.9-0.6,1.6-1.3,2-2.4c0.2-0.5,0.3-1,0.4-1.6c0.3-2.6-0.1-5-2-6.9
					c-0.6-0.6-1.2-1.2-2.1-1.3C135.8,48.2,135.2,48.3,134.4,48.3z"/>
				<path class="st1" d="M104,48.7c0.2,0.5,0.2,0.5,0.7,0.3c0.2-0.1,0.4-0.2,0.6-0.2c0.2-0.1,0.5-0.1,0.7,0c0.5,0.2,0.9,0.6,1.3,1
					c0.2,0.1,0.1,0.3,0.1,0.5c0,0.9,0,1.9,0.1,2.8c0,0.3,0.1,0.6,0.2,0.9c0.2,0.7,0.4,1.3,0.6,2c0.1,0.4,0.3,0.7,0.6,1
					c0.3,0.3,0.5,0.6,0.7,0.9c0.3,0.4,0.2,0.8,0.1,1.2c0,0.2-0.2,0.3-0.3,0.3c-0.5,0.3-1,0.3-1.6,0.1c-0.6-0.2-1.1-0.5-1.6-0.8
					c-0.2-0.1-0.3-0.3-0.4-0.5c-0.2-0.5-0.5-0.9-0.7-1.4c0-0.1-0.1-0.2-0.2-0.3c-0.1-0.1-0.2-0.2-0.3,0c-0.1,0.2-0.2,0.3-0.3,0.5
					c-0.3,0.8-1,1.3-1.8,1.7c-0.6,0.3-1.2,0.5-1.8,0.6c-1.8,0.2-3.4-0.4-4.5-1.8c-0.5-0.6-0.7-1.3-0.8-2c-0.3-1.6-0.3-3.3,0.4-4.8
					c0.3-0.8,0.7-1.6,1.4-2.2c1-0.7,1.8-1.7,3.2-1.6c0.5,0,1,0.1,1.5,0.4C102.6,47.8,103.4,48.1,104,48.7L104,48.7z M99,54.5
					c0,0.3,0.1,0.6,0.2,0.9c0.4,0.8,1.4,0.8,1.8,0.1c0.4-0.7,0.8-1.5,0.9-2.4c0.1-0.6-0.1-1.2-0.4-1.6c-0.3-0.4-0.9-0.5-1.2-0.1
					C99.4,52.2,99,53.3,99,54.5z M100.9,56.5c0.5-0.2,0.8-0.4,1.1-0.9c0.3-0.6,0.6-1.3,0.7-2.1c0.1-1-0.2-1.8-0.7-2.7
					c-0.2-0.3-0.4-0.5-0.8-0.5c-0.3,0-0.6-0.1-0.9,0c-0.5,0.1-0.9,0.3-1.1,0.7c-0.4,0.8-0.7,1.6-0.9,2.4c-0.1,0.4-0.1,0.8,0.1,1.3
					c0-0.2,0.1-0.2,0.1-0.3c-0.1-0.7,0.2-1.4,0.4-2.1c0.2-0.7,0.6-1.2,1.2-1.6c0.6-0.4,1.3-0.4,1.8,0.2c0.5,0.6,0.8,1.3,0.7,2.1
					C102.3,54.4,101.8,55.5,100.9,56.5z"/>
				<path class="st1" d="M74.8,49.8c0.3,1.1,0.4,2.2,0.4,3.4c-0.1,1-0.3,1.9-0.7,2.8c-0.2,0.5-0.4,0.9-0.7,1.3
					c-0.2,0.3-0.4,0.6-0.8,0.8c-0.1,0-0.2,0.1-0.2,0.2c-0.5,0.6-1.1,0.9-1.8,1.3c-0.1,0-0.2,0.1-0.3,0.1c-1,0.1-2,0.4-3,0.3
					c-1.2-0.1-2.3-0.6-3.2-1.3c-0.6-0.5-1.1-1.1-1.4-1.8c-0.3-1-0.8-1.9-0.9-2.9c-0.1-1,0-2.1,0.3-3.1c0.3-1,0.7-1.9,1.2-2.8
					c0.5-0.9,1.3-1.6,2.3-2.1c1-0.5,2.1-0.6,3.3-0.6c0.3,0,0.6,0.1,0.8,0.2c0.6,0.4,1.3,0.6,1.9,1c0.7,0.4,1.4,0.8,1.9,1.5
					c0.3,0.4,0.4,0.8,0.6,1.2C74.5,49.4,74.6,49.7,74.8,49.8L74.8,49.8z M70.9,51.9c0-0.2,0-0.5-0.1-0.7c0-0.3-0.1-0.5-0.3-0.7
					c-0.7-0.8-2-0.9-2.8-0.1c-0.4,0.5-0.8,1-1.1,1.6c-0.3,0.6-0.3,1.2,0,1.8c0.2,0.3,0.3,0.5,0.4,0.8c0.3,0.6,0.7,0.9,1.4,0.8
					c0.7-0.2,1.4-0.5,1.8-1.1C70.8,53.5,71.2,52.8,70.9,51.9z M67.4,56c0.5,0.2,0.9,0.3,1.4,0.3c0.6,0,1-0.2,1.4-0.6
					c0.3-0.4,0.7-0.7,1-1.1c0.6-0.8,0.8-2,0.3-3.1c0,0.8,0.2,1.6-0.2,2.4c-0.4,0.8-0.9,1.4-1.6,1.8C69.1,56,68.3,56.2,67.4,56z
					 M65.8,52.5c0.2-0.9,0.8-1.6,1.3-2.3c0.4-0.6,1-1.1,1.8-1.2c0.2,0,0.4,0,0.5-0.2c-0.9-0.1-1.7,0.2-2.3,0.8
					C66.4,50.5,65.7,51.3,65.8,52.5z M66.6,55.2c-0.1-0.5-0.3-0.9-0.6-1.4C66,54.4,66.2,54.8,66.6,55.2z"/>
				<path class="st1" d="M134.4,48.3c0.8,0,1.4-0.1,2,0c0.9,0.1,1.5,0.7,2.1,1.3c1.9,1.9,2.3,4.3,2,6.9c-0.1,0.5-0.2,1.1-0.4,1.6
					c-0.4,1.1-1.1,1.8-2,2.4c-0.1,0.1-0.3,0.2-0.5,0.2c-2,0.5-3.9,0.1-5.4-1.3c-0.6-0.6-1.1-1.4-1.5-2.1c-0.6-1-0.8-2.1-1-3.2
					c-0.3-1.8,0.4-3.1,1.4-4.5c0.2-0.2,0.4-0.4,0.6-0.5C132.6,48.6,133.6,48.3,134.4,48.3z M136.9,54.4c0-0.8-0.8-1.9-1.5-2.1
					c-0.9-0.3-1.5,0.1-1.7,1c-0.1,0.7-0.1,1.4,0.2,2.1c0.6,1.4,1.4,1.9,2.5,0.8c0.2-0.2,0.3-0.4,0.3-0.7
					C136.9,55.1,137,54.7,136.9,54.4z M133.2,54.8c0-0.6,0-1.3,0.1-1.9c0.1-0.5,0.3-0.9,0.8-1.1c0.5-0.2,1-0.2,1.5,0
					c0.7,0.3,1.1,0.8,1.6,1.4c0.5,0.8,0.5,2.6,0,3.4c-0.1,0.1-0.2,0.2-0.4,0.3c-0.4,0.3-0.8,0.6-1.3,0.7c0.6,0.1,1.1,0.1,1.5-0.4
					c0.2-0.2,0.3-0.4,0.5-0.6c0.3-0.3,0.4-0.7,0.4-1.2c0-0.2,0-0.5,0-0.7c-0.2-1.4-0.8-2.4-2-3.1c-1-0.5-2.3-0.3-2.7,0.9
					C132.9,53.2,132.9,54,133.2,54.8z"/>
				<path class="st2" d="M99,54.5c0-1.2,0.4-2.3,1.2-3.1c0.4-0.4,1-0.3,1.2,0.1c0.3,0.5,0.5,1,0.4,1.6c-0.1,0.9-0.5,1.6-0.9,2.4
					c-0.4,0.8-1.4,0.7-1.8-0.1C99.1,55.1,99,54.8,99,54.5z"/>
				<path class="st2" d="M100.9,56.5c1-1,1.5-2.1,1.6-3.4c0.1-0.8-0.2-1.5-0.7-2.1c-0.5-0.5-1.2-0.6-1.8-0.2c-0.6,0.4-1,1-1.2,1.6
					c-0.2,0.7-0.5,1.3-0.4,2.1c0,0.1,0,0.2-0.1,0.3c-0.2-0.5-0.2-0.9-0.1-1.3c0.2-0.9,0.5-1.7,0.9-2.4c0.2-0.4,0.6-0.6,1.1-0.7
					c0.3,0,0.6,0,0.9,0c0.4,0,0.6,0.2,0.8,0.5c0.5,0.8,0.8,1.7,0.7,2.7c-0.1,0.7-0.3,1.4-0.7,2.1C101.7,56,101.4,56.3,100.9,56.5z"
					/>
				<path class="st2" d="M70.9,51.9c0.2,0.9-0.1,1.6-0.6,2.3c-0.4,0.6-1.1,1-1.8,1.1c-0.7,0.2-1.1-0.1-1.4-0.8
					c-0.1-0.3-0.3-0.6-0.4-0.8c-0.4-0.6-0.4-1.2,0-1.8c0.3-0.6,0.7-1.1,1.1-1.6c0.7-0.8,2.1-0.7,2.8,0.1c0.2,0.2,0.3,0.5,0.3,0.7
					C70.9,51.4,70.9,51.6,70.9,51.9z"/>
				<path class="st2" d="M67.4,56c0.9,0.3,1.6,0,2.4-0.4c0.7-0.4,1.2-1,1.6-1.8c0.4-0.8,0.2-1.6,0.2-2.4c0.5,1.1,0.3,2.3-0.3,3.1
					c-0.3,0.4-0.6,0.8-1,1.1c-0.4,0.4-0.9,0.6-1.4,0.6C68.4,56.2,67.9,56.2,67.4,56z"/>
				<path class="st2" d="M65.8,52.5c0-1.2,0.6-2,1.3-2.8c0.6-0.7,1.4-0.9,2.3-0.8c-0.2,0.2-0.3,0.2-0.5,0.2
					c-0.8,0.1-1.4,0.5-1.8,1.2C66.5,50.9,65.9,51.6,65.8,52.5z"/>
				<path class="st2" d="M66.6,55.2c-0.3-0.4-0.6-0.8-0.6-1.4C66.2,54.3,66.5,54.7,66.6,55.2z"/>
				<path class="st2" d="M136.9,54.4c0,0.3,0,0.7-0.1,1.1c0,0.3-0.1,0.5-0.3,0.7c-1.1,1.1-2,0.5-2.5-0.8c-0.3-0.6-0.3-1.4-0.2-2.1
					c0.1-0.9,0.8-1.4,1.7-1C136.1,52.5,136.9,53.6,136.9,54.4z"/>
				<path class="st2" d="M133.2,54.8c-0.3-0.8-0.3-1.6-0.1-2.4c0.4-1.2,1.6-1.4,2.7-0.9c1.3,0.6,1.9,1.7,2,3.1c0,0.2,0,0.5,0,0.7
					c0,0.5-0.1,0.9-0.4,1.2c-0.2,0.2-0.4,0.4-0.5,0.6c-0.4,0.5-0.9,0.5-1.5,0.4c0.5-0.1,0.9-0.4,1.3-0.7c0.1-0.1,0.3-0.2,0.4-0.3
					c0.6-0.8,0.6-2.6,0-3.4c-0.4-0.6-0.9-1.1-1.6-1.4c-0.5-0.2-1-0.2-1.5,0c-0.5,0.2-0.7,0.6-0.8,1.1
					C133.2,53.5,133.1,54.1,133.2,54.8z"/>
			</g>
		</g>
	</g>
	<path class="st2" d="M138.7,21.3c-0.3,0-0.4,0-0.5-0.1c-0.1-0.1-0.2-0.2-0.2-0.4c0-0.2,0.2-0.2,0.3-0.2c0.3,0,0.6-0.1,0.9-0.1
		c0.1,0,0.3,0.1,0.3,0.2c0,0.2,0,0.3-0.1,0.4C139.1,21.2,138.9,21.3,138.7,21.3z"/>
	<path class="st2" d="M139,22.6c-0.3,0-0.5,0-0.6-0.2c-0.2-0.2-0.1-0.4,0.1-0.5c0.2-0.1,0.5-0.1,0.7-0.2c0.2,0,0.4,0,0.4,0.2
		c0.1,0.2,0,0.4-0.2,0.5C139.3,22.5,139.1,22.6,139,22.6z"/>
	<g>
		<path class="st1" d="M161.5,32c0.1-1.6,0.3-3.1,0.4-4.7c0.1-1.6,0.6-3.2,1.1-4.7c0.3-1.1,0.8-2.2,1.2-3.3c0.6-1.6,1.6-2.9,2.7-4.1
			c1.1-1.2,2.3-2.3,3.7-3.2c0.5-0.3,1.1-0.6,1.7-0.7c1.8-0.4,3.6-0.5,5.4,0.1c0.6,0.2,1.2,0.3,1.8,0.4c1.1,0.2,2,0.7,3,1.3
			c0.6,0.3,1.1,0.7,1.7,0.9c1.9,0.9,3.5,2,4.8,3.6c1.9,2.4,3.5,4.9,4.8,7.7c0.2,0.4,0.3,0.8,0.4,1.2c0.3,1.8,0.5,3.6,1,5.4
			c0.1,0.3,0.1,0.5,0.1,0.8c0.1,1.9,0.3,3.7,0.1,5.6c0,0.2-0.1,0.4,0,0.6c0.4,2.1-0.1,4.3-0.2,6.4c-0.1,1-0.5,1.9-0.7,2.9
			c-0.4,1.4-0.7,2.9-1.2,4.3c-0.5,1.3-1,2.7-1.8,3.9c-0.6,0.9-1.5,1.4-2.2,2.1c-1.2,1-2.6,1.8-4,2.5c-0.7,0.3-1.4,0.6-2.1,0.8
			c-2.7,0.6-5.4,1-8.2,0.5c-1.4-0.2-2.5-1-3.5-2c-0.3-0.3-0.6-0.6-0.9-0.9c-2.7-2.5-5-5.4-6.8-8.6c-1.5-2.7-2.3-5.7-2.4-8.9
			C160.9,38.5,161,35.2,161.5,32z M162.3,34.5c-0.5,2.4-0.2,4.8-0.2,7.2c0.1,3.5,1.1,6.8,3,9.7c0.6,1,1.4,1.9,2,2.9
			c1.5,2.1,3.5,3.9,5.4,5.7c0.8,0.7,1.7,1.2,2.7,1.4c2.7,0.5,5.5,0.1,8.1-0.8c1.9-0.6,3.5-1.7,5-2.9c0.8-0.6,1.7-1.2,2.2-2.1
			c0.7-1.2,1.2-2.4,1.7-3.6c0.5-1.5,0.7-3,1.3-4.5c0.8-2.2,0.9-4.5,1-6.8c0-1.4,0-2.8,0.1-4.2c0-1.5,0.1-3-0.6-4.4
			c-0.1-0.3-0.2-0.7-0.2-1c0-0.6,0-1.3-0.1-2c-0.2-1.7-0.3-3.3-1.2-4.8c-1.1-1.9-2.3-3.6-3.5-5.4c-1.5-2.1-3.4-3.6-5.7-4.6
			c-0.5-0.2-0.9-0.5-1.4-0.8c-0.6-0.4-1.2-0.8-1.9-0.9c-2-0.4-3.9-1.1-5.9-0.9c-1.1,0.1-2.1,0.2-3,0.9c-1.9,1.4-3.7,2.9-4.9,5
			c-0.4,0.6-0.8,1.2-1,1.9c-0.3,0.8-0.6,1.6-0.9,2.4c-0.7,1.9-1.3,3.9-1.5,5.9c-0.1,1.1-0.2,2.2-0.2,3.2
			C162.6,32.2,162.4,33.4,162.3,34.5z"/>
		<path class="st2" d="M162.3,34.5c0.1-1.1,0.3-2.3,0.3-3.4c0-1.1,0.1-2.2,0.2-3.2c0.1-2.1,0.7-4,1.5-5.9c0.3-0.8,0.6-1.6,0.9-2.4
			c0.2-0.7,0.7-1.3,1-1.9c1.2-2.1,3-3.6,4.9-5c0.9-0.6,1.9-0.8,3-0.9c2.1-0.2,4,0.5,5.9,0.9c0.7,0.1,1.3,0.6,1.9,0.9
			c0.4,0.3,0.9,0.6,1.4,0.8c2.4,1,4.3,2.5,5.7,4.6c1.2,1.8,2.4,3.5,3.5,5.4c0.9,1.5,1,3.2,1.2,4.8c0.1,0.6,0.1,1.3,0.1,2
			c0,0.3,0,0.7,0.2,1c0.7,1.4,0.6,2.9,0.6,4.4c0,1.4,0,2.8-0.1,4.2c0,2.3-0.1,4.6-1,6.8c-0.5,1.5-0.7,3-1.3,4.5
			c-0.5,1.3-1,2.5-1.7,3.6c-0.5,0.9-1.4,1.5-2.2,2.1c-1.5,1.2-3.2,2.3-5,2.9c-2.6,0.8-5.3,1.2-8.1,0.8c-1-0.2-1.9-0.7-2.7-1.4
			c-1.9-1.8-3.8-3.5-5.4-5.7c-0.7-0.9-1.4-1.9-2-2.9c-1.9-3-2.9-6.2-3-9.7C162.1,39.3,161.8,36.9,162.3,34.5z M192.6,38.4
			c0.1-0.7,0.2-1.4,0.2-2.1c0-2.9-0.2-5.8-0.7-8.7c-0.3-1.9-0.9-3.7-2-5.3c-0.5-0.7-1.2-1.4-1.7-2.1c-0.8-1.1-1.8-2.1-2.9-2.8
			c-2.3-1.5-4.5-2.9-7-4.1c-1.1-0.5-2.2-0.7-3.3-0.6c-2.7,0.3-5,1.3-6.4,3.7c-0.1,0.1-0.1,0.2-0.2,0.3c-0.9,1.2-1.7,2.5-2.4,3.8
			c-0.8,1.5-1.3,3.2-1.5,4.9c-0.2,1.3-0.3,2.5-0.6,3.8c-0.5,2-0.7,4.1-0.7,6.2c0,2.2,0.1,4.5,0.2,6.7c0,0.5,0.1,0.9,0.3,1.4
			c0.2,0.6,0.4,1.3,0.6,2c0.7,2.2,1.4,4.4,2.8,6.3c0.6,0.9,1.1,1.8,2,2.5c0.8,0.7,1.7,1.3,2.5,1.9c1.8,1.2,3.6,2.3,5.8,2.5
			c0.5,0,0.9,0.2,1.4,0.3c1.4,0.4,2.7,0.4,4.2,0c1.5-0.4,2.6-1.2,3.6-2.4c0.5-0.5,0.9-1.1,1.3-1.7c1.4-1.8,2.3-3.9,2.9-6.1
			C191.8,45.4,192.4,41.9,192.6,38.4z"/>
		<path class="st1" d="M192.6,38.4c-0.2,3.5-0.8,7-1.7,10.4c-0.6,2.2-1.5,4.3-2.9,6.1c-0.4,0.6-0.8,1.2-1.3,1.7
			c-1,1.1-2.1,1.9-3.6,2.4c-1.4,0.4-2.8,0.4-4.2,0c-0.4-0.1-0.9-0.2-1.4-0.3c-2.2-0.2-4-1.3-5.8-2.5c-0.9-0.6-1.7-1.2-2.5-1.9
			c-0.8-0.7-1.4-1.6-2-2.5c-1.4-1.9-2.1-4.1-2.8-6.3c-0.2-0.7-0.4-1.3-0.6-2c-0.1-0.4-0.2-0.9-0.3-1.4c-0.2-2.2-0.2-4.5-0.2-6.7
			c0-2.1,0.2-4.1,0.7-6.2c0.3-1.2,0.4-2.5,0.6-3.8c0.3-1.7,0.7-3.4,1.5-4.9c0.7-1.3,1.5-2.6,2.4-3.8c0.1-0.1,0.2-0.2,0.2-0.3
			c1.4-2.5,3.7-3.4,6.4-3.7c1.2-0.2,2.2,0,3.3,0.6c2.5,1.1,4.7,2.6,7,4.1c1.2,0.7,2.1,1.7,2.9,2.8c0.5,0.7,1.2,1.4,1.7,2.1
			c1.1,1.6,1.7,3.4,2,5.3c0.5,2.9,0.7,5.8,0.7,8.7C192.8,36.9,192.7,37.7,192.6,38.4z M179,57.8c0.5,0.1,1.1-0.1,1.6,0
			c2.2,0.1,3.8-0.9,5.2-2.4c1.6-1.8,2.7-3.9,3.6-6.1c0.3-0.7,0.6-1.5,0.8-2.3c0.4-2.1,0.4-4.3,1.1-6.4c0.1-0.2,0.1-0.5,0.1-0.7
			c0.1-2.2,0.2-4.5,0-6.7c-0.2-2.9-0.5-5.9-1.5-8.7c-0.3-0.9-0.7-1.7-1.3-2.4c-1.2-1.3-2.3-2.7-3.8-3.7c-1.9-1.3-3.6-2.9-5.9-3.7
			c-1.7-0.6-3.4-1-5.2-0.5c-1.8,0.5-3.1,1.3-4.1,2.8C169,18,168.5,19,168,20c-0.9,1.9-1.7,3.8-2.3,5.9c-0.6,2.1-0.7,4.3-1,6.4
			c0,0.1,0,0.2,0,0.4c0.2,2.6,0.1,5.3,0.1,7.9c0.1,2.3,0.4,4.5,1.5,6.5c0.3,0.6,0.6,1.1,0.9,1.7c1.1,2.1,2.6,3.8,4.2,5.4
			c1.1,1.1,2.5,1.8,3.9,2.5C176.5,57.2,177.6,57.8,179,57.8z"/>
		<path class="st2" d="M179,57.8c-1.4-0.1-2.5-0.7-3.6-1.2c-1.4-0.7-2.7-1.4-3.9-2.5c-1.7-1.6-3.2-3.3-4.2-5.4
			c-0.3-0.6-0.6-1.1-0.9-1.7c-1.1-2-1.5-4.2-1.5-6.5c-0.1-2.6,0.1-5.3-0.1-7.9c0-0.1,0-0.2,0-0.4c0.4-2.1,0.5-4.3,1-6.4
			c0.6-2,1.4-4,2.3-5.9c0.5-1,1-2,1.6-2.9c1-1.5,2.3-2.4,4.1-2.8c1.9-0.5,3.5-0.1,5.2,0.5c2.2,0.8,4,2.4,5.9,3.7
			c1.5,1,2.6,2.3,3.8,3.7c0.6,0.7,1,1.5,1.3,2.4c1,2.8,1.3,5.7,1.5,8.7c0.1,2.2,0,4.5,0,6.7c0,0.2,0,0.5-0.1,0.7
			c-0.7,2.1-0.7,4.3-1.1,6.4c-0.2,0.8-0.5,1.5-0.8,2.3c-0.9,2.2-2,4.3-3.6,6.1c-1.4,1.6-3,2.6-5.2,2.4
			C180.1,57.8,179.5,57.9,179,57.8z M169.5,23.4c-0.5,0.3-0.8,0.3-1.2,0.4c-0.3,0.1-0.9,0-0.8,0.5c0.1,0.4,0.5,0.3,0.9,0.2
			c0.3,0,0.5,0,0.5,0.4c0,0.3-0.2,0.8,0.2,1c0.4,0.2,0.6-0.3,1-0.4c0.5-0.1,0.6-0.4,0.5-0.9c-0.1-0.3,0-0.7,0.2-1
			c0.1-0.2,0.3-0.4,0.5-0.3c0.3,0,0.3,0.3,0.3,0.5c0,0.2,0,0.3,0,0.5c0,0.2,0.1,0.5,0.3,0.5c0.3,0,0.4-0.2,0.4-0.5
			c0-0.3,0-0.6,0-0.9c0-0.6,0.2-1,0.8-1.1c0.3-0.1,0.6-0.4,0.9-0.1c0.3,0.2-0.1,0.5-0.2,0.7c-0.1,0.3-0.2,0.6,0.1,0.7
			c0.3,0.1,0.4-0.2,0.5-0.4c0.2-0.3,0.3-0.5,0.5-0.8c0.2-0.2,0.8-0.1,1,0.2c0.2,0.4-0.2,0.4-0.4,0.5c-0.2,0.1-0.3,0.2-0.5,0.3
			c-0.1,0.1-0.2,0.2-0.1,0.3c0.1,0.1,0.2,0.2,0.3,0.1c0.2-0.1,0.5-0.1,0.7-0.2c0.3-0.1,0.7-0.3,0.8,0.1c0.2,0.4-0.3,0.4-0.6,0.6
			c-0.8,0.4-0.8,0.4-0.4,1.1c0,0.1,0.1,0.1,0.1,0.2c0.1,0.1,0.2,0.3,0,0.4c-0.1,0.1-0.3,0-0.4-0.1c-0.3-0.2-0.5-0.5-0.8-0.6
			c-0.1,0-0.3,0-0.3,0.1c-0.1,0.1-0.1,0.2-0.1,0.3c0.1,0.1,0.2,0.2,0.3,0.4c0.3,0.4,0.2,0.6-0.2,0.7c-0.3,0.1-0.5,0-0.8,0
			c-0.4-0.1-0.8-0.2-1.2-0.1c-0.2,0-0.3,0.1-0.3,0.3c0,0.2,0.1,0.3,0.3,0.3c0.2,0.1,0.5,0.1,0.7,0.1c0.3,0.1,0.4,0.3,0.2,0.6
			c-0.2,0.2-0.4,0.4-0.6,0.4c-0.2,0-0.5-0.1-0.7-0.1c-0.3,0-0.7-0.2-0.8,0.1c-0.2,0.4,0.3,0.4,0.6,0.6c0.1,0,0.1,0,0.2,0.1
			c0.3,0.1,0.4,0.3,0.3,0.6c-0.2,0.5-0.5,0.9-1.1,0.9c-0.6,0-1.2,0.1-1.8,0.1c-0.2,0-0.3,0.1-0.3,0.3c0,0.2,0.1,0.3,0.3,0.3
			c0.3,0,0.6,0,0.9,0c0.2,0,0.6-0.1,0.7,0.2c0.1,0.3-0.2,0.5-0.4,0.7c-0.1,0.1-0.3,0.2-0.5,0.2c-0.4,0.1-0.7,0.2-1.1,0.2
			c-0.2,0-0.5,0.1-0.5,0.3c0,0.3,0.3,0.4,0.5,0.4c0.2,0,0.5-0.2,0.7,0.1c0,0.3-0.2,0.4-0.3,0.5c-0.3,0.3-0.8,0.3-1.2,0.4
			c-0.4,0.1-0.9,0.1-0.8,0.6c0.1,0.4,0.5,0.2,0.8,0.2c0.2,0,0.3-0.1,0.4,0.1c0.1,0.2-0.1,0.4-0.2,0.4c-0.6,0.3-1.1,0.6-1.7,0.5
			c-0.4-0.1-0.6,0-0.6,0.4c0,0.4,0.4,0.6,0.6,0.5c0.7-0.3,1.4,0.4,2.1-0.1c0.2-0.1,0.3,0.1,0.4,0.3c0.2,0.3,0.4,0.6,0.6,1
			c0.2,0.3,0.4,0.5,0.8,0.2c0.3-0.3,0.1-0.5-0.1-0.7c-0.4-0.4-0.6-1-0.9-1.4c-0.1-0.2-0.1-0.4,0-0.5c0.2-0.2,0.4,0,0.5,0.1
			c0.2,0.2,0.4,0.5,0.6,0.7c0.2,0.2,0.6,0.6,0.9,0.2c0.3-0.4-0.1-0.6-0.4-0.8c-0.3-0.3-0.6-0.5-0.9-0.8c-0.2-0.4-0.1-1,0.3-1.2
			c0.5-0.3,0.5,0.2,0.8,0.4c0.3,0.3,0.5,0.5,0.8,0.8c0.2,0.2,0.5,0.3,0.7,0c0.2-0.3,0-0.5-0.2-0.7c-0.3-0.2-0.6-0.4-0.8-0.7
			c-0.6-0.7-0.6-1.1,0-1.8c0.2-0.3,0.4-0.3,0.6,0c0.3,0.4,0.6,0.7,0.9,1.1c0.2,0.2,0.4,0.3,0.6,0.1c0.2-0.2,0.2-0.5,0-0.6
			c-0.4-0.3-0.6-0.7-0.9-1c-0.2-0.3-0.3-0.7-0.1-1c0.1-0.2,0.2-0.4,0.4-0.4c0.2,0,0.2,0.2,0.3,0.4c0.1,0.5,0.2,1,0.4,1.4
			c0.1,0.2,0.3,0.3,0.5,0.2c0.2-0.1,0.3-0.2,0.2-0.4c0-0.2-0.1-0.4-0.2-0.5c-0.2-0.6-0.3-1.3-0.3-1.9c0-0.8,0.4-1.3,1.2-1.6
			c0.1,0.2,0,0.4-0.1,0.6c-0.2,0.7-0.4,1.3-0.5,2c0,0.2,0,0.4,0.2,0.5c0.2,0.1,0.4,0,0.6-0.2c0.1-0.2,0.2-0.4,0.2-0.6
			c0.2-0.8,0.4-1.5,0.6-2.3c0.1-0.5,0.4-0.7,0.9-0.6c0.5,0.1,0.6,0.5,0.3,1c-0.2,0.5-0.5,0.9-0.7,1.3c-0.1,0.3-0.3,0.6-0.4,1
			c-0.1,0.4,0.1,0.6,0.5,0.4c0.1,0,0.2-0.2,0.5,0c-0.4,0.9-0.4,1.9-0.4,2.9c0,2.8-0.1,5.6-0.3,8.4c-0.1,2.1-0.2,4.1-0.1,6.2
			c0,1.5,0.7,2.1,2.2,2.1c0.9,0,1.4-0.5,1.5-1.3c0.1-0.7,0.1-1.4,0.1-2.1c0-1.2,0-2.4,0-3.5c0-1.1,0.1-2.2,0-3.2
			c-0.2-1.7-0.3-3.4-0.2-5.2c0.1-1.5,0.3-3.1,0-4.6c0-0.2,0-0.4,0.1-0.5c0.6-0.4,0.8-1.1,1.2-1.6c0.1-0.2,0.3-0.4,0.6-0.2
			c0.3,0.2,0.2,0.4,0.1,0.7c-0.3,0.5-0.6,1-0.9,1.5c-0.2,0.3-0.5,0.6-0.1,0.9c0.4,0.3,0.6-0.2,0.8-0.5c0.3-0.5,0.6-1,0.9-1.4
			c0.1-0.2,0.2-0.3,0.5-0.2c0.2,0.1,0.3,0.3,0.3,0.5c0,0.3-0.1,0.5-0.2,0.7c-0.3,0.5-0.6,1.1-0.9,1.6c-0.1,0.2-0.2,0.5,0,0.7
			c0.3,0.2,0.5-0.1,0.6-0.4c0.2-0.4,0.4-0.7,0.6-1.1c0.1-0.2,0.2-0.5,0.5-0.4c0.3,0.1,0.4,0.3,0.5,0.6c0.1,0.3,0,0.5-0.1,0.8
			c-0.4,0.7-0.7,1.5-1.3,2c-0.2,0.2-0.3,0.4,0,0.6c0.2,0.2,0.4,0.1,0.6-0.1c0.3-0.3,0.5-0.6,0.7-1c0.2-0.3,0.3-0.7,0.8-1
			c0,0.1,0.1,0.2,0.1,0.3c0.3,0.5,0,1-0.2,1.5c-0.4,0.6-0.6,1.3-1,1.9c-0.1,0.1,0,0.3,0.1,0.4c0.1,0.1,0.3,0.1,0.4,0
			c0.2-0.1,0.3-0.4,0.4-0.6c0.1-0.3,0.3-0.6,0.4-0.8c0.1-0.2,0.2-0.3,0.4-0.3c0.2,0.1,0.2,0.2,0.2,0.4c0,0.5,0.1,0.9,0.1,1.4
			c0,0.2,0.1,0.4,0.3,0.4c0.3,0,0.4-0.2,0.4-0.4c0-0.2,0-0.5,0-0.7c0-0.5,0.2-0.6,0.6-0.4c0.2,0.1,0.4,0.3,0.7,0.3
			c0.2,0,0.4,0,0.5-0.3c0.1-0.2-0.1-0.3-0.3-0.4c-0.1-0.1-0.2-0.1-0.3-0.2c-0.5-0.3-0.9-0.6-1.4-1c-0.1-0.1-0.3-0.2-0.2-0.4
			c0.1-0.2,0.3-0.1,0.5,0c0.3,0.1,0.5,0.3,0.8,0.4c0.2,0.1,0.4,0.1,0.5-0.1c0.2-0.2,0.1-0.4-0.1-0.6c-0.1-0.1-0.3-0.2-0.4-0.3
			c-0.6-0.4-1.1-0.8-1.7-1.2c-0.2-0.1-0.5-0.3-0.3-0.6c0.1-0.3,0.4-0.2,0.7-0.1c0.3,0.1,0.6,0.1,0.9,0c0.2-0.1,0.4-0.2,0.4-0.5
			c0-0.3-0.3-0.3-0.5-0.3c-0.8,0.1-1.4-0.2-2.1-0.4c-0.2-0.1-0.4-0.1-0.3-0.4c0.2-0.1,0.4,0,0.6,0c0.4,0,0.8,0.2,0.9-0.3
			c0.1-0.5-0.4-0.4-0.8-0.5c-0.6-0.1-1.3-0.3-1.9-0.6c0.3-0.4,0.7-0.3,1-0.4c0.2-0.1,0.3-0.2,0.3-0.4c-0.1-0.2-0.2-0.3-0.4-0.3
			c-0.3,0-0.6,0.1-0.9,0.1c-0.4,0.1-0.7,0.2-1.1-0.1c0.3-0.3,0.7-0.4,1-0.5c0.7-0.2,0.8-0.2,0.5-0.9c0-0.1-0.1-0.2-0.1-0.3
			c0-0.1-0.1-0.2,0.1-0.3c0.1-0.1,0.2,0,0.3,0c0.5,0.4,0.7,0.9,0.9,1.4c0.1,0.4,0.2,0.7,0.3,1.1c0.1,0.2,0.2,0.5,0.5,0.5
			c0.6-0.1,0.8,0.3,0.9,0.7c0.1,0.2,0.3,0.4,0.6,0.3c0.3-0.2,0.3-0.4,0.1-0.7c-0.1-0.3-0.5-0.4-0.5-0.8c0.1-0.2,0.3-0.2,0.4-0.2
			c0.4-0.2,0.5-0.5,0.1-0.7c-0.2-0.1-0.4-0.2-0.6-0.3c-0.3-0.1-0.6-0.2-0.8-0.6c0.3-0.3,0.7-0.1,1-0.3c0.2-0.1,0.3-0.2,0.2-0.5
			c-0.1-0.2-0.2-0.2-0.4-0.2c-0.4,0-0.8,0-1.2,0.1c-0.3,0-0.7,0.2-0.8-0.2c-0.2-0.4,0.3-0.5,0.5-0.6c0.2-0.2,0.8-0.3,0.6-0.7
			c-0.3-0.5-0.6-0.1-1,0.1c-0.4,0.2-0.7,0.5-1.2,0.5c-0.1-0.2,0-0.3,0.1-0.4c0.2-0.2,0.4-0.4,0.6-0.6c0.1-0.1,0.2-0.3,0-0.5
			c-0.1-0.1-0.3-0.1-0.4,0c-0.3,0.2-0.5,0.4-0.7,0.6c-0.2,0.2-0.4,0.4-0.7,0.4c-0.2,0-0.4,0-0.5-0.2c-0.1-0.2,0-0.4,0.1-0.5
			c0.2-0.3,0.4-0.5,0.6-0.8c0.1-0.2,0.1-0.4,0-0.5c-0.2-0.1-0.3-0.1-0.5,0c-0.4,0.3-0.6,0.7-0.8,1c-0.2,0.3-0.3,0.6-0.7,0.7
			c-0.2-0.3,0.1-0.4,0.1-0.6c0-0.2,0.1-0.4-0.1-0.5c-0.2-0.1-0.4,0-0.5,0.1c-0.3,0.3-0.4,0.6-0.6,0.9c-0.1,0.2-0.1,0.6-0.4,0.6
			c-0.4,0-0.2-0.4-0.2-0.7c0-0.1,0-0.1,0-0.2c-0.1-0.3-0.3-0.4-0.5-0.2c-0.4,0.3-0.7,0.5-1.2,0.7c-0.2-0.5,0-0.8,0.2-1.2
			c0.1-0.2,0.1-0.4-0.1-0.6c-0.3-0.2-0.5-0.1-0.6,0.2c-0.1,0.1-0.1,0.2-0.2,0.2c-0.3,0.3-0.4,0.3-0.6-0.1c-0.1-0.3-0.1-0.7-0.1-1
			c0-0.2-0.1-0.4-0.4-0.5c-0.2,0-0.3,0.2-0.4,0.4c0,0.1,0,0.2,0,0.3c-0.1,0.4-0.4,0.5-0.7,0.2c-0.3-0.2-0.4-0.6-0.5-0.9
			c-0.1-0.2-0.2-0.4-0.5-0.3c-0.3,0.1-0.2,0.3-0.2,0.5c0.1,0.6-0.1,0.6-0.6,0.4c-0.3-0.1-0.6-0.3-0.9-0.5c-0.2-0.1-0.4-0.1-0.5,0.1
			c-0.1,0.2,0,0.3,0.2,0.4c0.2,0.1,0.4,0.2,0.3,0.5c-0.1,0.2-0.4,0.3-0.6,0.2c-0.2,0-0.5-0.1-0.7-0.2c-0.2-0.1-0.5-0.1-0.7-0.2
			c-0.2,0-0.3,0-0.4,0.2c0,0.1,0.1,0.2,0.1,0.3c0.2,0.2,0.5,0.1,0.5,0.5c-0.4,0.2-0.8,0.2-1.3,0.3c-0.3,0-0.6,0-0.8,0.1
			c-0.2,0-0.4,0.1-0.4,0.3c0,0.2,0.2,0.3,0.4,0.4C168.8,23.3,169,23.3,169.5,23.4z"/>
		<path class="st1" d="M169.5,23.4c-0.4,0-0.7,0-0.9-0.1c-0.2,0-0.4-0.1-0.4-0.4c0-0.2,0.2-0.3,0.4-0.3c0.3,0,0.6,0,0.8-0.1
			c0.4-0.1,0.9-0.1,1.3-0.3c0-0.3-0.4-0.3-0.5-0.5c-0.1-0.1-0.2-0.2-0.1-0.3c0.1-0.2,0.2-0.2,0.4-0.2c0.2,0,0.5,0.1,0.7,0.2
			c0.2,0.1,0.5,0.2,0.7,0.2c0.2,0,0.5,0,0.6-0.2c0.2-0.3-0.1-0.4-0.3-0.5c-0.1-0.1-0.3-0.2-0.2-0.4c0.1-0.2,0.3-0.2,0.5-0.1
			c0.3,0.1,0.6,0.3,0.9,0.5c0.5,0.3,0.7,0.2,0.6-0.4c0-0.2-0.1-0.5,0.2-0.5c0.3-0.1,0.4,0.1,0.5,0.3c0.1,0.3,0.3,0.6,0.5,0.9
			c0.3,0.3,0.5,0.2,0.7-0.2c0-0.1,0-0.2,0-0.3c0-0.2,0.1-0.4,0.4-0.4c0.3,0,0.3,0.2,0.4,0.5c0,0.3,0,0.7,0.1,1
			c0.1,0.4,0.3,0.4,0.6,0.1c0.1-0.1,0.1-0.2,0.2-0.2c0.2-0.2,0.4-0.3,0.6-0.2c0.2,0.1,0.2,0.4,0.1,0.6c-0.1,0.4-0.4,0.7-0.2,1.2
			c0.4-0.2,0.8-0.5,1.2-0.7c0.3-0.2,0.5-0.1,0.5,0.2c0,0.1,0,0.1,0,0.2c0.1,0.2-0.1,0.6,0.2,0.7c0.3,0,0.3-0.4,0.4-0.6
			c0.2-0.3,0.3-0.7,0.6-0.9c0.1-0.1,0.3-0.2,0.5-0.1c0.2,0.1,0.2,0.3,0.1,0.5c0,0.2-0.3,0.4-0.1,0.6c0.4,0,0.5-0.4,0.7-0.7
			c0.2-0.4,0.4-0.8,0.8-1c0.2-0.1,0.3-0.2,0.5,0c0.2,0.1,0.2,0.3,0,0.5c-0.2,0.3-0.4,0.5-0.6,0.8c-0.1,0.2-0.2,0.3-0.1,0.5
			c0.1,0.2,0.3,0.2,0.5,0.2c0.3,0,0.5-0.2,0.7-0.4c0.2-0.2,0.5-0.4,0.7-0.6c0.1-0.1,0.3-0.1,0.4,0c0.2,0.2,0.1,0.4,0,0.5
			c-0.2,0.2-0.4,0.4-0.6,0.6c-0.1,0.1-0.1,0.2-0.1,0.4c0.5,0,0.8-0.4,1.2-0.5c0.3-0.1,0.7-0.5,1-0.1c0.2,0.4-0.3,0.5-0.6,0.7
			c-0.2,0.2-0.7,0.2-0.5,0.6c0.1,0.4,0.5,0.2,0.8,0.2c0.4,0,0.8-0.1,1.2-0.1c0.2,0,0.3,0.1,0.4,0.2c0.1,0.2-0.1,0.3-0.2,0.5
			c-0.3,0.2-0.7,0-1,0.3c0.2,0.4,0.5,0.4,0.8,0.6c0.2,0.1,0.4,0.1,0.6,0.3c0.4,0.3,0.3,0.6-0.1,0.7c-0.1,0.1-0.3,0-0.4,0.2
			c0,0.3,0.3,0.5,0.5,0.8c0.2,0.3,0.2,0.6-0.1,0.7c-0.3,0.2-0.5,0-0.6-0.3c-0.2-0.4-0.4-0.8-0.9-0.7c-0.3,0-0.4-0.2-0.5-0.5
			c-0.1-0.3-0.2-0.7-0.3-1.1c-0.2-0.5-0.4-1-0.9-1.4c-0.1-0.1-0.2-0.1-0.3,0c-0.1,0.1-0.1,0.2-0.1,0.3c0,0.1,0.1,0.2,0.1,0.3
			c0.2,0.7,0.2,0.7-0.5,0.9c-0.3,0.1-0.7,0.1-1,0.5c0.4,0.3,0.8,0.2,1.1,0.1c0.3,0,0.6-0.1,0.9-0.1c0.2,0,0.4,0,0.4,0.3
			c0.1,0.2-0.1,0.3-0.3,0.4c-0.3,0.1-0.7,0.1-1,0.4c0.6,0.4,1.2,0.5,1.9,0.6c0.3,0.1,0.8,0,0.8,0.5c-0.1,0.5-0.6,0.3-0.9,0.3
			c-0.2,0-0.4-0.1-0.6,0c-0.1,0.3,0.1,0.3,0.3,0.4c0.7,0.2,1.3,0.6,2.1,0.4c0.2,0,0.5,0,0.5,0.3c0,0.3-0.2,0.4-0.4,0.5
			c-0.3,0.1-0.6,0-0.9,0c-0.2-0.1-0.5-0.2-0.7,0.1c-0.1,0.3,0.1,0.4,0.3,0.6c0.6,0.4,1.1,0.8,1.7,1.2c0.1,0.1,0.3,0.2,0.4,0.3
			c0.2,0.2,0.3,0.4,0.1,0.6c-0.1,0.2-0.3,0.1-0.5,0.1c-0.3-0.1-0.5-0.3-0.8-0.4c-0.2-0.1-0.4-0.2-0.5,0c-0.1,0.2,0,0.3,0.2,0.4
			c0.5,0.3,0.9,0.6,1.4,1c0.1,0.1,0.2,0.1,0.3,0.2c0.2,0.1,0.3,0.2,0.3,0.4c-0.1,0.3-0.3,0.3-0.5,0.3c-0.3,0-0.5-0.2-0.7-0.3
			c-0.5-0.2-0.6-0.1-0.6,0.4c0,0.2,0,0.5,0,0.7c0,0.2-0.1,0.4-0.4,0.4c-0.2,0-0.3-0.2-0.3-0.4c-0.1-0.5-0.1-0.9-0.1-1.4
			c0-0.2,0-0.3-0.2-0.4c-0.2-0.1-0.3,0.1-0.4,0.3c-0.1,0.3-0.3,0.6-0.4,0.8c-0.1,0.2-0.2,0.4-0.4,0.6c-0.1,0.1-0.3,0.1-0.4,0
			c-0.1-0.1-0.2-0.3-0.1-0.4c0.3-0.6,0.6-1.3,1-1.9c0.3-0.5,0.5-0.9,0.2-1.5c0-0.1-0.1-0.2-0.1-0.3c-0.5,0.2-0.6,0.7-0.8,1
			c-0.2,0.3-0.5,0.6-0.7,1c-0.2,0.2-0.4,0.2-0.6,0.1c-0.2-0.2-0.1-0.4,0-0.6c0.6-0.6,0.9-1.3,1.3-2c0.1-0.3,0.2-0.5,0.1-0.8
			c-0.1-0.2-0.2-0.5-0.5-0.6c-0.3-0.1-0.4,0.2-0.5,0.4c-0.2,0.3-0.4,0.7-0.6,1.1c-0.1,0.2-0.3,0.5-0.6,0.4c-0.3-0.2-0.2-0.4,0-0.7
			c0.3-0.5,0.6-1.1,0.9-1.6c0.1-0.2,0.3-0.4,0.2-0.7c0-0.2-0.1-0.4-0.3-0.5c-0.2-0.1-0.4,0-0.5,0.2c-0.3,0.5-0.6,1-0.9,1.4
			c-0.2,0.3-0.4,0.8-0.8,0.5c-0.4-0.3,0-0.6,0.1-0.9c0.3-0.5,0.6-1,0.9-1.5c0.1-0.2,0.2-0.5-0.1-0.7c-0.3-0.2-0.5,0-0.6,0.2
			c-0.4,0.5-0.7,1.2-1.2,1.6c-0.2,0.1-0.2,0.3-0.1,0.5c0.2,1.5,0,3.1,0,4.6c-0.1,1.7,0,3.5,0.2,5.2c0.1,1.1,0,2.2,0,3.2
			c0,1.2,0,2.4,0,3.5c0,0.7,0,1.4-0.1,2.1c-0.1,0.9-0.6,1.3-1.5,1.3c-1.5,0-2.2-0.6-2.2-2.1c-0.1-2.1,0-4.1,0.1-6.2
			c0.2-2.8,0.2-5.6,0.3-8.4c0-1,0-2,0.4-2.9c-0.3-0.2-0.3,0-0.5,0c-0.4,0.1-0.6,0-0.5-0.4c0.1-0.3,0.2-0.6,0.4-1
			c0.2-0.5,0.5-0.9,0.7-1.3c0.3-0.6,0.1-0.9-0.3-1c-0.4-0.1-0.7,0.1-0.9,0.6c-0.2,0.7-0.4,1.5-0.6,2.3c0,0.2-0.1,0.4-0.2,0.6
			c-0.1,0.2-0.3,0.3-0.6,0.2c-0.2-0.1-0.2-0.3-0.2-0.5c0.2-0.7,0.3-1.3,0.5-2c0.1-0.2,0.2-0.4,0.1-0.6c-0.8,0.3-1.2,0.8-1.2,1.6
			c0,0.7,0.1,1.3,0.3,1.9c0.1,0.2,0.1,0.4,0.2,0.5c0,0.2,0,0.4-0.2,0.4c-0.2,0.1-0.4,0-0.5-0.2c-0.3-0.4-0.3-0.9-0.4-1.4
			c-0.1-0.2-0.1-0.4-0.3-0.4c-0.2,0-0.3,0.2-0.4,0.4c-0.2,0.4-0.1,0.7,0.1,1c0.3,0.4,0.5,0.7,0.9,1c0.2,0.2,0.3,0.4,0,0.6
			c-0.2,0.2-0.5,0.2-0.6-0.1c-0.3-0.4-0.6-0.7-0.9-1.1c-0.2-0.2-0.4-0.2-0.6,0c-0.6,0.7-0.6,1.1,0,1.8c0.2,0.3,0.5,0.5,0.8,0.7
			c0.3,0.2,0.5,0.4,0.2,0.7c-0.2,0.3-0.5,0.2-0.7,0c-0.3-0.2-0.5-0.5-0.8-0.8c-0.2-0.2-0.3-0.7-0.8-0.4c-0.4,0.3-0.5,0.9-0.3,1.2
			c0.2,0.3,0.5,0.6,0.9,0.8c0.3,0.2,0.7,0.4,0.4,0.8c-0.3,0.4-0.6,0-0.9-0.2c-0.2-0.2-0.4-0.4-0.6-0.7c-0.2-0.2-0.3-0.4-0.5-0.1
			c-0.2,0.1-0.1,0.3,0,0.5c0.3,0.5,0.5,1,0.9,1.4c0.2,0.2,0.4,0.4,0.1,0.7c-0.3,0.3-0.6,0-0.8-0.2c-0.2-0.3-0.4-0.6-0.6-1
			c-0.1-0.2-0.3-0.4-0.4-0.3c-0.7,0.5-1.4-0.2-2.1,0.1c-0.3,0.1-0.6-0.1-0.6-0.5c0-0.4,0.3-0.5,0.6-0.4c0.7,0.1,1.2-0.2,1.7-0.5
			c0.2-0.1,0.3-0.2,0.2-0.4c-0.1-0.2-0.3-0.1-0.4-0.1c-0.3,0-0.7,0.2-0.8-0.2c-0.1-0.5,0.4-0.5,0.8-0.6c0.4-0.1,0.9-0.1,1.2-0.4
			c0.2-0.1,0.3-0.3,0.3-0.5c-0.2-0.3-0.4-0.1-0.7-0.1c-0.3,0-0.5-0.1-0.5-0.4c0-0.3,0.2-0.3,0.5-0.3c0.4,0,0.7-0.1,1.1-0.2
			c0.2-0.1,0.4-0.1,0.5-0.2c0.2-0.2,0.5-0.4,0.4-0.7c-0.1-0.3-0.4-0.2-0.7-0.2c-0.3,0-0.6,0-0.9,0c-0.2,0-0.3-0.1-0.3-0.3
			c0-0.2,0.1-0.3,0.3-0.3c0.6-0.1,1.2-0.1,1.8-0.1c0.6,0,0.9-0.4,1.1-0.9c0.1-0.3,0.1-0.5-0.3-0.6c-0.1,0-0.1,0-0.2-0.1
			c-0.3-0.1-0.7-0.1-0.6-0.6c0.1-0.4,0.5-0.2,0.8-0.1c0.2,0,0.5,0.1,0.7,0.1c0.3,0,0.5-0.2,0.6-0.4c0.2-0.3,0.2-0.5-0.2-0.6
			c-0.2-0.1-0.5-0.1-0.7-0.1c-0.2,0-0.3-0.1-0.3-0.3c0-0.2,0.2-0.3,0.3-0.3c0.4-0.1,0.8,0,1.2,0.1c0.3,0.1,0.5,0.2,0.8,0
			c0.4-0.2,0.5-0.4,0.2-0.7c-0.1-0.1-0.2-0.2-0.3-0.4c-0.1-0.1,0-0.2,0.1-0.3c0.1-0.1,0.2-0.1,0.3-0.1c0.3,0.1,0.5,0.4,0.8,0.6
			c0.1,0.1,0.3,0.2,0.4,0.1c0.2-0.1,0.1-0.3,0-0.4c0-0.1-0.1-0.1-0.1-0.2c-0.4-0.8-0.4-0.8,0.4-1.1c0.3-0.1,0.7-0.2,0.6-0.6
			c-0.1-0.4-0.5-0.1-0.8-0.1c-0.2,0.1-0.5,0.2-0.7,0.2c-0.1,0-0.3,0-0.3-0.1c-0.1-0.1,0-0.2,0.1-0.3c0.2-0.1,0.3-0.2,0.5-0.3
			c0.2-0.1,0.5-0.2,0.4-0.5c-0.2-0.3-0.7-0.4-1-0.2c-0.2,0.2-0.4,0.5-0.5,0.8c-0.1,0.2-0.2,0.5-0.5,0.4c-0.3-0.2-0.2-0.5-0.1-0.7
			c0.1-0.3,0.4-0.5,0.2-0.7c-0.3-0.2-0.6,0-0.9,0.1c-0.5,0.2-0.8,0.6-0.8,1.1c0,0.3,0,0.6,0,0.9c0,0.3-0.1,0.5-0.4,0.5
			c-0.3,0-0.3-0.2-0.3-0.5c0-0.2,0-0.3,0-0.5c0-0.2,0-0.5-0.3-0.5c-0.2,0-0.4,0.1-0.5,0.3c-0.2,0.3-0.3,0.6-0.2,1
			c0.1,0.5,0,0.8-0.5,0.9c-0.4,0-0.6,0.6-1,0.4c-0.4-0.2-0.2-0.7-0.2-1c0-0.3-0.3-0.4-0.5-0.4c-0.3,0-0.8,0.2-0.9-0.2
			c-0.1-0.5,0.5-0.5,0.8-0.5C168.6,23.7,169,23.7,169.5,23.4z M182.2,24.3c0.3,0.5,0.7,0.6,0.9,0.9c0.1,0.2,0.2,0.4,0,0.6
			c-0.2,0.2-0.4,0.1-0.5-0.1c-0.4-0.3-0.7-0.7-1.2-0.9c-0.2-0.1-0.5-0.2-0.7,0c-0.2,0.3,0.1,0.4,0.3,0.6c0.3,0.2,0.8,0.3,0.5,0.8
			c-0.3,0.4-0.6-0.1-1-0.2c-0.3-0.1-0.5-0.5-1-0.2c0.5,0.4,0.9,0.7,1.4,1c0.3,0.2,0.7,0.2,1,0.1c0.5-0.2,1-0.4,1.6-0.5
			c0.3-0.1,0.4-0.3,0.3-0.6c-0.2-0.4-0.4-0.8-0.6-1.1C182.9,24.3,182.6,24.2,182.2,24.3z M178.6,42.1c0.7,0.1,0.9,0,1.1-0.5
			c0.2-0.8,0-1.1-0.8-1.1c-0.2,0-0.3,0-0.5,0c-0.4,0-0.6,0.2-0.6,0.5C177.6,41.9,177.8,42.1,178.6,42.1z M178.7,35.6
			c-0.5-0.1-0.7,0.1-0.8,0.5c-0.1,0.9,0.1,1.2,0.7,1.3c0.5,0.1,0.9-0.1,0.9-0.4C179.4,36.1,179.3,35.7,178.7,35.6z M179.5,39.1
			c0.1-0.6-0.1-0.9-0.5-0.9c-0.8-0.1-1.1,0.1-1.2,0.8c-0.1,0.5,0,0.7,0.7,0.7C179.2,39.8,179.5,39.7,179.5,39.1z M178.4,45.8
			c0.3,0,0.6,0.1,0.9,0c0.3-0.1,0.4-0.3,0.4-0.7c0-0.3-0.2-0.4-0.5-0.4c-0.4,0-0.7,0-1.1,0c-0.2,0-0.4,0.1-0.4,0.4
			c0,0.3,0,0.5,0.3,0.6C178,45.8,178.2,45.8,178.4,45.8z M178.7,44c0,0,0.2,0,0.4,0c0.4-0.1,0.6-0.3,0.6-0.7c0-0.4-0.3-0.4-0.6-0.4
			c-0.2,0-0.5,0-0.7,0c-0.3,0-0.7,0-0.7,0.4c0,0.4,0.3,0.6,0.7,0.6C178.3,44,178.4,44,178.7,44z M178.4,47.7c0.2,0,0.5-0.1,0.9-0.1
			c0.2-0.1,0.3-0.3,0.3-0.5c0-0.2-0.2-0.3-0.4-0.3c-0.4,0-0.8,0-1.2,0c-0.2,0-0.4,0-0.5,0.2c-0.1,0.2,0,0.4,0.2,0.6
			C177.8,47.6,178,47.7,178.4,47.7z M178.5,49.5c0.1,0,0.4-0.1,0.6-0.1c0.3-0.1,0.4-0.3,0.4-0.7c-0.1-0.3-0.3-0.4-0.5-0.4
			c-0.3,0-0.7,0-1,0.1c-0.3,0.1-0.4,0.4-0.2,0.6C177.9,49.4,178.1,49.5,178.5,49.5z M178.6,34.8c0.5,0.1,0.7-0.1,0.8-0.5
			c0.1-0.5-0.1-0.7-0.6-0.7c-0.5,0-0.8,0.1-0.8,0.5C177.9,34.6,178.1,34.8,178.6,34.8z M178.8,27.1c-0.1,0.5,0.1,1.1,0.4,1.1
			c0.2,0,1-0.5,1-0.8c0-0.3-0.4-0.7-0.8-0.8C178.9,26.6,178.8,26.8,178.8,27.1z M178.8,32.8c0.4,0,0.7,0,0.7-0.4
			c0.1-0.4-0.2-0.6-0.6-0.6c-0.4,0-0.7,0.1-0.7,0.5C178.2,32.7,178.5,32.8,178.8,32.8z M177.7,25.8c0-0.2-0.1-0.4-0.1-0.6
			c-0.1-0.2-0.2-0.4-0.5-0.3c-0.3,0.1-0.3,0.3-0.2,0.5c0.1,0.2,0.2,0.4,0.3,0.6c0.1,0.1,0.2,0.2,0.3,0.2
			C177.7,26.2,177.7,26,177.7,25.8z M179,30.9c0.3,0,0.4-0.1,0.4-0.4c0-0.4-0.2-0.7-0.5-0.6c-0.3,0-0.4,0.2-0.4,0.5
			C178.5,30.7,178.7,30.9,179,30.9z M179,23.9c-0.2,0.1-0.3,0.3-0.4,0.5c-0.1,0.2-0.2,0.3-0.1,0.5c0.1,0.1,0.2,0.1,0.3,0.1
			c0.2-0.1,0.4-0.2,0.4-0.5C179.2,24.3,179.2,24.1,179,23.9z"/>
		<path class="st2" d="M182.2,24.3c0.5-0.1,0.8,0,1,0.3c0.2,0.4,0.4,0.8,0.6,1.1c0.1,0.3,0,0.5-0.3,0.6c-0.5,0.1-1.1,0.3-1.6,0.5
			c-0.3,0.1-0.7,0.1-1-0.1c-0.5-0.3-0.9-0.6-1.4-1c0.5-0.3,0.7,0.1,1,0.2c0.3,0.1,0.6,0.6,1,0.2c0.3-0.5-0.2-0.6-0.5-0.8
			c-0.2-0.2-0.5-0.3-0.3-0.6c0.2-0.2,0.5-0.2,0.7,0c0.4,0.2,0.8,0.6,1.2,0.9c0.1,0.1,0.3,0.2,0.5,0.1c0.2-0.2,0.1-0.4,0-0.6
			C182.8,24.8,182.4,24.7,182.2,24.3z"/>
		<path class="st2" d="M178.6,42.1c-0.8-0.1-1-0.3-0.8-1.1c0-0.4,0.2-0.6,0.6-0.5c0.2,0,0.3,0,0.5,0c0.9,0,1.1,0.3,0.8,1.1
			C179.5,42.1,179.3,42.2,178.6,42.1z"/>
		<path class="st2" d="M178.7,35.6c0.7,0.1,0.7,0.5,0.7,1.4c0,0.4-0.3,0.5-0.9,0.4c-0.6-0.1-0.7-0.4-0.7-1.3
			C177.9,35.7,178.1,35.6,178.7,35.6z"/>
		<path class="st2" d="M179.5,39.1c-0.1,0.6-0.3,0.7-1,0.6c-0.6-0.1-0.7-0.2-0.7-0.7c0.1-0.7,0.4-0.9,1.2-0.8
			C179.5,38.2,179.6,38.5,179.5,39.1z"/>
		<path class="st2" d="M178.4,45.8c-0.1,0-0.3,0-0.5-0.1c-0.3-0.1-0.4-0.3-0.3-0.6c0-0.2,0.2-0.4,0.4-0.4c0.4,0,0.7,0,1.1,0
			c0.3,0,0.5,0.1,0.5,0.4c0,0.3-0.1,0.5-0.4,0.7C179,45.9,178.7,45.9,178.4,45.8z"/>
		<path class="st2" d="M178.7,44c-0.2,0-0.3,0-0.4,0c-0.4-0.1-0.7-0.2-0.7-0.6c0-0.4,0.4-0.4,0.7-0.4c0.2,0,0.5,0,0.7,0
			c0.3,0,0.6,0,0.6,0.4c0.1,0.4-0.1,0.6-0.6,0.7C178.9,44,178.7,44,178.7,44z"/>
		<path class="st2" d="M178.6,34.8c-0.5-0.1-0.7-0.3-0.6-0.7c0.1-0.4,0.3-0.6,0.8-0.5c0.5,0,0.7,0.2,0.6,0.7
			C179.3,34.7,179.1,34.9,178.6,34.8z"/>
		<path class="st2" d="M178.8,27.1c0-0.2,0.2-0.5,0.5-0.4c0.4,0.1,0.8,0.5,0.8,0.8c0,0.2-0.7,0.8-1,0.8
			C178.9,28.1,178.7,27.6,178.8,27.1z"/>
		<path class="st2" d="M178.8,32.8c-0.3,0-0.6-0.1-0.6-0.6c0-0.3,0.3-0.5,0.7-0.5c0.4,0,0.6,0.3,0.6,0.6
			C179.5,32.8,179.2,32.8,178.8,32.8z"/>
		<path class="st2" d="M177.7,25.8c0,0.2,0,0.4-0.2,0.4c-0.1,0-0.2-0.1-0.3-0.2c-0.1-0.2-0.2-0.4-0.3-0.6c-0.1-0.2-0.1-0.4,0.2-0.5
			c0.3-0.1,0.4,0.1,0.5,0.3C177.6,25.4,177.7,25.6,177.7,25.8z"/>
		<path class="st2" d="M189.6,32.6c-0.3,0-0.5-0.2-0.5-0.5c0-0.3,0.2-0.5,0.4-0.5c0.3,0,0.5,0.3,0.5,0.6
			C190,32.5,189.9,32.6,189.6,32.6z"/>
		<path class="st2" d="M179,23.9c0.3,0.1,0.2,0.4,0.2,0.6c0,0.2-0.2,0.4-0.4,0.5c-0.1,0-0.2,0-0.3-0.1c-0.1-0.2,0-0.4,0.1-0.5
			C178.7,24.3,178.7,24,179,23.9z"/>
	</g>
	<g>
		<path class="st1" d="M40.7,74c0.1,0.3,0.1,0.5-0.1,0.8c-0.3,0.3-0.4,0.3-0.6,0c-0.2-0.3-0.3-0.3-0.5-0.1c-0.5,0.3-0.5,0.3-0.8-0.2
			c-0.2-0.3-0.4-0.2-0.6-0.1c-0.2,0.1-0.3,0.2-0.4,0.4c-0.2,0.2-0.4,0.3-0.6,0.2c-0.3-0.1-0.2-0.4-0.2-0.6c0-0.1,0-0.1,0-0.2
			c-0.6-0.2-1.3-0.4-1.9-0.7c-0.6-0.4-1.2-0.6-2-0.6c-0.2,0-0.4-0.1-0.5-0.1c-1.9-0.8-3.8-1.6-5.7-2.5c-0.8-0.4-1.6-0.8-2.4-1.3
			c-0.1-0.1-0.2-0.2-0.4-0.1c-0.1,0.1-0.1,0.2,0,0.3c0.1,0.2,0.2,0.4,0,0.6c-0.2,0.2-0.4,0.4-0.7,0.5c-0.2,0.1-0.5-0.2-0.4-0.5
			c0-0.2,0.2-0.4,0.2-0.7c-0.5,0.2-0.9,0.5-1.4,0.7c-0.1,0-0.2,0.1-0.2,0.1c-0.2,0.1-0.4,0.1-0.5-0.1c-0.1-0.2,0-0.4,0.1-0.5
			c0.2-0.1,0.4-0.2,0.5-0.3c0.4-0.2,0.7-0.3,1.1-0.6c-0.7-0.3-1.5-0.5-2.2-0.8c-0.8-0.3-1.5-0.7-2.1-1.3c-0.6-0.6-1.4-1.1-2.1-1.6
			c-0.2-0.1-0.4-0.2-0.5-0.5c-0.1-0.2-0.1-0.3,0-0.4c0.1-0.1,0.2-0.1,0.4-0.1c0.1,0,0.2,0.1,0.2,0.1c0.8,0.6,1.7,1,2.4,1.7
			c0.3,0.4,0.7,0.7,1.3,0.8c-0.3-0.3-0.6-0.7-0.9-1c-0.4-0.4-0.6-0.8-0.9-1.2c-0.2-0.5-0.5-0.9-0.9-1.3c-0.1-0.1-0.2-0.3-0.2-0.5
			c0-0.2,0.1-0.4,0.3-0.5c0.3-0.1,0.5,0,0.6,0.2c0.3,0.5,0.6,0.9,0.9,1.4c0.9,1.3,2,2.6,3.3,3.5c0.1,0,0.1,0.1,0.2,0.1
			c0.3,0.1,0.4,0.1,0.4-0.2c0-0.2-0.1-0.5,0.1-0.7c0.1-0.2,0.2-0.3,0.4-0.3c0.2,0,0.2,0.2,0.2,0.4c0,0.3,0,0.7,0.1,1.1
			c0.2-0.3,0.3-0.6,0.4-0.8c0.1-0.2,0.1-0.4,0.4-0.3c0.3,0.1,0.3,0.3,0.2,0.5c0,0.1-0.1,0.2-0.1,0.4c0.2,0,0.2-0.2,0.4-0.3
			c0.2-0.1,0.3-0.1,0.4,0c0.2,0.1,0.2,0.3,0,0.5c-0.1,0.2-0.3,0.3-0.5,0.5c-0.2,0.2-0.1,0.3,0.1,0.4c0.1,0,0.1,0.1,0.2,0.1
			c0.4,0,0.7,0,0.9,0.5c0.1,0.3,0.6,0.4,0.9,0.4c0.9,0.2,1.8,0.5,2.7,0.9c0.6,0.3,1.1,0.5,1.7,0.8c0.7,0.4,1.5,0.7,2.2,1.1
			c0.2,0.1,0.4,0.2,0.6,0.2c0.8,0,1.5,0,2.3-0.1c0.4,0,0.6-0.5,1.1-0.3c-0.1-0.3-0.1-0.5-0.2-0.7c0-0.2,0-0.4,0.2-0.5
			c0.2-0.1,0.4,0,0.5,0.2c0.2,0.3,0.3,0.6,0.4,0.9c0,0.1,0.1,0.2,0.2,0.2c0.1-0.3,0-0.6,0-0.9c0-0.2,0-0.4,0.3-0.4
			c0.3,0,0.4,0.1,0.4,0.3c0.1,0.3,0.1,0.6,0.1,0.9c0.3-0.1,0.3-0.3,0.4-0.5c0.1-0.2,0.2-0.4,0.5-0.2c0.2,0.1,0.2,0.3,0.2,0.5
			c0,0.1-0.1,0.3-0.2,0.5c0.5,0,1,0,1.5,0c1.1-0.1,2.2-0.2,3.3-0.3c0.5,0,1-0.2,1.4-0.4c0.5-0.3,1.1-0.4,1.7-0.3
			c1.1,0.2,2.3,0.3,3.4,0.5c0.9,0.1,1.6,0.5,2.4,0.9c0.5,0.3,1,0.5,1.5,0.8c0.2-0.1,0.1-0.3,0.1-0.4c0-0.2,0.1-0.3,0.3-0.3
			c0.2,0,0.3,0.1,0.4,0.3c0.2,0.3,0,0.7,0.2,1.1c0.2-0.3,0.4-0.6,0.6-0.9c0.1-0.1,0.2-0.2,0.3-0.2c0.2,0.1,0.2,0.2,0.2,0.4
			c-0.1,0.2-0.2,0.5-0.3,0.7c0.2,0.1,0.4,0,0.7,0c0.2,0,0.4-0.1,0.5-0.1c0.2,0,0.5-0.1,0.6,0.2c0.1,0.3-0.2,0.4-0.4,0.4
			c-0.1,0-0.2,0.1-0.2,0.3c1.3,0.3,2.6,0.7,3.9,1c1.3,0.3,2.6,0.8,3.9,0.9c0.2-0.2,0-0.3,0-0.4c-0.1-0.3-0.2-0.6,0.1-0.7
			c0.3-0.1,0.4,0.1,0.6,0.4c0.1,0.3,0.4,0.6,0.7,0.9C68,76,68,75.7,68,75.3c0-0.2,0.2-0.3,0.4-0.3c0.2,0,0.3,0.1,0.4,0.3
			c0,0.1,0,0.1,0,0.2c0,0.1,0,0.1,0,0.2c0.2,0,0.3-0.2,0.5-0.3c0.1-0.1,0.3-0.2,0.5,0c0.2,0.1,0.1,0.3,0,0.5c0,0,0,0.1,0,0.2
			c0.6-0.3,1.3-0.4,2-0.6c0.9-0.3,1.9-0.1,2.9,0c1.4,0.1,2.8,0.5,4.3,0.7c0.7,0.1,1.3,0.3,2,0.4c0-0.2-0.2-0.3-0.2-0.4
			c-0.1-0.2-0.1-0.3,0-0.5c0.1-0.1,0.3-0.1,0.4,0c0.3,0.2,0.5,0.5,0.8,0.6c0.2-0.1,0.1-0.3,0.1-0.4c0.1-0.4,0.2-0.4,0.6-0.2
			c0.2,0.1,0.3,0.1,0.5,0c0.1-0.1,0.1-0.1,0.2-0.2c0.1-0.1,0.3-0.2,0.4-0.1c0.1,0.1,0.1,0.3,0.1,0.4c-0.1,0.4-0.5,0.5-0.6,0.8
			c0.1,0.2,0.2,0.2,0.3,0.1c1.4-0.6,2.9-1.1,4.1-2c0.9-0.7,1.5-1.7,1.7-2.9c0.1-0.8,0.6-1.2,1.3-1.3c0.4-0.1,0.8-0.2,1-0.6
			c0.2-0.3,0.4-0.4,0.8-0.3c0.2,0.1,0.4,0,0.6-0.1c0.2-0.1,0.4-0.1,0.5,0.1c0.1,0.2,0,0.4-0.2,0.5c-0.2,0.1-0.3,0.3-0.5,0.4
			c-1.3,0.6-2.1,1.7-2.9,2.8c-0.6,0.7-1.1,1.4-1.4,2.3c-0.3,0.9-1,1.5-2,1.7c-1,0.3-1.9,0.5-3,0.4c0.2,0.4,0.5,0.5,0.7,0.7
			c0.1,0.1,0.3,0.2,0.2,0.4C84.3,79,84.1,79,83.9,79c-0.3,0-0.7-0.2-0.8-0.5c-0.1-0.2-0.3-0.5-0.5-0.5c-0.1,0.1-0.1,0.2-0.1,0.3
			c0,0.3-0.1,0.6-0.4,0.6c-0.3,0.1-0.6,0.1-0.8-0.2c-0.1-0.2-0.2-0.3-0.5-0.2c-0.3,0.1-0.5,0-0.6-0.3c-0.1-0.4,0.1-0.5,0.4-0.6
			c0.1,0,0.2-0.1,0.2-0.2c-0.6-0.1-1.2-0.1-1.7-0.1c-1-0.1-2-0.1-3-0.3c-0.8-0.2-1.6,0-2.4,0c-1.5,0.1-3,0.3-4.6,0.5
			c0.2,0.3,0.5,0.6,0.8,0.8c0.2,0.1,0.3,0.2,0.4,0.4c0.2,0.3,0,0.4-0.2,0.6c-0.2,0.2-0.3,0.1-0.4-0.1c-0.2-0.2-0.4-0.3-0.6-0.5
			c-0.1-0.1-0.3-0.3-0.4-0.2c-0.5,0.1-0.7-0.1-0.7-0.6c0-0.1-0.2-0.1-0.3-0.1c-0.1,0.1-0.3,0.2-0.4,0.3c-0.1,0.1-0.2,0.2-0.4,0.3
			c-0.4,0.2-0.6,0.1-0.7-0.4c0-0.5,0-0.5-0.5-0.5c-1-0.1-2.1-0.2-3.1-0.3c-0.6-0.1-1.2-0.4-1.8-0.6c-0.9-0.3-1.7-0.8-2.6-1.2
			c-0.2-0.1-0.5-0.2-0.7-0.4c-0.1,0.2,0,0.3,0.1,0.3c0.1,0.2,0.4,0.3,0.2,0.6c-0.2,0.3-0.6,0.3-0.9,0.1c-0.1-0.1-0.3-0.2-0.5-0.2
			c-0.5-0.1-0.5-0.3-0.4-0.7c0-0.1,0.2-0.2,0.1-0.4c-0.4-0.1-0.7-0.1-1.1,0.1c-0.2,0.1-0.4,0.1-0.6,0.1c-0.2,0-0.3-0.1-0.4-0.3
			c0-0.2,0.1-0.2,0.2-0.3c0.1-0.1,0.2-0.1,0.3-0.3c-0.7-0.1-1.4-0.5-2.1-0.7c-1.3-0.4-2.7-0.7-4.1-0.9c-0.8-0.1-1.5-0.1-2.3-0.2
			c-0.3,0-0.5,0.1-0.8,0.2c-1,0.4-2,0.8-3.1,1.2C41.7,73.7,41.2,74,40.7,74z M35.4,72.7c0.7,0.4,1.4,0.5,2.1,0.7
			c0.2,0.1,0.4,0,0.5-0.1c0.1-0.1,0.3-0.2,0.3-0.4c0-0.2-0.2-0.2-0.4-0.3C37.1,72.5,36.3,72.5,35.4,72.7z M43.3,72.4
			c-1.1,0.1-2.2,0.2-3.4,0.2c0.4,0.3,0.7,0.5,1,0.5C41.8,73,42.6,72.9,43.3,72.4z M74.5,76.2c-1.4-0.3-3.2-0.1-3.8,0.4
			C71.9,76.5,73.2,76.2,74.5,76.2z M50.5,72C50.5,72,50.5,72,50.5,72c1,0.3,1.9,0.6,2.9,0.8C52.5,72.3,51.6,71.8,50.5,72z
			 M85.5,76.6c0,0,0.1,0.1,0.1,0.1c0.6-0.3,1.4-0.3,1.8-1C86.7,76,86.1,76.3,85.5,76.6z M61.2,75.9c0.8,0.3,1.5,0.7,2.5,0.7
			C62.8,76.1,62,76.1,61.2,75.9z"/>
	</g>
</g>
</svg>
