<?xml version="1.0" encoding="utf-8"?>
<!-- Generator: Adobe Illustrator 20.0.0, SVG Export Plug-In . SVG Version: 6.00 Build 0)  -->
<svg version="1.1" id="Layer_1" xmlns="http://www.w3.org/2000/svg" xmlns:xlink="http://www.w3.org/1999/xlink" x="0px" y="0px"
	 viewBox="0 0 127.7 22.3" style="enable-background:new 0 0 127.7 22.3;" xml:space="preserve">
<style type="text/css">
	.st0{fill-rule:evenodd;clip-rule:evenodd;fill:#F3ED76;stroke:#F3ED76;stroke-miterlimit:10;}
	.st1{fill-rule:evenodd;clip-rule:evenodd;fill:#F3ED76;stroke:#F3ED76;stroke-width:2;stroke-miterlimit:10;}
	.st2{fill-rule:evenodd;clip-rule:evenodd;fill:#F3ED76;}
</style>
<g>
	<path class="st0" d="M8.1,9.3c0.2-0.1,0.4-0.1,0.6-0.1C8.9,9.3,9,9.2,9,9c0-0.5,0.1-1,0.2-1.5c0.1-0.6,0.3-1.2,0.5-1.8
		c0.2-0.5,0.6-0.8,1.1-1c0.1,0,0.1,0,0.2-0.1c0.3-0.1,0.5-0.2,0.8-0.3c0.5-0.2,1.1-0.2,1.7-0.3c0,0,0.1,0,0.1,0
		c0.3-0.1,0.3,0,0.5,0.2c0.3,0.5,0.1,1-0.1,1.4C14,5.9,13.8,6,13.6,6.1c-0.5,0.2-0.9,0.3-1.4,0.3c-0.1,0-0.2,0.1-0.3,0.1
		c-0.4,0.3-0.4,0.7-0.4,1c0,0.4-0.1,0.9-0.1,1.3c0,0.2,0,0.2,0.2,0.2c0.4,0,0.7,0.1,1.1,0.2c0.2,0.1,0.3,0.2,0.3,0.4
		c0,0.6-0.1,0.9-0.7,1.1c-0.1,0.1-0.3,0.1-0.4,0.1c-0.2,0-0.4,0.1-0.7,0.2c-0.1,0-0.1,0.1-0.1,0.2c0,0.6,0,1.2,0,1.8
		c-0.1,0.5-0.1,1-0.1,1.5c0,0.5,0,0.9,0,1.4c0,0.2,0,0.4-0.1,0.5c-0.1,0.3-0.2,0.5-0.5,0.6c-0.1,0-0.2,0.1-0.2,0.1
		c-0.1,0.1-0.3,0.1-0.5,0.1c-0.3,0-0.6,0-0.8-0.1c-0.3-0.1-0.4-0.2-0.3-0.5c0-0.1,0.1-0.3,0-0.4c0-0.1,0-0.1,0-0.2
		c0.1-0.4,0.1-0.8,0.1-1.2c0-0.9,0.1-1.7,0.2-2.6c0-0.3,0-0.6,0.1-1c0-0.1-0.1-0.2-0.2-0.2c-0.3,0-0.5,0-0.8,0
		c-0.5,0.1-0.7-0.1-0.9-0.5c0-0.1-0.1-0.2-0.1-0.4c-0.1-0.3,0.1-0.5,0.4-0.7c0.2-0.1,0.3-0.2,0.5-0.2C7.7,9.4,7.9,9.4,8.1,9.3z"/>
	<path class="st1" d="M18.8,6.5c-1.1-2-2.9-3.6-5-4.5c-2.2-1-4.7-1.2-7.1-0.6C6.5,1.4,6.3,1.5,6.1,1.6C5.9,1.7,5.6,1.7,5.3,1.8
		c-0.1,0-0.1,0.1-0.1,0.1C3.5,3.2,2.1,4.9,1.4,7C0.8,9,0.9,11,1.5,12.9c0.6,1.9,1.6,3.6,3,5c1.4,1.3,3.1,2.2,5,2.5
		c2.1,0.3,4.1-0.3,5.8-1.4c2.1-1.4,3.9-3.5,4.5-6C20.4,10.7,19.9,8.4,18.8,6.5z M19.8,12.4c-0.5,2.6-2.2,4.8-4.3,6.3
		c-1.7,1.2-3.8,1.9-5.9,1.6C7.7,20,6,19,4.6,17.7c-1.4-1.4-2.5-3.1-3-5C1,10.8,1,8.7,1.7,6.8c0.7-2,2.1-3.7,3.8-4.9c0,0,0,0,0,0
		c0.2,0,0.3-0.1,0.5-0.1c0.2,0,0.4-0.1,0.5-0.2c0.3-0.1,0.6-0.2,0.9-0.2c0.6-0.1,1.2-0.2,1.9-0.2c1.2,0,2.4,0.2,3.5,0.6
		C15.1,2.5,17,4,18.3,6C19.5,7.8,20.2,10.1,19.8,12.4z"/>
	<path class="st2" d="M87.5,11.3C87.5,11.3,87.5,11.3,87.5,11.3c-0.3-0.2-0.5-0.5-0.6-0.9c0,0,0-0.1,0-0.1c-0.1-0.1-0.1-0.2-0.2-0.4
		c0-0.3-0.1-0.5-0.1-0.8c0-0.3,0.2-0.4,0.5-0.4c0.1,0,0.2,0,0.4,0c0.1,0,0.1,0,0.1-0.1c0-0.1,0-0.1,0-0.1s-0.1-0.1-0.1-0.1
		c-0.1-0.1-0.2-0.2-0.2-0.4c0,0,0,0,0,0c-0.1-0.5,0.1-1,0.2-1.4c0-0.1,0.1-0.1,0.1-0.2c0.1-0.1,0.1-0.3,0.2-0.4
		c0-0.1,0.1-0.2,0.1-0.3C88,5.5,88,5.4,88.2,5.4c0.2,0,0.3,0.1,0.4,0.3c0,0.1,0.1,0.2,0,0.3c-0.1,0.2,0,0.5,0.1,0.7
		c0.2,0.5,0.4,0.9,0.8,1.2c0.2,0.2,0.3,0.4,0.5,0.5c0.2,0.2,0.4,0.3,0.7,0.2c0.3-0.1,0.6,0,0.9,0c0.2,0,0.2,0,0.2-0.1
		c0-0.1,0-0.1,0-0.2c0.1-0.3,0.2-0.6,0.4-0.9c0.1-0.2,0.3-0.3,0.5-0.5c0.2-0.1,0.3-0.2,0.5-0.3c0.4-0.2,0.8-0.2,1.2,0
		c0.2,0.1,0.3,0.2,0.4,0.4c0,0,0,0.1,0.1,0.1c0.2,0,0.3,0.2,0.4,0.3c0.1,0.1,0.2,0.1,0.3,0.1c0.1,0,0.2-0.1,0.3-0.2
		c0.1-0.1,0.3-0.2,0.4-0.3c0.2-0.1,0.3,0,0.4,0.2c0,0.2,0,0.4-0.2,0.5c-0.1,0.1-0.1,0.1-0.1,0.2c0,0.1,0.1,0,0.1,0
		c0.1,0,0.2,0,0.3,0c0.2,0,0.2,0.1,0.1,0.3c-0.1,0.1-0.2,0.2-0.3,0.3c-0.1,0-0.2,0.1-0.3,0.2C96.1,9,96,9.1,96,9.2
		c-0.1,0.7-0.2,1.5-0.3,2.2c0,0.1,0,0.3-0.1,0.4c-0.1,0.2-0.1,0.4-0.2,0.5c-0.2,0.3-0.3,0.7-0.4,1c-0.1,0.3-0.3,0.6-0.5,0.8
		c0,0.1-0.1,0.1-0.1,0.2c-0.1,0.1-0.1,0.2-0.2,0.2c0,0,0,0-0.1,0c-0.3,0.4-0.7,0.6-1.1,0.9c-0.4,0.3-0.8,0.5-1.2,0.6
		c-0.3,0.1-0.6,0.2-0.9,0.3c-0.1,0.1-0.3,0.1-0.4,0.2c-0.2,0.1-0.5,0.2-0.8,0.3c-0.4,0.1-0.9,0.1-1.3,0.2c-0.2,0-0.3,0-0.5,0
		c-0.3,0-0.5-0.1-0.8-0.1c-0.3-0.1-0.6-0.2-0.9-0.2c-0.3-0.1-0.6-0.2-0.8-0.5C85.2,16.2,85,16,85,15.7c0-0.1,0-0.1,0-0.1
		c-0.1-0.2,0-0.4,0.3-0.5c0.3,0,0.6-0.1,0.8-0.2c0.2-0.1,0.4-0.2,0.6-0.2c0.3-0.1,0.6-0.2,0.8-0.3c0.2-0.1,0.3-0.2,0.5-0.3
		c0.1-0.1,0.1-0.1,0-0.2c-0.2-0.2-0.4-0.3-0.5-0.5c-0.3-0.4-0.6-0.7-0.6-1.2c-0.1-0.2-0.1-0.4,0-0.6c0-0.3,0.2-0.4,0.4-0.3
		C87.3,11.3,87.4,11.4,87.5,11.3z"/>
	<path class="st1" d="M99.2,7.2c-1.1-2-2.9-3.6-5-4.5c-2.2-1-4.7-1.2-7.1-0.6c-0.2,0.1-0.4,0.1-0.6,0.2c-0.3,0.1-0.6,0.1-0.9,0.2
		c-0.1,0-0.1,0.1-0.1,0.1c-1.8,1.3-3.2,3.1-3.8,5.2c-0.6,1.9-0.5,4,0.1,5.9c0.6,1.9,1.6,3.6,3,5c1.4,1.3,3.1,2.2,5,2.5
		c2.1,0.3,4.1-0.3,5.8-1.4c2.1-1.4,3.9-3.5,4.5-6C100.7,11.5,100.3,9.2,99.2,7.2z M100.1,13.1c-0.5,2.6-2.2,4.8-4.3,6.3
		c-1.7,1.2-3.8,1.9-5.9,1.6c-1.9-0.2-3.6-1.2-5-2.5c-1.4-1.4-2.5-3.1-3-5c-0.6-1.9-0.6-4,0.1-5.9c0.7-2,2.1-3.7,3.8-4.9c0,0,0,0,0,0
		c0.2,0,0.3-0.1,0.5-0.1c0.2,0,0.4-0.1,0.5-0.2c0.3-0.1,0.6-0.2,0.9-0.2c0.6-0.1,1.2-0.2,1.9-0.2c1.2,0,2.4,0.2,3.5,0.6
		c2.2,0.8,4.1,2.3,5.4,4.2C99.9,8.6,100.5,10.9,100.1,13.1z"/>
	<path class="st2" d="M68.5,6.9c0.2,0.5,0.2,1,0.2,1.5c0,0.4-0.1,0.9-0.2,1.3c0,0.2-0.1,0.4-0.2,0.6c-0.2,0.3-0.4,0.7-0.6,1
		c-0.3,0.3-0.6,0.7-0.9,1c-0.3,0.4-0.8,0.6-1.2,0.8c-0.1,0-0.2,0.1-0.3,0.1c-0.2,0.1-0.4,0.2-0.7,0.1c-0.1,0-0.2,0-0.2,0
		c-0.3,0-0.6,0-0.9-0.1c-0.1,0-0.1,0-0.2,0.1c-0.1,0.1-0.1,0.3,0,0.4c0,0.3,0,0.6-0.1,0.9C63,15,63,15.4,63,15.8
		c-0.1,0.4-0.1,0.8-0.2,1.2c-0.1,0.4-0.3,0.7-0.5,1c-0.2,0.2-0.4,0.2-0.7,0.3c-0.1,0-0.3-0.1-0.3-0.2c-0.1-0.3-0.2-0.5-0.1-0.8
		c0.1-0.4,0.2-0.9,0.4-1.3c0.1-0.2,0.1-0.5,0.2-0.8c0-0.1,0-0.1,0-0.2c0.2-0.4,0.2-0.8,0.2-1.2c0.1-0.3,0.2-0.5,0.2-0.8
		c0-0.1,0-0.3,0-0.4c-0.1-0.4,0-0.7,0-1.1c0-0.2,0-0.5,0-0.7c0-0.5-0.1-0.9,0-1.4c0-0.5,0.2-0.9,0.4-1.3c0.2-0.4,0.6-0.5,1-0.4
		c0.2,0,0.4,0.1,0.6,0.2c0.3,0.1,0.4,0.4,0.5,0.7c0,0.1,0,0.2,0.1,0.3c0.1,0.3,0.1,0.5,0,0.8c-0.1,0.2-0.1,0.4-0.1,0.6
		c0,0.1,0,0.3-0.1,0.3c0,0-0.1,0.1-0.1,0.2c-0.1,0.2-0.1,0.2,0.1,0.4c0,0,0.1,0,0.1,0c0.2,0.2,0.4,0.2,0.7,0.2
		c0.3-0.1,0.5-0.2,0.7-0.5c0.2-0.3,0.4-0.7,0.6-1c0.2-0.3,0.2-0.6,0.3-1c0.1-0.2,0-0.5-0.1-0.7c-0.1-0.4-0.2-0.7-0.4-1
		c-0.3-0.5-1.2-0.9-1.7-0.8c-0.3,0.1-0.6,0.1-0.9,0.1c-0.3,0-0.5,0.1-0.7,0.1c-0.2,0.1-0.3,0.3-0.4,0.4c-0.2,0.3-0.5,0.6-0.6,1
		c-0.1,0.3-0.2,0.5-0.2,0.8c0,0,0,0.1,0,0.1c-0.1,0.3-0.1,0.6,0,0.8c0,0.1,0,0.1,0,0.2c0,0.1,0,0.2,0,0.3c0.1,0.2-0.1,0.4-0.3,0.5
		c-0.2,0-0.3,0.1-0.5,0.1c-0.5,0.1-0.8-0.1-1-0.5c-0.1-0.2-0.1-0.3-0.1-0.5c0-0.1,0-0.2-0.1-0.3c-0.2-0.4-0.1-0.9,0.1-1.3
		c0.2-0.5,0.4-0.9,0.7-1.3c0.1-0.2,0.3-0.4,0.5-0.6c0.1-0.2,0.3-0.4,0.4-0.6c0.1-0.2,0.3-0.4,0.6-0.5c0.4-0.2,0.8-0.5,1.2-0.5
		c0.1,0,0.3-0.1,0.4-0.1c0.3-0.1,0.7,0,1,0c0.1,0,0.2,0,0.3,0c0.6-0.2,1.1,0,1.6,0.2c0.3,0.1,0.6,0.3,0.9,0.5
		C68,5.8,68.2,6.4,68.5,6.9z"/>
	<path class="st1" d="M72.5,7.2c-1.1-2-2.9-3.6-5-4.5c-2.2-1-4.7-1.2-7.1-0.6c-0.2,0.1-0.4,0.1-0.6,0.2c-0.3,0.1-0.6,0.1-0.9,0.2
		c-0.1,0-0.1,0.1-0.1,0.1c-1.8,1.3-3.2,3.1-3.8,5.2c-0.6,1.9-0.5,4,0.1,5.9c0.6,1.9,1.6,3.6,3,5c1.4,1.3,3.1,2.2,5,2.5
		c2.1,0.3,4.1-0.3,5.8-1.4c2.1-1.4,3.9-3.5,4.5-6C74,11.5,73.6,9.2,72.5,7.2z M73.4,13.1c-0.5,2.6-2.2,4.8-4.3,6.3
		c-1.7,1.2-3.8,1.9-5.9,1.6c-1.9-0.2-3.6-1.2-5-2.5c-1.4-1.4-2.5-3.1-3-5c-0.6-1.9-0.6-4,0.1-5.9c0.7-2,2.1-3.7,3.8-4.9c0,0,0,0,0,0
		c0.2,0,0.3-0.1,0.5-0.1c0.2,0,0.4-0.1,0.5-0.2c0.3-0.1,0.6-0.2,0.9-0.2C61.7,2,62.4,1.9,63,1.9c1.2,0,2.4,0.2,3.5,0.6
		c2.2,0.8,4.1,2.3,5.4,4.2C73.2,8.6,73.8,10.9,73.4,13.1z"/>
	<path class="st2" d="M120,9.9c-0.3,0-0.5,0.1-0.8,0.1c-0.2,0-0.5,0.1-0.7,0.1c-0.2,0-0.3,0.1-0.3,0.3c-0.1,0.3-0.2,0.6-0.2,0.8
		c-0.1,0.4-0.1,0.7-0.3,1.1c0,0.1,0,0.1,0,0.2c0,0.2,0,0.5-0.1,0.7c0,0.2-0.1,0.3-0.1,0.5c0,0,0,0.1,0,0.1c-0.2,0.4-0.2,0.9-0.3,1.4
		c0,0.2,0,0.3,0.1,0.5c0.2,0.1,0.4,0.1,0.5,0c0.3-0.3,0.7-0.3,1.1-0.6c0.3-0.2,0.6-0.3,0.9-0.2c0.3,0,0.7,0.4,0.6,0.8
		c0,0.2-0.1,0.4-0.1,0.6c-0.2,0.5-0.6,0.8-1.1,1c-0.1,0-0.2,0.1-0.3,0.1c-0.3,0-0.6,0.2-0.9,0.2c-0.8,0.2-1.5,0.4-2.3,0.3
		c-0.2,0-0.4-0.1-0.6-0.1c-0.2,0-0.3-0.1-0.4-0.4c-0.1-0.3-0.2-0.6-0.2-1c0-0.2,0-0.5,0.1-0.7c0-0.1,0.1-0.2,0-0.3
		c0-0.2,0-0.4,0.1-0.5c0.2-0.6,0.3-1.2,0.4-1.9c0-0.3,0.1-0.5,0.1-0.8c0-0.2,0.1-0.4,0.1-0.6c0-0.2,0.1-0.5,0.1-0.7
		c0-0.1,0-0.1,0-0.2c0-0.2,0-0.2-0.2-0.2c-0.4,0-0.8,0-1.2,0c-0.2,0-0.3,0-0.5,0c-0.2-0.1-0.3-0.2-0.3-0.3c0-0.2-0.1-0.3-0.1-0.5
		c0-0.3,0.1-0.6,0.4-0.7c0.2-0.1,0.4-0.2,0.6-0.4c0.1-0.1,0.2-0.2,0.4-0.2c0.3-0.1,0.4-0.3,0.7-0.4c0.1-0.1,0.2-0.1,0.2-0.3
		c0-0.3,0.2-0.5,0.3-0.8c0.1-0.2,0.1-0.4,0.1-0.7c0-0.7,0.3-1.3,1.1-1.3c0.2,0,0.4,0,0.7,0.1c0.1,0,0.2,0,0.3,0c0.2,0,0.4,0,0.5,0.1
		c0.4,0.2,0.5,0.4,0.5,0.8c-0.1,0.3,0,0.7,0,1c0,0.2,0,0.4,0,0.6c0,0.1,0,0.1,0,0.2c0,0.2,0,0.3,0.3,0.2c0.3-0.1,0.6-0.1,0.9-0.1
		c0.2,0,0.4,0,0.6-0.1c0.2-0.1,0.5-0.1,0.7-0.1c0.2,0,0.3,0.1,0.3,0.3c0.1,0.3,0.2,0.6,0.1,0.9c0,0.2-0.1,0.4-0.3,0.5
		c-0.3,0.3-0.7,0.5-1.1,0.5C120.2,9.8,120.1,9.9,120,9.9C120,9.9,120,9.9,120,9.9z"/>
	<path class="st1" d="M125.4,7.2c-1.1-2-2.9-3.6-5-4.5c-2.2-1-4.7-1.2-7.1-0.6c-0.2,0.1-0.4,0.1-0.6,0.2c-0.3,0.1-0.6,0.1-0.9,0.2
		c-0.1,0-0.1,0.1-0.1,0.1c-1.8,1.3-3.2,3.1-3.8,5.2c-0.6,1.9-0.5,4,0.1,5.9c0.6,1.9,1.6,3.6,3,5c1.4,1.3,3.1,2.2,5,2.5
		c2.1,0.3,4.1-0.3,5.8-1.4c2.1-1.4,3.9-3.5,4.5-6C127,11.5,126.5,9.2,125.4,7.2z M126.4,13.1c-0.5,2.6-2.2,4.8-4.3,6.3
		c-1.7,1.2-3.8,1.9-5.9,1.6c-1.9-0.2-3.6-1.2-5-2.5c-1.4-1.4-2.5-3.1-3-5c-0.6-1.9-0.6-4,0.1-5.9c0.7-2,2.1-3.7,3.8-4.9c0,0,0,0,0,0
		c0.2,0,0.3-0.1,0.5-0.1c0.2,0,0.4-0.1,0.5-0.2c0.3-0.1,0.6-0.2,0.9-0.2c0.6-0.1,1.2-0.2,1.9-0.2c1.2,0,2.4,0.2,3.5,0.6
		c2.2,0.8,4.1,2.3,5.4,4.2C126.2,8.6,126.8,10.9,126.4,13.1z"/>
	<path class="st0" d="M42.4,8.5c0.1,0.4,0.1,0.9,0.2,1.4c0,0.2,0,0.4,0,0.6c-0.1,0.6-0.1,1.1-0.2,1.7c0,0.4-0.1,0.8-0.2,1.2
		c0,0.2-0.1,0.4,0,0.6c0.1,0.2,0,0.3,0,0.5c0,0.2-0.1,0.4-0.2,0.6c-0.1,0.3-0.4,0.4-0.6,0.5c-0.5,0.2-1.1,0.3-1.6,0.4
		c-0.7,0.1-1.3,0.2-2,0.3c-0.1,0-0.3,0-0.4,0.1c-0.1,0-0.1,0-0.2,0c-0.5,0-1,0-1.5,0c-0.2,0-0.5-0.1-0.7-0.1c-0.1,0-0.2,0-0.3,0
		c-0.5,0.1-1.1,0.1-1.6,0c-0.1,0-0.2-0.1-0.3-0.1c-0.3-0.1-0.5-0.2-0.8-0.2c-0.1,0-0.2,0-0.2-0.1c0-0.1,0-0.1,0.1-0.1
		c0.1,0,0.2-0.1,0.2-0.2c0-0.1,0-0.2,0-0.3c0-0.1,0.1-0.2,0-0.3c-0.1-0.6,0-1.1,0-1.7c0-0.4,0.1-0.7,0.1-1.1c0-0.4,0.1-0.8,0.1-1.2
		c0-0.4-0.1-0.7,0-1.1c0-0.1,0-0.1,0.1-0.2c0.2-0.3,0.2-0.7,0.2-1c0-0.4,0.2-0.7,0.4-1.1c0.2-0.3,0.5-0.4,0.8-0.5
		C34,7,34.4,6.9,34.9,6.9c0.3,0,0.6,0,0.9,0c0.3,0,0.7-0.1,1-0.1c0.3,0,0.6,0.1,0.8,0.1c0.5,0,0.9,0,1.4,0c0.4,0,0.7,0,1.1,0
		c0.1,0,0.1,0,0.2,0c0.5-0.1,1,0.1,1.5,0.1c0.3,0,0.5,0.2,0.5,0.5C42.3,7.8,42.4,8.1,42.4,8.5z M39.4,14.7c0.3,0,0.6-0.2,1-0.3
		c0.3-0.1,0.5-0.3,0.5-0.5c0-0.1,0.1-0.2,0.1-0.3c0-0.4,0.1-0.8,0.1-1.2c0-0.3,0-0.3-0.2-0.3c-0.1,0-0.1,0-0.2,0c-0.1,0-0.1,0-0.2,0
		c-0.2-0.2-0.3-0.2-0.6-0.1c-0.1,0-0.2,0-0.3,0c-0.4,0-0.4,0-0.4,0.3c-0.2,0.7-0.5,1.2-1.2,1.3c-0.3,0.1-0.5,0.1-0.8,0.2
		c-1,0.2-1.6-0.3-1.7-1.2c-0.1-0.4-0.1-0.4-0.5-0.4c0,0-0.1,0-0.1,0c-0.2,0-0.3,0.1-0.5,0.2c-0.2,0.1-0.5,0.1-0.7-0.1
		c-0.1-0.1-0.2,0-0.2,0.1c0,0.3-0.1,0.6-0.1,0.9c0,0.2,0,0.4,0,0.6c0,0.2-0.1,0.5,0.1,0.7c0,0,0,0.1,0,0.1c0.1,0.3,0.2,0.4,0.5,0.4
		c0,0,0.1,0,0.1,0c0.6-0.1,1.1-0.1,1.7-0.1c0.1,0,0.2,0,0.3,0c0.4,0,0.8,0.1,1.2,0c0.4-0.1,0.8-0.1,1.2,0c0.2,0,0.5,0,0.7,0
		C39.2,14.7,39.3,14.7,39.4,14.7z M37.9,11.8c0,0,0-0.1,0-0.2c0-0.1,0-0.2-0.1-0.3c-0.1-0.2-0.2-0.3-0.4-0.2c-0.1,0-0.3,0.1-0.4,0.1
		c-0.2,0.1-0.3,0.2-0.3,0.4c0,0.1,0,0.1,0,0.2c-0.1,0.3,0,0.6,0.2,0.9c0.1,0.1,0.2,0.1,0.3,0.1C37.6,12.6,37.9,12.3,37.9,11.8z
		 M40.7,9.4c0.1,0,0.2,0,0.3,0c0.1,0,0.2,0,0.2-0.1c0-0.1,0.1-0.2,0-0.3c-0.1-0.1-0.3-0.2-0.4-0.2c-0.2-0.1-0.3,0-0.5,0.1
		c-0.1,0.1-0.1,0.2,0,0.4c0.1,0.2,0.1,0.2,0.3,0.2C40.6,9.4,40.6,9.4,40.7,9.4z"/>
	<path class="st1" d="M45.3,7.3c-1.1-2-2.9-3.6-5-4.5c-2.2-1-4.7-1.2-7.1-0.5c-0.2,0.1-0.4,0.1-0.6,0.2c-0.3,0.1-0.6,0.1-0.9,0.2
		c-0.1,0-0.1,0.1-0.1,0.1c-1.8,1.3-3.2,3.1-3.8,5.2c-0.6,1.9-0.5,4,0.1,5.9c0.6,1.9,1.6,3.6,3,5c1.4,1.3,3.1,2.2,5,2.5
		c2.1,0.3,4.1-0.3,5.8-1.4c2.1-1.4,3.9-3.5,4.5-6C46.8,11.5,46.4,9.2,45.3,7.3z M46.2,13.2c-0.5,2.6-2.2,4.8-4.3,6.3
		c-1.7,1.2-3.8,1.9-5.9,1.6c-1.9-0.2-3.6-1.2-5-2.5c-1.4-1.4-2.5-3.1-3-5c-0.6-1.9-0.6-4,0.1-5.9c0.7-2,2.1-3.7,3.8-4.9c0,0,0,0,0,0
		c0.2,0,0.3-0.1,0.5-0.1c0.2,0,0.4-0.1,0.5-0.2c0.3-0.1,0.6-0.2,0.9-0.2C34.6,2.1,35.2,2,35.8,2c1.2,0,2.4,0.2,3.5,0.6
		c2.2,0.8,4.1,2.3,5.4,4.2C46,8.6,46.6,10.9,46.2,13.2z"/>
</g>
</svg>
