<?xml version="1.0" encoding="utf-8"?>
<!-- Generator: Adobe Illustrator 20.0.0, SVG Export Plug-In . SVG Version: 6.00 Build 0)  -->
<svg version="1.1" id="Layer_1" xmlns="http://www.w3.org/2000/svg" xmlns:xlink="http://www.w3.org/1999/xlink" x="0px" y="0px"
	 viewBox="0 0 162.2 110.9" style="enable-background:new 0 0 162.2 110.9;" xml:space="preserve">
<style type="text/css">
	.st0{fill-rule:evenodd;clip-rule:evenodd;fill:#FFFFFF;}
	.st1{fill-rule:evenodd;clip-rule:evenodd;}
</style>
<g>
	<rect class="st0" width="162.2" height="110.9"/>
	<g>
		<path class="st1" d="M67.6,81.1c0,0.6-0.1,1.1-0.1,1.6c0,0.8-0.4,1.6-0.7,2.3c-0.3,0.6-0.7,0.9-1.3,1.1c-0.4,0.2-0.7,0.1-0.9-0.2
			c-0.2-0.3-0.3-0.7-0.3-1.2c0-0.5,0-1,0-1.4c0-0.5,0-0.9,0-1.4c0-0.3-0.1-0.7-0.1-1c0.1-0.8,0.2-1.6,0.4-2.3c0.2-0.6,1-0.9,1.6-0.6
			c0.7,0.3,1,1,1.1,1.6C67.5,80.2,67.5,80.7,67.6,81.1z M66.9,81.5c0-0.3-0.1-0.5-0.1-0.8c-0.2-0.6-0.2-1.3-0.6-1.8
			c-0.2-0.3-0.5-0.3-0.6,0c-0.2,0.6-0.4,1.2-0.4,1.8c0,0.6,0,1.2,0,1.9c0,0.7,0,1.5,0.5,2.1c0,0.1,0.1,0.2,0.2,0.2
			c0.1,0,0.1-0.1,0.2-0.2c0.2-0.4,0.3-0.8,0.4-1.2C66.6,82.8,66.8,82.2,66.9,81.5z"/>
		<path class="st1" d="M56,83c0,0.1-0.1,0.2-0.1,0.3c-0.1,0.8-0.1,1.5-0.2,2.2c0,0.3,0,0.5,0.1,0.8c0,0.3-0.3,0.3-0.4,0.4
			c-0.1,0.1-0.3,0-0.4,0c-0.1-0.1-0.2-0.3-0.2-0.4c0.1-0.8,0.2-1.6,0.3-2.4c0.1-1,0.1-1.9,0.2-2.9c0-0.7,0-1.3-0.1-2
			c0-0.1,0-0.3,0.1-0.4c0-0.1,0.1-0.2,0.1-0.3c0-0.8,0.6-0.7,1.1-0.9c0.4-0.1,0.9,0.4,1.1,0.9c0.1,0.3,0.1,0.5,0.2,0.8
			c0.1,0.7,0.1,1.4-0.1,2c-0.1,0.4-0.3,0.8-0.8,1c-0.3,0.1-0.3,0.3-0.1,0.5c0.3,0.3,0.6,0.7,0.8,1c0.2,0.5,0.4,1,0.6,1.5
			c0.1,0.2,0.2,0.4,0.2,0.6c0,0.1-0.1,0.3-0.2,0.3c-0.1,0-0.3,0-0.3-0.1c-0.2-0.2-0.3-0.4-0.3-0.7c-0.1-0.4-0.2-0.7-0.4-1
			c-0.2-0.5-0.4-1-0.9-1.3C56.2,83.1,56.1,83.1,56,83z M56,82.1c0.1-0.1,0.2-0.2,0.3-0.3c0.3-0.4,0.7-0.7,0.7-1.3c0-0.5,0-0.9,0-1.4
			c0-0.2-0.1-0.4-0.3-0.6c-0.1-0.1-0.3-0.1-0.4-0.1c-0.1,0-0.1,0.2-0.2,0.3c-0.1,1-0.1,2-0.1,3C56,81.9,56,81.9,56,82.1z"/>
		<path class="st1" d="M97.7,78c0.3,0,0.5,0.1,0.6,0.4c0.3,0.9,0.6,1.8,0.8,2.7c0.1,0.5,0.1,1.1,0.1,1.7c0,0,0,0,0,0
			c0.5,0.5,0,1.1,0.1,1.7c0.1,0.4,0.1,0.9,0.1,1.3c0,0.3-0.1,0.5-0.5,0.6c-0.3,0.1-0.4-0.1-0.5-0.3c0,0,0-0.1,0-0.2
			c0.3-0.6,0.1-1.3,0.2-1.9c0-0.2-0.1-0.3-0.3-0.3c-0.5,0.1-1,0.1-1.5,0c-0.1,0-0.2,0.1-0.2,0.2c-0.1,0.4-0.3,0.8-0.1,1.2
			c0,0.1,0,0.3-0.1,0.4c-0.2,0.1-0.4,0.4-0.6,0.1c-0.1-0.1-0.2-0.4-0.1-0.6c0.2-0.9,0.4-1.8,0.7-2.7c0.1-0.5,0.3-1,0.4-1.5
			c0.2-0.9,0.3-1.7,0.5-2.6C97.1,78,97.2,78,97.7,78z M97.7,79.2C97.7,79.2,97.6,79.2,97.7,79.2c-0.1,0.1-0.1,0.2-0.1,0.2
			c-0.1,0.7-0.2,1.5-0.3,2.2c-0.1,0.4-0.2,0.9-0.3,1.3c0,0.2,0,0.3,0.2,0.4c0.3,0,0.6,0,0.9,0c0.4,0,0.5-0.1,0.4-0.4
			c-0.1-0.6-0.2-1.1-0.3-1.7c-0.1-0.6-0.2-1.2-0.3-1.8C97.8,79.3,97.7,79.3,97.7,79.2z"/>
		<path class="st1" d="M121.3,81.1c-0.1-0.7-0.1-1.5-0.2-2.2c0-0.3,0-0.7,0-1c0-0.1,0.4-0.2,0.6-0.2c0.1,0,0.3,0.2,0.3,0.4
			c0.1,0.4,0.1,0.8,0.1,1.1c0,0.9,0,1.8,0,2.7c-0.1,1.2-0.2,2.3-0.3,3.5c0,0.3,0,0.5,0,0.8c0,0.1,0,0.2-0.1,0.3
			c-0.1,0.1-0.2,0.3-0.3,0.4c-0.1,0.1-0.2,0.1-0.3,0.1c-0.1,0-0.3-0.2-0.2-0.3c0-0.9,0-1.9,0.2-2.8c0.1-0.3,0.1-0.7,0-1.1
			c0-0.1-0.2-0.2-0.3-0.2c-0.4,0-0.9,0.1-1.3,0.1c-0.1,0-0.2,0.2-0.2,0.3c0,0.9,0.1,1.8,0.1,2.7c0,0.3,0,0.6-0.1,0.8
			c0,0.1-0.3,0.2-0.4,0.2c-0.1,0-0.2-0.2-0.2-0.3c-0.1-0.5-0.1-1-0.2-1.6c0-0.5,0-0.9,0-1.4c0-1.2,0-2.3,0-3.5c0-0.5,0-1,0-1.6
			c0-0.1,0.1-0.3,0.2-0.3c0.1,0,0.2,0,0.3,0.1c0.3,0.3,0.4,0.6,0.4,1c0,0.6-0.1,1.3-0.1,1.9c0,0.2,0,0.4-0.1,0.6
			c0,0.2,0,0.3,0.3,0.3c0.4,0,0.9,0,1.3-0.1c0.1,0,0.2-0.1,0.2-0.2C121.3,81.4,121.3,81.2,121.3,81.1
			C121.3,81.1,121.3,81.1,121.3,81.1z"/>
		<path class="st1" d="M46.6,78.5c-0.8,0.1-1.4,0.2-2.1,0.2c-0.2,0-0.5-0.1-0.5-0.3c0-0.2,0.2-0.5,0.4-0.5c0.3,0,0.6,0,0.9,0
			c0.5,0,0.9-0.1,1.3-0.1c0.9-0.1,1.8-0.1,2.7-0.2c0.3,0,0.5,0.2,0.5,0.4c0,0.2-0.3,0.3-0.5,0.4c-0.5,0-1,0-1.4,0.1
			c-0.1,0-0.2,0.2-0.2,0.3c0,0.8-0.1,1.6-0.1,2.4c0,0.7,0,1.3,0,2c0,0.9,0,1.7,0,2.6c0,0.2-0.1,0.5-0.3,0.6
			c-0.2,0.1-0.5,0.1-0.7,0.1c-0.1,0-0.1-0.3-0.2-0.5c0-0.7,0-1.4,0-2.1c0-0.2,0-0.5,0-0.7c0-0.3,0-0.6,0-0.9c0-0.4,0.1-0.9,0.1-1.3
			C46.6,80,46.6,79.3,46.6,78.5z"/>
		<path class="st1" d="M75.3,80.8c-0.1,0.4-0.2,0.8-0.4,1.1c-0.2,0.4-0.5,0.7-1,0.7c-0.1,0-0.2,0.2-0.2,0.3c0,0.9,0,1.8-0.1,2.6
			c0,0.3-0.1,0.5-0.2,0.8c0,0.1-0.2,0.1-0.2,0.1c-0.1,0-0.2-0.1-0.2-0.2c0-0.2,0-0.4,0-0.7c0-0.9,0-1.9,0-2.8c0-1.2,0-2.4,0-3.5
			c0-0.3,0.1-0.6,0.2-0.9c0.1-0.4,0.8-0.4,1.2-0.2c0.5,0.4,0.8,0.9,0.9,1.5C75.2,80,75.3,80.4,75.3,80.8z M73.6,78.8
			c0,0.3,0,0.6,0,0.8c0,0.7,0,1.4,0.1,2.2c0,0.3,0.2,0.4,0.4,0.2c0.3-0.2,0.4-0.4,0.3-0.8c0-0.2-0.1-0.5-0.1-0.7
			c0-0.2-0.1-0.3-0.1-0.5c0-0.1-0.1-0.3-0.1-0.4C74.2,79.2,74,78.8,73.6,78.8z"/>
		<path class="st1" d="M113.9,84.5c0,0.1,0,0.2,0,0.3c-0.1,0.8-0.4,1.2-1.2,1.4c-0.5,0.1-0.9,0.2-1.3,0c-0.5-0.3-0.6-0.7-0.2-1.2
			c0.1-0.1,0.3-0.1,0.4,0c0.1,0.1,0.1,0.2,0.2,0.3c0.1,0.1,0.2,0.3,0.3,0.3c0.1,0,0.3-0.1,0.4-0.3c0.2-0.3,0.3-0.7,0.4-1.1
			c0.1-0.6,0.1-1.1-0.2-1.6c-0.3-0.4-0.6-0.6-1-0.6c-0.5,0-0.7-0.2-0.9-0.7c-0.2-0.7-0.2-1.5-0.1-2.2c0.1-0.7,0.4-1.3,1.1-1.6
			c0.4-0.2,0.8,0.1,1.1,0.3c0.5,0.4,0.8,1.1,0.4,1.7c-0.1,0.2-0.2,0.2-0.4,0.2c-0.2,0-0.2-0.2-0.2-0.3c-0.1-0.3-0.2-0.7-0.3-1
			c-0.1-0.3-0.5-0.3-0.6,0c-0.4,0.8-0.4,1.6-0.4,2.4c0,0.2,0.2,0.3,0.4,0.3c0.1,0,0.2,0,0.3,0c0.5,0,1,0.2,1.2,0.8
			c0.1,0.4,0.3,0.9,0.4,1.3C113.9,83.9,113.9,84,113.9,84.5z"/>
		<path class="st1" d="M87.6,82.7c0.2-0.9,0.3-1.8,0.5-2.6c0.1-0.5,0.4-1,0.7-1.4c0.4-0.4,0.9-0.6,1.4-0.5c0.5,0,0.9,0.8,0.6,1.2
			c-0.1,0.2-0.3,0.2-0.5,0.1c-0.1-0.1-0.1-0.1-0.2-0.2C90,79,89.7,79,89.5,79.3c-0.7,1-1.2,2-1.1,3.2c0,0.6,0,1.3,0.1,1.9
			c0.1,0.4,0.3,0.7,0.5,1c0.1,0.2,0.4,0.2,0.6,0.1c0.2-0.1,0.4-0.3,0.6-0.4c0.1-0.1,0.2-0.1,0.3-0.1c0.1,0,0.2,0.2,0.2,0.3
			c0,0.4-0.5,1-1,1c-0.2,0-0.5,0-0.7,0c-0.4-0.1-0.7-0.4-0.9-0.7c-0.4-0.9-0.5-1.8-0.6-2.7C87.7,82.8,87.7,82.8,87.6,82.7
			C87.7,82.8,87.6,82.8,87.6,82.7z"/>
		<path class="st1" d="M104.4,79.2c0,0.9,0.1,1.8,0.1,2.6c0,0.9,0,1.8,0,2.7c0,0.3,0.1,0.4,0.3,0.5c0.5,0.2,1,0.3,1.5,0.5
			c0.1,0,0.3,0.1,0.3,0.2c0,0.1-0.1,0.3-0.2,0.4c-0.2,0.1-0.5,0.1-0.7,0.1c-0.4,0-0.7-0.1-1.1-0.1c-0.5,0-0.8-0.2-0.8-0.7
			c-0.1-0.8-0.2-1.6-0.2-2.4c0-0.8,0-1.5,0-2.3c0-0.4-0.1-0.8-0.1-1.2c0-0.7,0-1.4,0-2.1c0-0.1,0.1-0.2,0.1-0.2c0.1,0,0.2,0,0.3,0.1
			c0.1,0.1,0.2,0.3,0.2,0.5C104.4,78.2,104.4,78.7,104.4,79.2C104.5,79.2,104.4,79.2,104.4,79.2z"/>
		<path class="st1" d="M80.6,86.6c-0.2-0.1-0.4-0.2-0.4-0.4c-0.1-0.2,0.1-0.3,0.3-0.5c0.1-0.1,0.2-0.3,0.2-0.5c0-1,0-1.9,0.1-2.9
			c0-0.8,0.1-1.6,0.1-2.5c0-0.3,0.1-0.7-0.2-1c-0.1-0.1-0.1-0.2,0.1-0.4c0.4-0.3,0.7-0.2,1.1,0c0.2,0.1,0.3,0.3,0,0.5
			c-0.2,0.2-0.2,0.3-0.3,0.6c0,0.6-0.1,1.1-0.2,1.7c-0.1,1.1-0.1,2.3-0.2,3.4c0,0.2,0,0.5,0,0.7c0,0.2,0,0.4,0.2,0.5
			c0.1,0.1,0.1,0.2,0.1,0.3c-0.1,0.1-0.2,0.2-0.3,0.2C81,86.5,80.9,86.5,80.6,86.6C80.7,86.5,80.7,86.5,80.6,86.6z"/>
	</g>
	<g>
		<path class="st1" d="M121.6,63.1c0-0.3,0.3-0.5,0.4-0.7c0.3-0.4,0.6-0.7,0.8-1.1c0.1-0.1,0.3-0.2,0.4-0.3c0,0,0.1,0,0.2,0
			c0.1,0,0.1,0.1,0.1,0.2c0,0.1-0.1,0.2-0.2,0.3c-0.4,0.6-0.8,1.1-1.2,1.7c-0.1,0.1-0.1,0.1-0.2,0.2c-0.1,0.1-0.2,0.2-0.3,0.1
			C121.4,63.3,121.5,63.2,121.6,63.1z"/>
		<path class="st1" d="M118.9,60.8c0.1-0.3,0.2-0.3,0.4-0.2c0,0,0.1,0,0.1,0c0.3,0.1,0.3,0.1,0.2,0.4c-0.1,0.3,0.1,0.6,0.1,0.8
			c0,0.2,0.1,0.4,0.2,0.5c0.1,0.2,0,0.3-0.2,0.3c-0.2,0.1-0.3,0.1-0.4-0.1c0-0.1-0.1-0.1-0.1-0.2c-0.1-0.4-0.2-0.8-0.3-1.1
			c0-0.1,0-0.1-0.1-0.2C118.8,61.1,118.8,60.9,118.9,60.8z"/>
		<path class="st1" d="M122.3,65.3c-0.1,0-0.1,0-0.2-0.1c-0.1,0-0.3-0.1-0.2-0.3c0-0.2,0.2-0.2,0.3-0.2c0.3,0.1,0.5,0.1,0.8,0.2
			c0.3,0.1,0.6,0.2,0.9,0.2c0.3,0,0.5,0.1,0.7,0.2c0.1,0,0.2,0.1,0.2,0.2c-0.1,0.1-0.1,0.2-0.3,0.2C123.7,65.7,123,65.6,122.3,65.3z
			"/>
		<path class="st1" d="M120.2,66.5c-0.2,0.2-0.2,0.6-0.4,0.9c-0.2,0.3-0.2,0.6-0.3,0.9c-0.1,0.1-0.2,0.3-0.4,0.3
			c-0.2,0-0.3-0.1-0.2-0.3c0.2-0.4,0.3-0.8,0.5-1.1c0-0.1,0.1-0.2,0.1-0.2c0.1-0.3,0.2-0.5,0.4-0.7c0.1-0.1,0.2-0.1,0.3-0.1
			C120.2,66.2,120.3,66.3,120.2,66.5z"/>
		<path class="st1" d="M116.2,65.5c-0.2-0.1-0.2-0.2-0.1-0.3c0.1-0.1,0.2-0.1,0.4-0.2c0.6-0.1,1.3-0.2,1.9-0.2c0.1,0,0.3,0,0.3,0.2
			c0,0.2-0.1,0.2-0.2,0.3c-0.2,0.1-0.5,0.1-0.8,0.1c-0.4,0-0.8,0.1-1.2,0.2C116.4,65.5,116.3,65.5,116.2,65.5z"/>
		<path class="st1" d="M120.1,64.4c0.1-0.2,0.4-0.4,0.7-0.3c0.2,0.1,0.3,0.3,0.2,0.4c-0.1,0.2-0.5,0.4-0.7,0.3
			C120,64.8,120,64.6,120.1,64.4z"/>
	</g>
</g>
</svg>
